%TF.GenerationSoftware,KiCad,Pcbnew,(6.0.7)*%
%TF.CreationDate,2023-05-28T21:31:41-04:00*%
%TF.ProjectId,kuc,6b75632e-6b69-4636-9164-5f7063625858,A*%
%TF.SameCoordinates,Original*%
%TF.FileFunction,Copper,L2,Bot*%
%TF.FilePolarity,Positive*%
%FSLAX46Y46*%
G04 Gerber Fmt 4.6, Leading zero omitted, Abs format (unit mm)*
G04 Created by KiCad (PCBNEW (6.0.7)) date 2023-05-28 21:31:41*
%MOMM*%
%LPD*%
G01*
G04 APERTURE LIST*
%TA.AperFunction,ComponentPad*%
%ADD10C,1.000000*%
%TD*%
%TA.AperFunction,WasherPad*%
%ADD11C,7.000000*%
%TD*%
%TA.AperFunction,ComponentPad*%
%ADD12C,1.850000*%
%TD*%
%TA.AperFunction,Conductor*%
%ADD13C,0.500000*%
%TD*%
G04 APERTURE END LIST*
D10*
%TO.P,TP12,1,1*%
%TO.N,Net-(J2-Pad9)*%
X158750000Y-102250000D03*
%TD*%
%TO.P,TP20,1,1*%
%TO.N,Net-(J2-Pad11)*%
X154250000Y-106750000D03*
%TD*%
%TO.P,TP49,1,1*%
%TO.N,GND*%
X152000000Y-104500000D03*
%TD*%
%TO.P,TP27,1,1*%
%TO.N,Net-(J2-Pad12)*%
X158750000Y-109000000D03*
%TD*%
%TO.P,TP45,1,1*%
%TO.N,GND*%
X152000000Y-86500000D03*
%TD*%
%TO.P,TP5,1,1*%
%TO.N,Net-(J2-Pad9)*%
X156500000Y-102250000D03*
%TD*%
%TO.P,TP54,1,1*%
%TO.N,GND*%
X152000000Y-91000000D03*
%TD*%
%TO.P,TP50,1,1*%
%TO.N,GND*%
X152000000Y-84250000D03*
%TD*%
%TO.P,TP14,1,1*%
%TO.N,Net-(J2-Pad13)*%
X156500000Y-111250000D03*
%TD*%
%TO.P,TP28,1,1*%
%TO.N,Net-(J2-Pad14)*%
X158750000Y-113500000D03*
%TD*%
%TO.P,TP9,1,1*%
%TO.N,Net-(J2-Pad3)*%
X156500000Y-88750000D03*
%TD*%
%TO.P,TP10,1,1*%
%TO.N,Net-(J2-Pad5)*%
X156500000Y-93250000D03*
%TD*%
%TO.P,TP35,1,1*%
%TO.N,Net-(J2-Pad14)*%
X156500000Y-113500000D03*
%TD*%
%TO.P,TP22,1,1*%
%TO.N,Net-(J2-Pad2)*%
X158750000Y-86500000D03*
%TD*%
%TO.P,TP7,1,1*%
%TO.N,Net-(J2-Pad13)*%
X158750000Y-111250000D03*
%TD*%
%TO.P,TP41,1,1*%
%TO.N,Net-(J2-Pad12)*%
X154250000Y-109000000D03*
%TD*%
%TO.P,TP15,1,1*%
%TO.N,Net-(J2-Pad1)*%
X154250000Y-84250000D03*
%TD*%
%TO.P,TP48,1,1*%
%TO.N,GND*%
X152000000Y-97750000D03*
%TD*%
%TO.P,TP38,1,1*%
%TO.N,Net-(J2-Pad6)*%
X158750000Y-95500000D03*
%TD*%
%TO.P,TP4,1,1*%
%TO.N,Net-(J2-Pad7)*%
X158750000Y-97750000D03*
%TD*%
%TO.P,TP47,1,1*%
%TO.N,GND*%
X152000000Y-102250000D03*
%TD*%
%TO.P,TP51,1,1*%
%TO.N,GND*%
X152000000Y-93250000D03*
%TD*%
D11*
%TO.P,J2,*%
%TO.N,*%
X165000000Y-87500000D03*
D12*
%TO.P,J2,1,SSW*%
%TO.N,Net-(J2-Pad1)*%
X165900000Y-105750000D03*
%TO.P,J2,2,SP+*%
%TO.N,Net-(J2-Pad2)*%
X164100000Y-107050000D03*
%TO.P,J2,3,SP-*%
%TO.N,Net-(J2-Pad3)*%
X165900000Y-108350000D03*
%TO.P,J2,4,MSW*%
%TO.N,Net-(J2-Pad4)*%
X164100000Y-109650000D03*
%TO.P,J2,5,EMC*%
%TO.N,Net-(J2-Pad5)*%
X165900000Y-110950000D03*
%TO.P,J2,6,ME*%
%TO.N,Net-(J2-Pad6)*%
X164100000Y-112250000D03*
%TO.P,J2,7,PTT*%
%TO.N,Net-(J2-Pad7)*%
X165900000Y-113550000D03*
%TO.P,J2,8,PF*%
%TO.N,Net-(J2-Pad8)*%
X164100000Y-114850000D03*
%TO.P,J2,9,OPT*%
%TO.N,Net-(J2-Pad9)*%
X165900000Y-116150000D03*
%TO.P,J2,10,E*%
%TO.N,GND*%
X164100000Y-117450000D03*
%TO.P,J2,11,5V*%
%TO.N,Net-(J2-Pad11)*%
X165900000Y-118750000D03*
%TO.P,J2,12,TXD*%
%TO.N,Net-(J2-Pad12)*%
X164100000Y-120050000D03*
%TO.P,J2,13,RXD*%
%TO.N,Net-(J2-Pad13)*%
X165900000Y-121350000D03*
%TO.P,J2,14,SMIC*%
%TO.N,Net-(J2-Pad14)*%
X164100000Y-122650000D03*
%TD*%
D10*
%TO.P,TP16,1,1*%
%TO.N,Net-(J2-Pad3)*%
X154250000Y-88750000D03*
%TD*%
%TO.P,TP21,1,1*%
%TO.N,Net-(J2-Pad13)*%
X154250000Y-111250000D03*
%TD*%
%TO.P,TPe,1,1*%
%TO.N,GND*%
X152000000Y-88750000D03*
%TD*%
%TO.P,TP6,1,1*%
%TO.N,Net-(J2-Pad11)*%
X158750000Y-106750000D03*
%TD*%
%TO.P,TP37,1,1*%
%TO.N,Net-(J2-Pad4)*%
X154250000Y-91000000D03*
%TD*%
%TO.P,TP32,1,1*%
%TO.N,Net-(J2-Pad8)*%
X156500000Y-100000000D03*
%TD*%
%TO.P,TP29,1,1*%
%TO.N,Net-(J2-Pad2)*%
X156500000Y-86500000D03*
%TD*%
%TO.P,TP19,1,1*%
%TO.N,Net-(J2-Pad9)*%
X154250000Y-102250000D03*
%TD*%
%TO.P,TP1,1,1*%
%TO.N,Net-(J2-Pad1)*%
X158750000Y-84250000D03*
%TD*%
%TO.P,TP40,1,1*%
%TO.N,GND*%
X158750000Y-104500000D03*
%TD*%
%TO.P,TP42,1,1*%
%TO.N,Net-(J2-Pad14)*%
X154250000Y-113500000D03*
%TD*%
%TO.P,TP3,1,1*%
%TO.N,Net-(J2-Pad5)*%
X158750000Y-93250000D03*
%TD*%
%TO.P,TP24,1,1*%
%TO.N,Net-(J2-Pad6)*%
X154250000Y-95500000D03*
%TD*%
%TO.P,TP25,1,1*%
%TO.N,Net-(J2-Pad8)*%
X154250000Y-100000000D03*
%TD*%
%TO.P,TP18,1,1*%
%TO.N,Net-(J2-Pad7)*%
X154250000Y-97750000D03*
%TD*%
%TO.P,TP13,1,1*%
%TO.N,Net-(J2-Pad11)*%
X156500000Y-106750000D03*
%TD*%
%TO.P,TP2,1,1*%
%TO.N,Net-(J2-Pad3)*%
X158750000Y-88750000D03*
%TD*%
%TO.P,TP39,1,1*%
%TO.N,Net-(J2-Pad8)*%
X158750000Y-100000000D03*
%TD*%
%TO.P,TP23,1,1*%
%TO.N,Net-(J2-Pad4)*%
X158750000Y-91000000D03*
%TD*%
%TO.P,TP44,1,1*%
%TO.N,GND*%
X152000000Y-95500000D03*
%TD*%
%TO.P,TP17,1,1*%
%TO.N,Net-(J2-Pad5)*%
X154250000Y-93250000D03*
%TD*%
%TO.P,TP11,1,1*%
%TO.N,Net-(J2-Pad7)*%
X156500000Y-97750000D03*
%TD*%
%TO.P,TP33,1,1*%
%TO.N,GND*%
X154250000Y-104500000D03*
%TD*%
%TO.P,TP36,1,1*%
%TO.N,Net-(J2-Pad2)*%
X154250000Y-86500000D03*
%TD*%
%TO.P,TP30,1,1*%
%TO.N,Net-(J2-Pad4)*%
X156500000Y-91000000D03*
%TD*%
%TO.P,TP56,1,1*%
%TO.N,GND*%
X152000000Y-100000000D03*
%TD*%
%TO.P,TP8,1,1*%
%TO.N,Net-(J2-Pad1)*%
X156500000Y-84250000D03*
%TD*%
%TO.P,TP34,1,1*%
%TO.N,Net-(J2-Pad12)*%
X156500000Y-109000000D03*
%TD*%
%TO.P,TP26,1,1*%
%TO.N,GND*%
X156500000Y-104500000D03*
%TD*%
%TO.P,TP31,1,1*%
%TO.N,Net-(J2-Pad6)*%
X156500000Y-95500000D03*
%TD*%
D13*
%TO.N,Net-(J2-Pad13)*%
X154250000Y-111250000D02*
X156500000Y-111250000D01*
X158750000Y-111250000D02*
X156500000Y-111250000D01*
%TO.N,Net-(J2-Pad11)*%
X154250000Y-106750000D02*
X156500000Y-106750000D01*
X158750000Y-106750000D02*
X156500000Y-106750000D01*
%TO.N,Net-(J2-Pad9)*%
X154250000Y-102250000D02*
X156500000Y-102250000D01*
X158750000Y-102250000D02*
X156500000Y-102250000D01*
%TO.N,Net-(J2-Pad7)*%
X158750000Y-97750000D02*
X156500000Y-97750000D01*
X154250000Y-97750000D02*
X156500000Y-97750000D01*
%TO.N,Net-(J2-Pad5)*%
X158750000Y-93250000D02*
X156500000Y-93250000D01*
X154250000Y-93250000D02*
X156500000Y-93250000D01*
%TO.N,Net-(J2-Pad3)*%
X158750000Y-88750000D02*
X156500000Y-88750000D01*
X154250000Y-88750000D02*
X156500000Y-88750000D01*
%TO.N,Net-(J2-Pad1)*%
X158750000Y-84250000D02*
X156500000Y-84250000D01*
X154250000Y-84250000D02*
X156500000Y-84250000D01*
%TO.N,Net-(J2-Pad8)*%
X154250000Y-100000000D02*
X156500000Y-100000000D01*
X158750000Y-100000000D02*
X156500000Y-100000000D01*
%TO.N,Net-(J2-Pad12)*%
X156500000Y-109000000D02*
X154250000Y-109000000D01*
X158750000Y-109000000D02*
X156500000Y-109000000D01*
%TO.N,Net-(J2-Pad14)*%
X154250000Y-113500000D02*
X156500000Y-113500000D01*
X158750000Y-113500000D02*
X156500000Y-113500000D01*
%TO.N,Net-(J2-Pad2)*%
X158750000Y-86500000D02*
X156500000Y-86500000D01*
X154250000Y-86500000D02*
X156500000Y-86500000D01*
%TO.N,Net-(J2-Pad4)*%
X158750000Y-91000000D02*
X156500000Y-91000000D01*
X154250000Y-91000000D02*
X156500000Y-91000000D01*
%TO.N,Net-(J2-Pad6)*%
X158750000Y-95500000D02*
X156500000Y-95500000D01*
X154250000Y-95500000D02*
X156500000Y-95500000D01*
%TD*%
%TA.AperFunction,Conductor*%
%TO.N,GND*%
G36*
X151645765Y-83270462D02*
G01*
X151700303Y-83325000D01*
X151720265Y-83399500D01*
X151700303Y-83474000D01*
X151649339Y-83526407D01*
X151566493Y-83577374D01*
X151555488Y-83589012D01*
X151557333Y-83595201D01*
X151986129Y-84023997D01*
X152000000Y-84032005D01*
X152013871Y-84023997D01*
X152436032Y-83601836D01*
X152444040Y-83587965D01*
X152440650Y-83582093D01*
X152352916Y-83526415D01*
X152354405Y-83524069D01*
X152306954Y-83482823D01*
X152281841Y-83409898D01*
X152296556Y-83334186D01*
X152347155Y-83275976D01*
X152420080Y-83250863D01*
X152430478Y-83250500D01*
X153473247Y-83250500D01*
X153547747Y-83270462D01*
X153602285Y-83325000D01*
X153622247Y-83399500D01*
X153602285Y-83474000D01*
X153566610Y-83515622D01*
X153552284Y-83527140D01*
X153552279Y-83527145D01*
X153546600Y-83531711D01*
X153420480Y-83682016D01*
X153325956Y-83853954D01*
X153266628Y-84040978D01*
X153265815Y-84048222D01*
X153265815Y-84048224D01*
X153250853Y-84181616D01*
X153244757Y-84235963D01*
X153261175Y-84431483D01*
X153263185Y-84438492D01*
X153263185Y-84438493D01*
X153268779Y-84458000D01*
X153315258Y-84620091D01*
X153404944Y-84794601D01*
X153409466Y-84800306D01*
X153508635Y-84925427D01*
X153526818Y-84948369D01*
X153676238Y-85075535D01*
X153682601Y-85079091D01*
X153841149Y-85167701D01*
X153841155Y-85167704D01*
X153847513Y-85171257D01*
X154031802Y-85231137D01*
X154031805Y-85231138D01*
X154034118Y-85231889D01*
X154033994Y-85232272D01*
X154098654Y-85265793D01*
X154140205Y-85330771D01*
X154143701Y-85407820D01*
X154108203Y-85476294D01*
X154040247Y-85518756D01*
X153873393Y-85567864D01*
X153699512Y-85658767D01*
X153693838Y-85663329D01*
X153553798Y-85775924D01*
X153546600Y-85781711D01*
X153420480Y-85932016D01*
X153325956Y-86103954D01*
X153266628Y-86290978D01*
X153265815Y-86298222D01*
X153265815Y-86298224D01*
X153260471Y-86345867D01*
X153244757Y-86485963D01*
X153261175Y-86681483D01*
X153263185Y-86688492D01*
X153263185Y-86688493D01*
X153272801Y-86722028D01*
X153315258Y-86870091D01*
X153404944Y-87044601D01*
X153526818Y-87198369D01*
X153676238Y-87325535D01*
X153682601Y-87329091D01*
X153841149Y-87417701D01*
X153841155Y-87417704D01*
X153847513Y-87421257D01*
X154031802Y-87481137D01*
X154031805Y-87481138D01*
X154034118Y-87481889D01*
X154033994Y-87482272D01*
X154098654Y-87515793D01*
X154140205Y-87580771D01*
X154143701Y-87657820D01*
X154108203Y-87726294D01*
X154040247Y-87768756D01*
X153873393Y-87817864D01*
X153699512Y-87908767D01*
X153693838Y-87913329D01*
X153553798Y-88025924D01*
X153546600Y-88031711D01*
X153420480Y-88182016D01*
X153325956Y-88353954D01*
X153266628Y-88540978D01*
X153265815Y-88548222D01*
X153265815Y-88548224D01*
X153264273Y-88561974D01*
X153244757Y-88735963D01*
X153261175Y-88931483D01*
X153263185Y-88938492D01*
X153263185Y-88938493D01*
X153268779Y-88958000D01*
X153315258Y-89120091D01*
X153404944Y-89294601D01*
X153526818Y-89448369D01*
X153676238Y-89575535D01*
X153682601Y-89579091D01*
X153841149Y-89667701D01*
X153841155Y-89667704D01*
X153847513Y-89671257D01*
X154031802Y-89731137D01*
X154031805Y-89731138D01*
X154034118Y-89731889D01*
X154033994Y-89732272D01*
X154098654Y-89765793D01*
X154140205Y-89830771D01*
X154143701Y-89907820D01*
X154108203Y-89976294D01*
X154040247Y-90018756D01*
X153873393Y-90067864D01*
X153699512Y-90158767D01*
X153693838Y-90163329D01*
X153553798Y-90275924D01*
X153546600Y-90281711D01*
X153420480Y-90432016D01*
X153325956Y-90603954D01*
X153266628Y-90790978D01*
X153265815Y-90798222D01*
X153265815Y-90798224D01*
X153245569Y-90978722D01*
X153244757Y-90985963D01*
X153261175Y-91181483D01*
X153263185Y-91188492D01*
X153263185Y-91188493D01*
X153268779Y-91208000D01*
X153315258Y-91370091D01*
X153404944Y-91544601D01*
X153526818Y-91698369D01*
X153676238Y-91825535D01*
X153682601Y-91829091D01*
X153841149Y-91917701D01*
X153841155Y-91917704D01*
X153847513Y-91921257D01*
X154031802Y-91981137D01*
X154031805Y-91981138D01*
X154034118Y-91981889D01*
X154033994Y-91982272D01*
X154098654Y-92015793D01*
X154140205Y-92080771D01*
X154143701Y-92157820D01*
X154108203Y-92226294D01*
X154040247Y-92268756D01*
X153873393Y-92317864D01*
X153699512Y-92408767D01*
X153693838Y-92413329D01*
X153553798Y-92525924D01*
X153546600Y-92531711D01*
X153420480Y-92682016D01*
X153325956Y-92853954D01*
X153266628Y-93040978D01*
X153265815Y-93048222D01*
X153265815Y-93048224D01*
X153264273Y-93061974D01*
X153244757Y-93235963D01*
X153261175Y-93431483D01*
X153263185Y-93438492D01*
X153263185Y-93438493D01*
X153268779Y-93458000D01*
X153315258Y-93620091D01*
X153404944Y-93794601D01*
X153526818Y-93948369D01*
X153676238Y-94075535D01*
X153682601Y-94079091D01*
X153841149Y-94167701D01*
X153841155Y-94167704D01*
X153847513Y-94171257D01*
X154031802Y-94231137D01*
X154031805Y-94231138D01*
X154034118Y-94231889D01*
X154033994Y-94232272D01*
X154098654Y-94265793D01*
X154140205Y-94330771D01*
X154143701Y-94407820D01*
X154108203Y-94476294D01*
X154040247Y-94518756D01*
X153873393Y-94567864D01*
X153699512Y-94658767D01*
X153693838Y-94663329D01*
X153553798Y-94775924D01*
X153546600Y-94781711D01*
X153420480Y-94932016D01*
X153325956Y-95103954D01*
X153266628Y-95290978D01*
X153265815Y-95298222D01*
X153265815Y-95298224D01*
X153264273Y-95311974D01*
X153244757Y-95485963D01*
X153261175Y-95681483D01*
X153263185Y-95688492D01*
X153263185Y-95688493D01*
X153268779Y-95708000D01*
X153315258Y-95870091D01*
X153404944Y-96044601D01*
X153526818Y-96198369D01*
X153676238Y-96325535D01*
X153682601Y-96329091D01*
X153841149Y-96417701D01*
X153841155Y-96417704D01*
X153847513Y-96421257D01*
X154031802Y-96481137D01*
X154031805Y-96481138D01*
X154034118Y-96481889D01*
X154033994Y-96482272D01*
X154098654Y-96515793D01*
X154140205Y-96580771D01*
X154143701Y-96657820D01*
X154108203Y-96726294D01*
X154040247Y-96768756D01*
X153873393Y-96817864D01*
X153699512Y-96908767D01*
X153693838Y-96913329D01*
X153553798Y-97025924D01*
X153546600Y-97031711D01*
X153420480Y-97182016D01*
X153325956Y-97353954D01*
X153266628Y-97540978D01*
X153265815Y-97548222D01*
X153265815Y-97548224D01*
X153264273Y-97561974D01*
X153244757Y-97735963D01*
X153261175Y-97931483D01*
X153263185Y-97938492D01*
X153263185Y-97938493D01*
X153268779Y-97958000D01*
X153315258Y-98120091D01*
X153404944Y-98294601D01*
X153526818Y-98448369D01*
X153676238Y-98575535D01*
X153682601Y-98579091D01*
X153841149Y-98667701D01*
X153841155Y-98667704D01*
X153847513Y-98671257D01*
X154031802Y-98731137D01*
X154031805Y-98731138D01*
X154034118Y-98731889D01*
X154033994Y-98732272D01*
X154098654Y-98765793D01*
X154140205Y-98830771D01*
X154143701Y-98907820D01*
X154108203Y-98976294D01*
X154040247Y-99018756D01*
X153873393Y-99067864D01*
X153699512Y-99158767D01*
X153693838Y-99163329D01*
X153553798Y-99275924D01*
X153546600Y-99281711D01*
X153420480Y-99432016D01*
X153325956Y-99603954D01*
X153266628Y-99790978D01*
X153265815Y-99798222D01*
X153265815Y-99798224D01*
X153264273Y-99811974D01*
X153244757Y-99985963D01*
X153261175Y-100181483D01*
X153263185Y-100188492D01*
X153263185Y-100188493D01*
X153268779Y-100208000D01*
X153315258Y-100370091D01*
X153404944Y-100544601D01*
X153526818Y-100698369D01*
X153676238Y-100825535D01*
X153682601Y-100829091D01*
X153841149Y-100917701D01*
X153841155Y-100917704D01*
X153847513Y-100921257D01*
X154031802Y-100981137D01*
X154031805Y-100981138D01*
X154034118Y-100981889D01*
X154033994Y-100982272D01*
X154098654Y-101015793D01*
X154140205Y-101080771D01*
X154143701Y-101157820D01*
X154108203Y-101226294D01*
X154040247Y-101268756D01*
X153873393Y-101317864D01*
X153699512Y-101408767D01*
X153693838Y-101413329D01*
X153553798Y-101525924D01*
X153546600Y-101531711D01*
X153420480Y-101682016D01*
X153325956Y-101853954D01*
X153266628Y-102040978D01*
X153265815Y-102048222D01*
X153265815Y-102048224D01*
X153264273Y-102061974D01*
X153244757Y-102235963D01*
X153261175Y-102431483D01*
X153263185Y-102438492D01*
X153263185Y-102438493D01*
X153268779Y-102458000D01*
X153315258Y-102620091D01*
X153404944Y-102794601D01*
X153526818Y-102948369D01*
X153676238Y-103075535D01*
X153682601Y-103079091D01*
X153841149Y-103167701D01*
X153841155Y-103167704D01*
X153847513Y-103171257D01*
X154034118Y-103231889D01*
X154107397Y-103240627D01*
X154221715Y-103254259D01*
X154221718Y-103254259D01*
X154228946Y-103255121D01*
X154340443Y-103246542D01*
X154417314Y-103240627D01*
X154417316Y-103240627D01*
X154424576Y-103240068D01*
X154613556Y-103187303D01*
X154620062Y-103184016D01*
X154620066Y-103184015D01*
X154782184Y-103102123D01*
X154782185Y-103102123D01*
X154788689Y-103098837D01*
X154845912Y-103054130D01*
X154874127Y-103032086D01*
X154945124Y-103001950D01*
X154965860Y-103000500D01*
X155783251Y-103000500D01*
X155857751Y-103020462D01*
X155879820Y-103036030D01*
X155926238Y-103075535D01*
X155932601Y-103079091D01*
X156091149Y-103167701D01*
X156091155Y-103167704D01*
X156097513Y-103171257D01*
X156284118Y-103231889D01*
X156357397Y-103240627D01*
X156471715Y-103254259D01*
X156471718Y-103254259D01*
X156478946Y-103255121D01*
X156590443Y-103246542D01*
X156667314Y-103240627D01*
X156667316Y-103240627D01*
X156674576Y-103240068D01*
X156863556Y-103187303D01*
X156870062Y-103184016D01*
X156870066Y-103184015D01*
X157032184Y-103102123D01*
X157032185Y-103102123D01*
X157038689Y-103098837D01*
X157095912Y-103054130D01*
X157124127Y-103032086D01*
X157195124Y-103001950D01*
X157215860Y-103000500D01*
X158033251Y-103000500D01*
X158107751Y-103020462D01*
X158129820Y-103036030D01*
X158176238Y-103075535D01*
X158182601Y-103079091D01*
X158341149Y-103167701D01*
X158341155Y-103167704D01*
X158347513Y-103171257D01*
X158534118Y-103231889D01*
X158607397Y-103240627D01*
X158721715Y-103254259D01*
X158721718Y-103254259D01*
X158728946Y-103255121D01*
X158840443Y-103246542D01*
X158917314Y-103240627D01*
X158917316Y-103240627D01*
X158924576Y-103240068D01*
X159113556Y-103187303D01*
X159120062Y-103184016D01*
X159120066Y-103184015D01*
X159282184Y-103102123D01*
X159282185Y-103102123D01*
X159288689Y-103098837D01*
X159389005Y-103020462D01*
X159437560Y-102982527D01*
X159437561Y-102982526D01*
X159443303Y-102978040D01*
X159571509Y-102829511D01*
X159631367Y-102724142D01*
X159664827Y-102665243D01*
X159664828Y-102665241D01*
X159668425Y-102658909D01*
X159730358Y-102472732D01*
X159754949Y-102278071D01*
X159755341Y-102250000D01*
X159736194Y-102054728D01*
X159679484Y-101866894D01*
X159587370Y-101693653D01*
X159582767Y-101688010D01*
X159582765Y-101688006D01*
X159467964Y-101547246D01*
X159463361Y-101541602D01*
X159312180Y-101416535D01*
X159139585Y-101323213D01*
X158955395Y-101266197D01*
X158890129Y-101225097D01*
X158854158Y-101156871D01*
X158857118Y-101079800D01*
X158898218Y-101014534D01*
X158959385Y-100980349D01*
X159106533Y-100939264D01*
X159106534Y-100939264D01*
X159113556Y-100937303D01*
X159120062Y-100934016D01*
X159120066Y-100934015D01*
X159282184Y-100852123D01*
X159282185Y-100852123D01*
X159288689Y-100848837D01*
X159389005Y-100770462D01*
X159437560Y-100732527D01*
X159437561Y-100732526D01*
X159443303Y-100728040D01*
X159571509Y-100579511D01*
X159631367Y-100474142D01*
X159664827Y-100415243D01*
X159664828Y-100415241D01*
X159668425Y-100408909D01*
X159730358Y-100222732D01*
X159754949Y-100028071D01*
X159755341Y-100000000D01*
X159736194Y-99804728D01*
X159679484Y-99616894D01*
X159587370Y-99443653D01*
X159582767Y-99438010D01*
X159582765Y-99438006D01*
X159467964Y-99297246D01*
X159463361Y-99291602D01*
X159312180Y-99166535D01*
X159139585Y-99073213D01*
X158955395Y-99016197D01*
X158890129Y-98975097D01*
X158854158Y-98906871D01*
X158857118Y-98829800D01*
X158898218Y-98764534D01*
X158959385Y-98730349D01*
X159106533Y-98689264D01*
X159106534Y-98689264D01*
X159113556Y-98687303D01*
X159120062Y-98684016D01*
X159120066Y-98684015D01*
X159282184Y-98602123D01*
X159282185Y-98602123D01*
X159288689Y-98598837D01*
X159389005Y-98520462D01*
X159437560Y-98482527D01*
X159437561Y-98482526D01*
X159443303Y-98478040D01*
X159571509Y-98329511D01*
X159631367Y-98224142D01*
X159664827Y-98165243D01*
X159664828Y-98165241D01*
X159668425Y-98158909D01*
X159730358Y-97972732D01*
X159754949Y-97778071D01*
X159755341Y-97750000D01*
X159736194Y-97554728D01*
X159679484Y-97366894D01*
X159587370Y-97193653D01*
X159582767Y-97188010D01*
X159582765Y-97188006D01*
X159467964Y-97047246D01*
X159463361Y-97041602D01*
X159312180Y-96916535D01*
X159139585Y-96823213D01*
X158955395Y-96766197D01*
X158890129Y-96725097D01*
X158854158Y-96656871D01*
X158857118Y-96579800D01*
X158898218Y-96514534D01*
X158959385Y-96480349D01*
X159106533Y-96439264D01*
X159106534Y-96439264D01*
X159113556Y-96437303D01*
X159120062Y-96434016D01*
X159120066Y-96434015D01*
X159282184Y-96352123D01*
X159282185Y-96352123D01*
X159288689Y-96348837D01*
X159389005Y-96270462D01*
X159437560Y-96232527D01*
X159437561Y-96232526D01*
X159443303Y-96228040D01*
X159571509Y-96079511D01*
X159631367Y-95974142D01*
X159664827Y-95915243D01*
X159664828Y-95915241D01*
X159668425Y-95908909D01*
X159730358Y-95722732D01*
X159754949Y-95528071D01*
X159755341Y-95500000D01*
X159736194Y-95304728D01*
X159679484Y-95116894D01*
X159587370Y-94943653D01*
X159582767Y-94938010D01*
X159582765Y-94938006D01*
X159467964Y-94797246D01*
X159463361Y-94791602D01*
X159312180Y-94666535D01*
X159139585Y-94573213D01*
X158955395Y-94516197D01*
X158890129Y-94475097D01*
X158854158Y-94406871D01*
X158857118Y-94329800D01*
X158898218Y-94264534D01*
X158959385Y-94230349D01*
X159106533Y-94189264D01*
X159106534Y-94189264D01*
X159113556Y-94187303D01*
X159120062Y-94184016D01*
X159120066Y-94184015D01*
X159282184Y-94102123D01*
X159282185Y-94102123D01*
X159288689Y-94098837D01*
X159389005Y-94020462D01*
X159437560Y-93982527D01*
X159437561Y-93982526D01*
X159443303Y-93978040D01*
X159571509Y-93829511D01*
X159631367Y-93724142D01*
X159664827Y-93665243D01*
X159664828Y-93665241D01*
X159668425Y-93658909D01*
X159730358Y-93472732D01*
X159754949Y-93278071D01*
X159755341Y-93250000D01*
X159736194Y-93054728D01*
X159679484Y-92866894D01*
X159587370Y-92693653D01*
X159582767Y-92688010D01*
X159582765Y-92688006D01*
X159467964Y-92547246D01*
X159463361Y-92541602D01*
X159312180Y-92416535D01*
X159139585Y-92323213D01*
X158955395Y-92266197D01*
X158890129Y-92225097D01*
X158854158Y-92156871D01*
X158857118Y-92079800D01*
X158898218Y-92014534D01*
X158959385Y-91980349D01*
X159106533Y-91939264D01*
X159106534Y-91939264D01*
X159113556Y-91937303D01*
X159120062Y-91934016D01*
X159120066Y-91934015D01*
X159282184Y-91852123D01*
X159282185Y-91852123D01*
X159288689Y-91848837D01*
X159389005Y-91770462D01*
X159437560Y-91732527D01*
X159437561Y-91732526D01*
X159443303Y-91728040D01*
X159571509Y-91579511D01*
X159647962Y-91444931D01*
X159664827Y-91415243D01*
X159664828Y-91415241D01*
X159668425Y-91408909D01*
X159730358Y-91222732D01*
X159754949Y-91028071D01*
X159755341Y-91000000D01*
X159736194Y-90804728D01*
X159679484Y-90616894D01*
X159646930Y-90555668D01*
X159590792Y-90450088D01*
X159590790Y-90450085D01*
X159587370Y-90443653D01*
X159582767Y-90438010D01*
X159582765Y-90438006D01*
X159467964Y-90297246D01*
X159463361Y-90291602D01*
X159312180Y-90166535D01*
X159139585Y-90073213D01*
X158955395Y-90016197D01*
X158890129Y-89975097D01*
X158854158Y-89906871D01*
X158857118Y-89829800D01*
X158898218Y-89764534D01*
X158959385Y-89730349D01*
X159106533Y-89689264D01*
X159106534Y-89689264D01*
X159113556Y-89687303D01*
X159120062Y-89684016D01*
X159120066Y-89684015D01*
X159282184Y-89602123D01*
X159282185Y-89602123D01*
X159288689Y-89598837D01*
X159389005Y-89520462D01*
X159437560Y-89482527D01*
X159437561Y-89482526D01*
X159443303Y-89478040D01*
X159571509Y-89329511D01*
X159631367Y-89224142D01*
X159664827Y-89165243D01*
X159664828Y-89165241D01*
X159668425Y-89158909D01*
X159730358Y-88972732D01*
X159754949Y-88778071D01*
X159755341Y-88750000D01*
X159736194Y-88554728D01*
X159679484Y-88366894D01*
X159604884Y-88226592D01*
X159590792Y-88200088D01*
X159590790Y-88200085D01*
X159587370Y-88193653D01*
X159582767Y-88188010D01*
X159582765Y-88188006D01*
X159467964Y-88047246D01*
X159463361Y-88041602D01*
X159312180Y-87916535D01*
X159139585Y-87823213D01*
X158955395Y-87766197D01*
X158890129Y-87725097D01*
X158854158Y-87656871D01*
X158857118Y-87579800D01*
X158898218Y-87514534D01*
X158959385Y-87480349D01*
X159106533Y-87439264D01*
X159106534Y-87439264D01*
X159113556Y-87437303D01*
X159120062Y-87434016D01*
X159120066Y-87434015D01*
X159282184Y-87352123D01*
X159282185Y-87352123D01*
X159288689Y-87348837D01*
X159389005Y-87270462D01*
X159437560Y-87232527D01*
X159437561Y-87232526D01*
X159443303Y-87228040D01*
X159571509Y-87079511D01*
X159631367Y-86974142D01*
X159664827Y-86915243D01*
X159664828Y-86915241D01*
X159668425Y-86908909D01*
X159730358Y-86722732D01*
X159737813Y-86663723D01*
X159754427Y-86532200D01*
X159754949Y-86528071D01*
X159755341Y-86500000D01*
X159736194Y-86304728D01*
X159679484Y-86116894D01*
X159605162Y-85977115D01*
X159590792Y-85950088D01*
X159590790Y-85950085D01*
X159587370Y-85943653D01*
X159582767Y-85938010D01*
X159582765Y-85938006D01*
X159467964Y-85797246D01*
X159463361Y-85791602D01*
X159312180Y-85666535D01*
X159139585Y-85573213D01*
X158955395Y-85516197D01*
X158890129Y-85475097D01*
X158854158Y-85406871D01*
X158857118Y-85329800D01*
X158898218Y-85264534D01*
X158959385Y-85230349D01*
X159106533Y-85189264D01*
X159106534Y-85189264D01*
X159113556Y-85187303D01*
X159120062Y-85184016D01*
X159120066Y-85184015D01*
X159282184Y-85102123D01*
X159282185Y-85102123D01*
X159288689Y-85098837D01*
X159389005Y-85020462D01*
X159437560Y-84982527D01*
X159437561Y-84982526D01*
X159443303Y-84978040D01*
X159571509Y-84829511D01*
X159631367Y-84724142D01*
X159664827Y-84665243D01*
X159664828Y-84665241D01*
X159668425Y-84658909D01*
X159730358Y-84472732D01*
X159754949Y-84278071D01*
X159755341Y-84250000D01*
X159736194Y-84054728D01*
X159679484Y-83866894D01*
X159669209Y-83847570D01*
X159590792Y-83700088D01*
X159590790Y-83700085D01*
X159587370Y-83693653D01*
X159582767Y-83688010D01*
X159582765Y-83688006D01*
X159467964Y-83547246D01*
X159463361Y-83541602D01*
X159457751Y-83536961D01*
X159457745Y-83536955D01*
X159430367Y-83514306D01*
X159385688Y-83451437D01*
X159378430Y-83374651D01*
X159410537Y-83304524D01*
X159473406Y-83259845D01*
X159525343Y-83250500D01*
X164360872Y-83250500D01*
X164435372Y-83270462D01*
X164489910Y-83325000D01*
X164509872Y-83399500D01*
X164489910Y-83474000D01*
X164435372Y-83528538D01*
X164381609Y-83547050D01*
X164358056Y-83550360D01*
X164249477Y-83565620D01*
X163869131Y-83657636D01*
X163865695Y-83658832D01*
X163865690Y-83658834D01*
X163765704Y-83693653D01*
X163499579Y-83786327D01*
X163456845Y-83806073D01*
X163147640Y-83948946D01*
X163147634Y-83948949D01*
X163144349Y-83950467D01*
X162806831Y-84148487D01*
X162803896Y-84150620D01*
X162803889Y-84150624D01*
X162634205Y-84273907D01*
X162490248Y-84378498D01*
X162197621Y-84638305D01*
X162195143Y-84640981D01*
X161944327Y-84911838D01*
X161931743Y-84925427D01*
X161695152Y-85237124D01*
X161490107Y-85570420D01*
X161464507Y-85622908D01*
X161338878Y-85880486D01*
X161318564Y-85922135D01*
X161250946Y-86103954D01*
X161183978Y-86284028D01*
X161182162Y-86288910D01*
X161082201Y-86667246D01*
X161081618Y-86670849D01*
X161081617Y-86670851D01*
X161037260Y-86944720D01*
X161019637Y-87053531D01*
X161019409Y-87057162D01*
X161019408Y-87057167D01*
X160995368Y-87439264D01*
X160995065Y-87444077D01*
X160999805Y-87579800D01*
X161008305Y-87823213D01*
X161008722Y-87835157D01*
X161009205Y-87838773D01*
X161009205Y-87838779D01*
X161059994Y-88219422D01*
X161059996Y-88219432D01*
X161060477Y-88223038D01*
X161149834Y-88604017D01*
X161151004Y-88607453D01*
X161151006Y-88607461D01*
X161208761Y-88777114D01*
X161275943Y-88974458D01*
X161437598Y-89330826D01*
X161633258Y-89669717D01*
X161861053Y-89987899D01*
X161863451Y-89990638D01*
X161863454Y-89990642D01*
X162111183Y-90273621D01*
X162118810Y-90282333D01*
X162121456Y-90284818D01*
X162121464Y-90284826D01*
X162401416Y-90547717D01*
X162404069Y-90550208D01*
X162714107Y-90788969D01*
X163045964Y-90996337D01*
X163049216Y-90997951D01*
X163049219Y-90997953D01*
X163393220Y-91168717D01*
X163393225Y-91168719D01*
X163396472Y-91170331D01*
X163399861Y-91171618D01*
X163399867Y-91171621D01*
X163567795Y-91235410D01*
X163762287Y-91309290D01*
X164139915Y-91411890D01*
X164143513Y-91412499D01*
X164143515Y-91412499D01*
X164159739Y-91415243D01*
X164525754Y-91477150D01*
X164529371Y-91477403D01*
X164529380Y-91477404D01*
X164737262Y-91491940D01*
X164916119Y-91504447D01*
X164919742Y-91504346D01*
X164919752Y-91504346D01*
X165303641Y-91493622D01*
X165303645Y-91493622D01*
X165307285Y-91493520D01*
X165310900Y-91493063D01*
X165310904Y-91493063D01*
X165456030Y-91474729D01*
X165695517Y-91444475D01*
X165836260Y-91412499D01*
X166073564Y-91358585D01*
X166073567Y-91358584D01*
X166077111Y-91357779D01*
X166116097Y-91344810D01*
X166444968Y-91235410D01*
X166444974Y-91235408D01*
X166448424Y-91234260D01*
X166451751Y-91232779D01*
X166451758Y-91232776D01*
X166802586Y-91076577D01*
X166802596Y-91076572D01*
X166805911Y-91075096D01*
X167146160Y-90881808D01*
X167366167Y-90726610D01*
X167462953Y-90658335D01*
X167462955Y-90658333D01*
X167465924Y-90656239D01*
X167762150Y-90400544D01*
X167764653Y-90397915D01*
X167764662Y-90397907D01*
X168029498Y-90119801D01*
X168029499Y-90119800D01*
X168032011Y-90117162D01*
X168067890Y-90071240D01*
X168270692Y-89811665D01*
X168270694Y-89811663D01*
X168272931Y-89808799D01*
X168482610Y-89478398D01*
X168486099Y-89471492D01*
X168625905Y-89194720D01*
X168659046Y-89129112D01*
X168800557Y-88764277D01*
X168867644Y-88523997D01*
X168904812Y-88390878D01*
X168904813Y-88390872D01*
X168905790Y-88387374D01*
X168910537Y-88360456D01*
X168953764Y-88115301D01*
X168986359Y-88045400D01*
X169049539Y-88001161D01*
X169126374Y-87994439D01*
X169196275Y-88027034D01*
X169240514Y-88090214D01*
X169249500Y-88141175D01*
X169249500Y-127199481D01*
X169247726Y-127222403D01*
X169244391Y-127243823D01*
X169246503Y-127259978D01*
X169247556Y-127287085D01*
X169233477Y-127555734D01*
X169231847Y-127571245D01*
X169185175Y-127865921D01*
X169181932Y-127881176D01*
X169104716Y-128169349D01*
X169099897Y-128184182D01*
X168992977Y-128462720D01*
X168986633Y-128476968D01*
X168851187Y-128742795D01*
X168843389Y-128756301D01*
X168680901Y-129006510D01*
X168671735Y-129019126D01*
X168483976Y-129250990D01*
X168473540Y-129262580D01*
X168262580Y-129473540D01*
X168250990Y-129483976D01*
X168019128Y-129671734D01*
X168006511Y-129680900D01*
X167946853Y-129719643D01*
X167756301Y-129843389D01*
X167742798Y-129851185D01*
X167695404Y-129875334D01*
X167476968Y-129986633D01*
X167462720Y-129992977D01*
X167184182Y-130099897D01*
X167169349Y-130104716D01*
X166881176Y-130181932D01*
X166865921Y-130185175D01*
X166800446Y-130195545D01*
X166571237Y-130231848D01*
X166555739Y-130233476D01*
X166294609Y-130247162D01*
X166274133Y-130246116D01*
X166266671Y-130246025D01*
X166256177Y-130244391D01*
X166237334Y-130246855D01*
X166226726Y-130248242D01*
X166207407Y-130249500D01*
X160650519Y-130249500D01*
X160627597Y-130247726D01*
X160616668Y-130246024D01*
X160616665Y-130246024D01*
X160606177Y-130244391D01*
X160593933Y-130245992D01*
X160563768Y-130246855D01*
X160496490Y-130241944D01*
X160393083Y-130234396D01*
X160371623Y-130231246D01*
X160179708Y-130188610D01*
X160158928Y-130182375D01*
X160157766Y-130181932D01*
X159975247Y-130112324D01*
X159955605Y-130103145D01*
X159784029Y-130007153D01*
X159765919Y-129995211D01*
X159682125Y-129930738D01*
X159610113Y-129875331D01*
X159593930Y-129860886D01*
X159457181Y-129719643D01*
X159443265Y-129702999D01*
X159328487Y-129543409D01*
X159317135Y-129524921D01*
X159293391Y-129479063D01*
X159241799Y-129379419D01*
X159236020Y-129364251D01*
X159235564Y-129364440D01*
X159231501Y-129354631D01*
X159228871Y-129344347D01*
X159223461Y-129335216D01*
X159223458Y-129335210D01*
X159219489Y-129328512D01*
X159208786Y-129306505D01*
X158028863Y-126268624D01*
X162599031Y-126268624D01*
X162601948Y-126278829D01*
X162606562Y-126294973D01*
X162610793Y-126314795D01*
X162614677Y-126341918D01*
X162619070Y-126351580D01*
X162619071Y-126351584D01*
X162624368Y-126363233D01*
X162631992Y-126383953D01*
X162638428Y-126406471D01*
X162644090Y-126415446D01*
X162644091Y-126415447D01*
X162653051Y-126429649D01*
X162662672Y-126447480D01*
X162665094Y-126452806D01*
X162674016Y-126472428D01*
X162689305Y-126490172D01*
X162702436Y-126507918D01*
X162714930Y-126527720D01*
X162722888Y-126534748D01*
X162735468Y-126545858D01*
X162749715Y-126560280D01*
X162760670Y-126572995D01*
X162760673Y-126572998D01*
X162767600Y-126581037D01*
X162776507Y-126586810D01*
X162787251Y-126593774D01*
X162804834Y-126607120D01*
X162822388Y-126622623D01*
X162831995Y-126627133D01*
X162831997Y-126627135D01*
X162847194Y-126634270D01*
X162864903Y-126644106D01*
X162887905Y-126659015D01*
X162910341Y-126665725D01*
X162930965Y-126673601D01*
X162952163Y-126683553D01*
X162979247Y-126687770D01*
X162999011Y-126692243D01*
X163015091Y-126697052D01*
X163015093Y-126697052D01*
X163025261Y-126700093D01*
X163035874Y-126700158D01*
X163040063Y-126700184D01*
X163059317Y-126700301D01*
X163059883Y-126700325D01*
X163061009Y-126700500D01*
X163091450Y-126700500D01*
X163092360Y-126700503D01*
X163168624Y-126700969D01*
X163169999Y-126700576D01*
X163171116Y-126700500D01*
X166891450Y-126700500D01*
X166892360Y-126700503D01*
X166968624Y-126700969D01*
X166994973Y-126693438D01*
X167014795Y-126689207D01*
X167031409Y-126686828D01*
X167031410Y-126686828D01*
X167041918Y-126685323D01*
X167051580Y-126680930D01*
X167051584Y-126680929D01*
X167063233Y-126675632D01*
X167083953Y-126668008D01*
X167106471Y-126661572D01*
X167115447Y-126655909D01*
X167129649Y-126646949D01*
X167147480Y-126637328D01*
X167162766Y-126630377D01*
X167172428Y-126625984D01*
X167190172Y-126610695D01*
X167207918Y-126597564D01*
X167209301Y-126596691D01*
X167227720Y-126585070D01*
X167245858Y-126564532D01*
X167260280Y-126550285D01*
X167272995Y-126539330D01*
X167272998Y-126539327D01*
X167281037Y-126532400D01*
X167293775Y-126512748D01*
X167307120Y-126495166D01*
X167322623Y-126477612D01*
X167329594Y-126462766D01*
X167334270Y-126452806D01*
X167344106Y-126435097D01*
X167359015Y-126412095D01*
X167365725Y-126389659D01*
X167373602Y-126369031D01*
X167376325Y-126363233D01*
X167383553Y-126347837D01*
X167387770Y-126320753D01*
X167392243Y-126300989D01*
X167397052Y-126284909D01*
X167397052Y-126284907D01*
X167400093Y-126274739D01*
X167400301Y-126240683D01*
X167400325Y-126240117D01*
X167400500Y-126238991D01*
X167400500Y-126208550D01*
X167400503Y-126207640D01*
X167400944Y-126135405D01*
X167400969Y-126131376D01*
X167400576Y-126130001D01*
X167400500Y-126128884D01*
X167400500Y-125108550D01*
X167400503Y-125107640D01*
X167400904Y-125041991D01*
X167400969Y-125031376D01*
X167393438Y-125005027D01*
X167389207Y-124985205D01*
X167386828Y-124968591D01*
X167386828Y-124968590D01*
X167385323Y-124958082D01*
X167380930Y-124948420D01*
X167380929Y-124948416D01*
X167375632Y-124936767D01*
X167368008Y-124916047D01*
X167361572Y-124893529D01*
X167355909Y-124884553D01*
X167346949Y-124870351D01*
X167337328Y-124852520D01*
X167330377Y-124837234D01*
X167325984Y-124827572D01*
X167310695Y-124809828D01*
X167297564Y-124792082D01*
X167296691Y-124790699D01*
X167285070Y-124772280D01*
X167264532Y-124754142D01*
X167250285Y-124739720D01*
X167239330Y-124727005D01*
X167239327Y-124727002D01*
X167232400Y-124718963D01*
X167212748Y-124706225D01*
X167195166Y-124692880D01*
X167177612Y-124677377D01*
X167168005Y-124672867D01*
X167168003Y-124672865D01*
X167152806Y-124665730D01*
X167135097Y-124655894D01*
X167112095Y-124640985D01*
X167089659Y-124634275D01*
X167069035Y-124626399D01*
X167047837Y-124616447D01*
X167020753Y-124612230D01*
X167000989Y-124607757D01*
X166984909Y-124602948D01*
X166984907Y-124602948D01*
X166974739Y-124599907D01*
X166964126Y-124599842D01*
X166959937Y-124599816D01*
X166940683Y-124599699D01*
X166940117Y-124599675D01*
X166938991Y-124599500D01*
X166908550Y-124599500D01*
X166907640Y-124599497D01*
X166907675Y-124599497D01*
X166831376Y-124599031D01*
X166830001Y-124599424D01*
X166828884Y-124599500D01*
X163108550Y-124599500D01*
X163107640Y-124599497D01*
X163031376Y-124599031D01*
X163005027Y-124606562D01*
X162985205Y-124610793D01*
X162968591Y-124613172D01*
X162968590Y-124613172D01*
X162958082Y-124614677D01*
X162948420Y-124619070D01*
X162948416Y-124619071D01*
X162936767Y-124624368D01*
X162916047Y-124631992D01*
X162893529Y-124638428D01*
X162884554Y-124644090D01*
X162884553Y-124644091D01*
X162870351Y-124653051D01*
X162852520Y-124662672D01*
X162840573Y-124668105D01*
X162827572Y-124674016D01*
X162809828Y-124689305D01*
X162792082Y-124702436D01*
X162772280Y-124714930D01*
X162765252Y-124722888D01*
X162754142Y-124735468D01*
X162739720Y-124749715D01*
X162727005Y-124760670D01*
X162727002Y-124760673D01*
X162718963Y-124767600D01*
X162713190Y-124776507D01*
X162706226Y-124787251D01*
X162692880Y-124804834D01*
X162677377Y-124822388D01*
X162672867Y-124831995D01*
X162672865Y-124831997D01*
X162665730Y-124847194D01*
X162655894Y-124864903D01*
X162640985Y-124887905D01*
X162637945Y-124898070D01*
X162634276Y-124910339D01*
X162626399Y-124930965D01*
X162616447Y-124952163D01*
X162614814Y-124962652D01*
X162612230Y-124979246D01*
X162607757Y-124999011D01*
X162599907Y-125025261D01*
X162599842Y-125035874D01*
X162599699Y-125059308D01*
X162599675Y-125059883D01*
X162599500Y-125061009D01*
X162599500Y-125091450D01*
X162599497Y-125092360D01*
X162599031Y-125168624D01*
X162599424Y-125169999D01*
X162599500Y-125171116D01*
X162599500Y-126191450D01*
X162599497Y-126192360D01*
X162599031Y-126268624D01*
X158028863Y-126268624D01*
X156609804Y-122615053D01*
X162670042Y-122615053D01*
X162673889Y-122681768D01*
X162678995Y-122770323D01*
X162683535Y-122849071D01*
X162735069Y-123077743D01*
X162737366Y-123083400D01*
X162737368Y-123083406D01*
X162777418Y-123182036D01*
X162823259Y-123294928D01*
X162826448Y-123300132D01*
X162826450Y-123300136D01*
X162882540Y-123391666D01*
X162945736Y-123494793D01*
X162949741Y-123499416D01*
X162949745Y-123499422D01*
X163020737Y-123581377D01*
X163099212Y-123671971D01*
X163279565Y-123821703D01*
X163284835Y-123824782D01*
X163284837Y-123824784D01*
X163476671Y-123936883D01*
X163476675Y-123936885D01*
X163481951Y-123939968D01*
X163700935Y-124023590D01*
X163930637Y-124070323D01*
X163950665Y-124071057D01*
X164158771Y-124078689D01*
X164158774Y-124078689D01*
X164164887Y-124078913D01*
X164397394Y-124049128D01*
X164403259Y-124047368D01*
X164403261Y-124047368D01*
X164482516Y-124023590D01*
X164621914Y-123981768D01*
X164832418Y-123878643D01*
X165023253Y-123742522D01*
X165189293Y-123577061D01*
X165326079Y-123386703D01*
X165429938Y-123176560D01*
X165431715Y-123170712D01*
X165496304Y-122958126D01*
X165496305Y-122958122D01*
X165498081Y-122952276D01*
X165506621Y-122887405D01*
X165536136Y-122816149D01*
X165597326Y-122769196D01*
X165673794Y-122759129D01*
X165684045Y-122760844D01*
X165730637Y-122770323D01*
X165750665Y-122771057D01*
X165958771Y-122778689D01*
X165958774Y-122778689D01*
X165964887Y-122778913D01*
X166197394Y-122749128D01*
X166203259Y-122747368D01*
X166203261Y-122747368D01*
X166274731Y-122725925D01*
X166421914Y-122681768D01*
X166632418Y-122578643D01*
X166823253Y-122442522D01*
X166989293Y-122277061D01*
X167038453Y-122208648D01*
X167122513Y-122091666D01*
X167122514Y-122091664D01*
X167126079Y-122086703D01*
X167229938Y-121876560D01*
X167298081Y-121652276D01*
X167328677Y-121419874D01*
X167330385Y-121350000D01*
X167311178Y-121116381D01*
X167254073Y-120889036D01*
X167160603Y-120674070D01*
X167086925Y-120560182D01*
X167036600Y-120482391D01*
X167036598Y-120482389D01*
X167033279Y-120477258D01*
X166875520Y-120303883D01*
X166870729Y-120300099D01*
X166870719Y-120300090D01*
X166699504Y-120164872D01*
X166653410Y-120103033D01*
X166644412Y-120026431D01*
X166674920Y-119955594D01*
X166705327Y-119926638D01*
X166818268Y-119846079D01*
X166818277Y-119846071D01*
X166823253Y-119842522D01*
X166989293Y-119677061D01*
X167038453Y-119608648D01*
X167122513Y-119491666D01*
X167122514Y-119491664D01*
X167126079Y-119486703D01*
X167229938Y-119276560D01*
X167298081Y-119052276D01*
X167328677Y-118819874D01*
X167330385Y-118750000D01*
X167311178Y-118516381D01*
X167302536Y-118481973D01*
X167255563Y-118294969D01*
X167254073Y-118289036D01*
X167160603Y-118074070D01*
X167033279Y-117877258D01*
X166875520Y-117703883D01*
X166870729Y-117700099D01*
X166870719Y-117700090D01*
X166699504Y-117564872D01*
X166653410Y-117503033D01*
X166644412Y-117426431D01*
X166674920Y-117355594D01*
X166705327Y-117326638D01*
X166818268Y-117246079D01*
X166818277Y-117246071D01*
X166823253Y-117242522D01*
X166989293Y-117077061D01*
X167126079Y-116886703D01*
X167229938Y-116676560D01*
X167286145Y-116491562D01*
X167296304Y-116458126D01*
X167296305Y-116458122D01*
X167298081Y-116452276D01*
X167328677Y-116219874D01*
X167330385Y-116150000D01*
X167311178Y-115916381D01*
X167254073Y-115689036D01*
X167160603Y-115474070D01*
X167086925Y-115360182D01*
X167036600Y-115282391D01*
X167036598Y-115282389D01*
X167033279Y-115277258D01*
X166875520Y-115103883D01*
X166870729Y-115100099D01*
X166870719Y-115100090D01*
X166699504Y-114964872D01*
X166653410Y-114903033D01*
X166644412Y-114826431D01*
X166674920Y-114755594D01*
X166705327Y-114726638D01*
X166818268Y-114646079D01*
X166818277Y-114646071D01*
X166823253Y-114642522D01*
X166975680Y-114490627D01*
X166984962Y-114481377D01*
X166984963Y-114481376D01*
X166989293Y-114477061D01*
X167038453Y-114408648D01*
X167122513Y-114291666D01*
X167122514Y-114291664D01*
X167126079Y-114286703D01*
X167229938Y-114076560D01*
X167282976Y-113901992D01*
X167296304Y-113858126D01*
X167296305Y-113858122D01*
X167298081Y-113852276D01*
X167328677Y-113619874D01*
X167330385Y-113550000D01*
X167319516Y-113417802D01*
X167311679Y-113322470D01*
X167311678Y-113322465D01*
X167311178Y-113316381D01*
X167306501Y-113297759D01*
X167256682Y-113099422D01*
X167254073Y-113089036D01*
X167160603Y-112874070D01*
X167057894Y-112715307D01*
X167036600Y-112682391D01*
X167036598Y-112682389D01*
X167033279Y-112677258D01*
X166875520Y-112503883D01*
X166870729Y-112500099D01*
X166870719Y-112500090D01*
X166699504Y-112364872D01*
X166653410Y-112303033D01*
X166644412Y-112226431D01*
X166674920Y-112155594D01*
X166705327Y-112126638D01*
X166818268Y-112046079D01*
X166818277Y-112046071D01*
X166823253Y-112042522D01*
X166989293Y-111877061D01*
X167044447Y-111800306D01*
X167122513Y-111691666D01*
X167122514Y-111691664D01*
X167126079Y-111686703D01*
X167229938Y-111476560D01*
X167269786Y-111345405D01*
X167296304Y-111258126D01*
X167296305Y-111258122D01*
X167298081Y-111252276D01*
X167328677Y-111019874D01*
X167330385Y-110950000D01*
X167311178Y-110716381D01*
X167307086Y-110700088D01*
X167268694Y-110547246D01*
X167254073Y-110489036D01*
X167243756Y-110465307D01*
X167207338Y-110381553D01*
X167160603Y-110274070D01*
X167084783Y-110156871D01*
X167036600Y-110082391D01*
X167036598Y-110082389D01*
X167033279Y-110077258D01*
X166875520Y-109903883D01*
X166870729Y-109900099D01*
X166870719Y-109900090D01*
X166699504Y-109764872D01*
X166653410Y-109703033D01*
X166644412Y-109626431D01*
X166674920Y-109555594D01*
X166705327Y-109526638D01*
X166818268Y-109446079D01*
X166818277Y-109446071D01*
X166823253Y-109442522D01*
X166989293Y-109277061D01*
X167063196Y-109174214D01*
X167122513Y-109091666D01*
X167122514Y-109091664D01*
X167126079Y-109086703D01*
X167229938Y-108876560D01*
X167249561Y-108811974D01*
X167296304Y-108658126D01*
X167296305Y-108658122D01*
X167298081Y-108652276D01*
X167328677Y-108419874D01*
X167330385Y-108350000D01*
X167315684Y-108171185D01*
X167311679Y-108122470D01*
X167311678Y-108122465D01*
X167311178Y-108116381D01*
X167299840Y-108071240D01*
X167255563Y-107894969D01*
X167254073Y-107889036D01*
X167228317Y-107829800D01*
X167169672Y-107694928D01*
X167160603Y-107674070D01*
X167048315Y-107500500D01*
X167036600Y-107482391D01*
X167036598Y-107482389D01*
X167033279Y-107477258D01*
X166875520Y-107303883D01*
X166870729Y-107300099D01*
X166870719Y-107300090D01*
X166699504Y-107164872D01*
X166653410Y-107103033D01*
X166644412Y-107026431D01*
X166674920Y-106955594D01*
X166705327Y-106926638D01*
X166818268Y-106846079D01*
X166818277Y-106846071D01*
X166823253Y-106842522D01*
X166989293Y-106677061D01*
X167038453Y-106608648D01*
X167122513Y-106491666D01*
X167122514Y-106491664D01*
X167126079Y-106486703D01*
X167229938Y-106276560D01*
X167298081Y-106052276D01*
X167328677Y-105819874D01*
X167328777Y-105815808D01*
X167329961Y-105767347D01*
X167330385Y-105750000D01*
X167319952Y-105623099D01*
X167311679Y-105522470D01*
X167311678Y-105522465D01*
X167311178Y-105516381D01*
X167302536Y-105481973D01*
X167255563Y-105294969D01*
X167254073Y-105289036D01*
X167251123Y-105282250D01*
X167163042Y-105079680D01*
X167160603Y-105074070D01*
X167071138Y-104935779D01*
X167036600Y-104882391D01*
X167036598Y-104882389D01*
X167033279Y-104877258D01*
X166875520Y-104703883D01*
X166701495Y-104566446D01*
X166655402Y-104504607D01*
X166646404Y-104428006D01*
X166676911Y-104357168D01*
X166738751Y-104311074D01*
X166794753Y-104300518D01*
X166841028Y-104300800D01*
X166868624Y-104300969D01*
X166894973Y-104293438D01*
X166914795Y-104289207D01*
X166931409Y-104286828D01*
X166931410Y-104286828D01*
X166941918Y-104285323D01*
X166951580Y-104280930D01*
X166951584Y-104280929D01*
X166963233Y-104275632D01*
X166983953Y-104268008D01*
X167006471Y-104261572D01*
X167015447Y-104255909D01*
X167029649Y-104246949D01*
X167047480Y-104237328D01*
X167062766Y-104230377D01*
X167072428Y-104225984D01*
X167090172Y-104210695D01*
X167107918Y-104197564D01*
X167109301Y-104196691D01*
X167127720Y-104185070D01*
X167145858Y-104164532D01*
X167160280Y-104150285D01*
X167172995Y-104139330D01*
X167172998Y-104139327D01*
X167181037Y-104132400D01*
X167193775Y-104112748D01*
X167207120Y-104095166D01*
X167222623Y-104077612D01*
X167229594Y-104062766D01*
X167234270Y-104052806D01*
X167244106Y-104035097D01*
X167259015Y-104012095D01*
X167265725Y-103989659D01*
X167273602Y-103969031D01*
X167276325Y-103963233D01*
X167283553Y-103947837D01*
X167287770Y-103920753D01*
X167292243Y-103900989D01*
X167297052Y-103884909D01*
X167297052Y-103884907D01*
X167300093Y-103874739D01*
X167300301Y-103840683D01*
X167300325Y-103840117D01*
X167300500Y-103838991D01*
X167300500Y-103808550D01*
X167300503Y-103807640D01*
X167300602Y-103791450D01*
X167300969Y-103731376D01*
X167300576Y-103730001D01*
X167300500Y-103728884D01*
X167300500Y-101458550D01*
X167300503Y-101457640D01*
X167300904Y-101391991D01*
X167300969Y-101381376D01*
X167293438Y-101355027D01*
X167289207Y-101335205D01*
X167286828Y-101318591D01*
X167286828Y-101318590D01*
X167285323Y-101308082D01*
X167280930Y-101298420D01*
X167280929Y-101298416D01*
X167275632Y-101286767D01*
X167268008Y-101266047D01*
X167261572Y-101243529D01*
X167255909Y-101234553D01*
X167246949Y-101220351D01*
X167237328Y-101202520D01*
X167230377Y-101187234D01*
X167225984Y-101177572D01*
X167210695Y-101159828D01*
X167197564Y-101142082D01*
X167196691Y-101140699D01*
X167185070Y-101122280D01*
X167164532Y-101104142D01*
X167150285Y-101089720D01*
X167139330Y-101077005D01*
X167139327Y-101077002D01*
X167132400Y-101068963D01*
X167112748Y-101056225D01*
X167095166Y-101042880D01*
X167077612Y-101027377D01*
X167068005Y-101022867D01*
X167068003Y-101022865D01*
X167052806Y-101015730D01*
X167035097Y-101005894D01*
X167012095Y-100990985D01*
X166989659Y-100984275D01*
X166969035Y-100976399D01*
X166947837Y-100966447D01*
X166920753Y-100962230D01*
X166900989Y-100957757D01*
X166884909Y-100952948D01*
X166884907Y-100952948D01*
X166874739Y-100949907D01*
X166864126Y-100949842D01*
X166859937Y-100949816D01*
X166840683Y-100949699D01*
X166840117Y-100949675D01*
X166838991Y-100949500D01*
X166808550Y-100949500D01*
X166807640Y-100949497D01*
X166807675Y-100949497D01*
X166731376Y-100949031D01*
X166730001Y-100949424D01*
X166728884Y-100949500D01*
X163208550Y-100949500D01*
X163207640Y-100949497D01*
X163131376Y-100949031D01*
X163105027Y-100956562D01*
X163085205Y-100960793D01*
X163068591Y-100963172D01*
X163068590Y-100963172D01*
X163058082Y-100964677D01*
X163048420Y-100969070D01*
X163048416Y-100969071D01*
X163036767Y-100974368D01*
X163016047Y-100981992D01*
X162993529Y-100988428D01*
X162984554Y-100994090D01*
X162984553Y-100994091D01*
X162970351Y-101003051D01*
X162952520Y-101012672D01*
X162945657Y-101015793D01*
X162927572Y-101024016D01*
X162909828Y-101039305D01*
X162892082Y-101052436D01*
X162872280Y-101064930D01*
X162865252Y-101072888D01*
X162854142Y-101085468D01*
X162839720Y-101099715D01*
X162827005Y-101110670D01*
X162827002Y-101110673D01*
X162818963Y-101117600D01*
X162813190Y-101126507D01*
X162806226Y-101137251D01*
X162792880Y-101154834D01*
X162777377Y-101172388D01*
X162772867Y-101181995D01*
X162772865Y-101181997D01*
X162765730Y-101197194D01*
X162755894Y-101214903D01*
X162740985Y-101237905D01*
X162737945Y-101248070D01*
X162734276Y-101260339D01*
X162726399Y-101280965D01*
X162716447Y-101302163D01*
X162712230Y-101329246D01*
X162707757Y-101349011D01*
X162699907Y-101375261D01*
X162699842Y-101385874D01*
X162699699Y-101409308D01*
X162699675Y-101409883D01*
X162699500Y-101411009D01*
X162699500Y-101441450D01*
X162699497Y-101442360D01*
X162699031Y-101518624D01*
X162699424Y-101519999D01*
X162699500Y-101521116D01*
X162699500Y-103791450D01*
X162699497Y-103792360D01*
X162699031Y-103868624D01*
X162701948Y-103878829D01*
X162706562Y-103894973D01*
X162710793Y-103914795D01*
X162714677Y-103941918D01*
X162719070Y-103951580D01*
X162719071Y-103951584D01*
X162724368Y-103963233D01*
X162731992Y-103983953D01*
X162738428Y-104006471D01*
X162744090Y-104015446D01*
X162744091Y-104015447D01*
X162753051Y-104029649D01*
X162762672Y-104047480D01*
X162767275Y-104057602D01*
X162774016Y-104072428D01*
X162789305Y-104090172D01*
X162802436Y-104107918D01*
X162814930Y-104127720D01*
X162822888Y-104134748D01*
X162835468Y-104145858D01*
X162849715Y-104160280D01*
X162860670Y-104172995D01*
X162860673Y-104172998D01*
X162867600Y-104181037D01*
X162876507Y-104186810D01*
X162887251Y-104193774D01*
X162904834Y-104207120D01*
X162922388Y-104222623D01*
X162931995Y-104227133D01*
X162931997Y-104227135D01*
X162947194Y-104234270D01*
X162964903Y-104244106D01*
X162987905Y-104259015D01*
X163010341Y-104265725D01*
X163030965Y-104273601D01*
X163052163Y-104283553D01*
X163079247Y-104287770D01*
X163099011Y-104292243D01*
X163115091Y-104297052D01*
X163115093Y-104297052D01*
X163125261Y-104300093D01*
X163135874Y-104300158D01*
X163140063Y-104300184D01*
X163159317Y-104300301D01*
X163159883Y-104300325D01*
X163161009Y-104300500D01*
X163191450Y-104300500D01*
X163192360Y-104300503D01*
X163268624Y-104300969D01*
X163269999Y-104300576D01*
X163271116Y-104300500D01*
X165009648Y-104300500D01*
X165084148Y-104320462D01*
X165138686Y-104375000D01*
X165158648Y-104449500D01*
X165138686Y-104524000D01*
X165099111Y-104568653D01*
X164950330Y-104680361D01*
X164946106Y-104684781D01*
X164946105Y-104684782D01*
X164923533Y-104708402D01*
X164788382Y-104849830D01*
X164784937Y-104854880D01*
X164784933Y-104854885D01*
X164659732Y-105038422D01*
X164659729Y-105038427D01*
X164656287Y-105043473D01*
X164557594Y-105256091D01*
X164494951Y-105481973D01*
X164494302Y-105488048D01*
X164491966Y-105509904D01*
X164464200Y-105581860D01*
X164404175Y-105630293D01*
X164327975Y-105642225D01*
X164317687Y-105640761D01*
X164234611Y-105625963D01*
X164228496Y-105625888D01*
X164228493Y-105625888D01*
X164135921Y-105624757D01*
X164000221Y-105623099D01*
X163994182Y-105624023D01*
X163994183Y-105624023D01*
X163774548Y-105657632D01*
X163774546Y-105657633D01*
X163768511Y-105658556D01*
X163545704Y-105731381D01*
X163337782Y-105839618D01*
X163150330Y-105980361D01*
X163146106Y-105984781D01*
X163146105Y-105984782D01*
X163132040Y-105999500D01*
X162988382Y-106149830D01*
X162984937Y-106154880D01*
X162984933Y-106154885D01*
X162859732Y-106338422D01*
X162859729Y-106338427D01*
X162856287Y-106343473D01*
X162757594Y-106556091D01*
X162694951Y-106781973D01*
X162670042Y-107015053D01*
X162683535Y-107249071D01*
X162684878Y-107255030D01*
X162729514Y-107453092D01*
X162735069Y-107477743D01*
X162737366Y-107483400D01*
X162737368Y-107483406D01*
X162812203Y-107667701D01*
X162823259Y-107694928D01*
X162826448Y-107700132D01*
X162826450Y-107700136D01*
X162860145Y-107755121D01*
X162945736Y-107894793D01*
X162949741Y-107899416D01*
X162949745Y-107899422D01*
X163093873Y-108065808D01*
X163099212Y-108071971D01*
X163199689Y-108155389D01*
X163273444Y-108216621D01*
X163279565Y-108221703D01*
X163284837Y-108224783D01*
X163289853Y-108228296D01*
X163288698Y-108229946D01*
X163336130Y-108277870D01*
X163355709Y-108352472D01*
X163335364Y-108426868D01*
X163296174Y-108470858D01*
X163150330Y-108580361D01*
X162988382Y-108749830D01*
X162984937Y-108754880D01*
X162984933Y-108754885D01*
X162859732Y-108938422D01*
X162859729Y-108938427D01*
X162856287Y-108943473D01*
X162757594Y-109156091D01*
X162694951Y-109381973D01*
X162670042Y-109615053D01*
X162670394Y-109621153D01*
X162679003Y-109770462D01*
X162683535Y-109849071D01*
X162735069Y-110077743D01*
X162737366Y-110083400D01*
X162737368Y-110083406D01*
X162812703Y-110268931D01*
X162823259Y-110294928D01*
X162826448Y-110300132D01*
X162826450Y-110300136D01*
X162900629Y-110421185D01*
X162945736Y-110494793D01*
X162949741Y-110499416D01*
X162949745Y-110499422D01*
X163095202Y-110667342D01*
X163099212Y-110671971D01*
X163279565Y-110821703D01*
X163284837Y-110824783D01*
X163289853Y-110828296D01*
X163288698Y-110829946D01*
X163336130Y-110877870D01*
X163355709Y-110952472D01*
X163335364Y-111026868D01*
X163296174Y-111070858D01*
X163150330Y-111180361D01*
X162988382Y-111349830D01*
X162984937Y-111354880D01*
X162984933Y-111354885D01*
X162859732Y-111538422D01*
X162859729Y-111538427D01*
X162856287Y-111543473D01*
X162757594Y-111756091D01*
X162725423Y-111872094D01*
X162697572Y-111972523D01*
X162694951Y-111981973D01*
X162670042Y-112215053D01*
X162671936Y-112247905D01*
X162681157Y-112407820D01*
X162683535Y-112449071D01*
X162684878Y-112455030D01*
X162731821Y-112663329D01*
X162735069Y-112677743D01*
X162737366Y-112683400D01*
X162737368Y-112683406D01*
X162783594Y-112797246D01*
X162823259Y-112894928D01*
X162826448Y-112900132D01*
X162826450Y-112900136D01*
X162857061Y-112950088D01*
X162945736Y-113094793D01*
X162949741Y-113099416D01*
X162949745Y-113099422D01*
X163095202Y-113267342D01*
X163099212Y-113271971D01*
X163279565Y-113421703D01*
X163284837Y-113424783D01*
X163289853Y-113428296D01*
X163288698Y-113429946D01*
X163336130Y-113477870D01*
X163355709Y-113552472D01*
X163335364Y-113626868D01*
X163296174Y-113670858D01*
X163150330Y-113780361D01*
X162988382Y-113949830D01*
X162984937Y-113954880D01*
X162984933Y-113954885D01*
X162859732Y-114138422D01*
X162859729Y-114138427D01*
X162856287Y-114143473D01*
X162757594Y-114356091D01*
X162694951Y-114581973D01*
X162670042Y-114815053D01*
X162683535Y-115049071D01*
X162735069Y-115277743D01*
X162737366Y-115283400D01*
X162737368Y-115283406D01*
X162812703Y-115468931D01*
X162823259Y-115494928D01*
X162945736Y-115694793D01*
X162949741Y-115699416D01*
X162949745Y-115699422D01*
X163095202Y-115867342D01*
X163099212Y-115871971D01*
X163279565Y-116021703D01*
X163284835Y-116024782D01*
X163284837Y-116024784D01*
X163473733Y-116135166D01*
X163527984Y-116189989D01*
X163547556Y-116264592D01*
X163527204Y-116338987D01*
X163484020Y-116385866D01*
X163361268Y-116471817D01*
X163350973Y-116484086D01*
X163353694Y-116491562D01*
X164206773Y-117344641D01*
X164245337Y-117411436D01*
X164245337Y-117488564D01*
X164206773Y-117555359D01*
X163359071Y-118403061D01*
X163351063Y-118416932D01*
X163355041Y-118423823D01*
X163485160Y-118514933D01*
X163483908Y-118516721D01*
X163530952Y-118563783D01*
X163550901Y-118638286D01*
X163530926Y-118712783D01*
X163470701Y-118770425D01*
X163337782Y-118839618D01*
X163150330Y-118980361D01*
X162988382Y-119149830D01*
X162984937Y-119154880D01*
X162984933Y-119154885D01*
X162859732Y-119338422D01*
X162859729Y-119338427D01*
X162856287Y-119343473D01*
X162757594Y-119556091D01*
X162694951Y-119781973D01*
X162670042Y-120015053D01*
X162683535Y-120249071D01*
X162735069Y-120477743D01*
X162737366Y-120483400D01*
X162737368Y-120483406D01*
X162812703Y-120668931D01*
X162823259Y-120694928D01*
X162945736Y-120894793D01*
X162949741Y-120899416D01*
X162949745Y-120899422D01*
X163095202Y-121067342D01*
X163099212Y-121071971D01*
X163279565Y-121221703D01*
X163284837Y-121224783D01*
X163289853Y-121228296D01*
X163288698Y-121229946D01*
X163336130Y-121277870D01*
X163355709Y-121352472D01*
X163335364Y-121426868D01*
X163296174Y-121470858D01*
X163150330Y-121580361D01*
X162988382Y-121749830D01*
X162984937Y-121754880D01*
X162984933Y-121754885D01*
X162859732Y-121938422D01*
X162859729Y-121938427D01*
X162856287Y-121943473D01*
X162757594Y-122156091D01*
X162694951Y-122381973D01*
X162670042Y-122615053D01*
X156609804Y-122615053D01*
X154767873Y-117872738D01*
X154606197Y-117456481D01*
X162870888Y-117456481D01*
X162888436Y-117657056D01*
X162890685Y-117669811D01*
X162942797Y-117864294D01*
X162947228Y-117876468D01*
X163032319Y-118058945D01*
X163038798Y-118070167D01*
X163121817Y-118188732D01*
X163134086Y-118199027D01*
X163141562Y-118196306D01*
X163873997Y-117463871D01*
X163882005Y-117450000D01*
X163873997Y-117436129D01*
X163146939Y-116709071D01*
X163133068Y-116701063D01*
X163126177Y-116705041D01*
X163038798Y-116829833D01*
X163032319Y-116841055D01*
X162947228Y-117023532D01*
X162942797Y-117035706D01*
X162890685Y-117230189D01*
X162888436Y-117242944D01*
X162870888Y-117443519D01*
X162870888Y-117456481D01*
X154606197Y-117456481D01*
X153460468Y-114506635D01*
X153452103Y-114429963D01*
X153483195Y-114359379D01*
X153545413Y-114313799D01*
X153622086Y-114305434D01*
X153675533Y-114326797D01*
X153676238Y-114325535D01*
X153841149Y-114417701D01*
X153841155Y-114417704D01*
X153847513Y-114421257D01*
X154034118Y-114481889D01*
X154107397Y-114490627D01*
X154221715Y-114504259D01*
X154221718Y-114504259D01*
X154228946Y-114505121D01*
X154340443Y-114496542D01*
X154417314Y-114490627D01*
X154417316Y-114490627D01*
X154424576Y-114490068D01*
X154613556Y-114437303D01*
X154620062Y-114434016D01*
X154620066Y-114434015D01*
X154782184Y-114352123D01*
X154782185Y-114352123D01*
X154788689Y-114348837D01*
X154833536Y-114313799D01*
X154874127Y-114282086D01*
X154945124Y-114251950D01*
X154965860Y-114250500D01*
X155783251Y-114250500D01*
X155857751Y-114270462D01*
X155879820Y-114286030D01*
X155926238Y-114325535D01*
X155932601Y-114329091D01*
X156091149Y-114417701D01*
X156091155Y-114417704D01*
X156097513Y-114421257D01*
X156284118Y-114481889D01*
X156357397Y-114490627D01*
X156471715Y-114504259D01*
X156471718Y-114504259D01*
X156478946Y-114505121D01*
X156590443Y-114496542D01*
X156667314Y-114490627D01*
X156667316Y-114490627D01*
X156674576Y-114490068D01*
X156863556Y-114437303D01*
X156870062Y-114434016D01*
X156870066Y-114434015D01*
X157032184Y-114352123D01*
X157032185Y-114352123D01*
X157038689Y-114348837D01*
X157083536Y-114313799D01*
X157124127Y-114282086D01*
X157195124Y-114251950D01*
X157215860Y-114250500D01*
X158033251Y-114250500D01*
X158107751Y-114270462D01*
X158129820Y-114286030D01*
X158176238Y-114325535D01*
X158182601Y-114329091D01*
X158341149Y-114417701D01*
X158341155Y-114417704D01*
X158347513Y-114421257D01*
X158534118Y-114481889D01*
X158607397Y-114490627D01*
X158721715Y-114504259D01*
X158721718Y-114504259D01*
X158728946Y-114505121D01*
X158840443Y-114496542D01*
X158917314Y-114490627D01*
X158917316Y-114490627D01*
X158924576Y-114490068D01*
X159113556Y-114437303D01*
X159120062Y-114434016D01*
X159120066Y-114434015D01*
X159282184Y-114352123D01*
X159282185Y-114352123D01*
X159288689Y-114348837D01*
X159389005Y-114270462D01*
X159437560Y-114232527D01*
X159437561Y-114232526D01*
X159443303Y-114228040D01*
X159571509Y-114079511D01*
X159642307Y-113954885D01*
X159664827Y-113915243D01*
X159664828Y-113915241D01*
X159668425Y-113908909D01*
X159730358Y-113722732D01*
X159754949Y-113528071D01*
X159755341Y-113500000D01*
X159736194Y-113304728D01*
X159679484Y-113116894D01*
X159587370Y-112943653D01*
X159582767Y-112938010D01*
X159582765Y-112938006D01*
X159467964Y-112797246D01*
X159463361Y-112791602D01*
X159312180Y-112666535D01*
X159139585Y-112573213D01*
X158955395Y-112516197D01*
X158890129Y-112475097D01*
X158854158Y-112406871D01*
X158857118Y-112329800D01*
X158898218Y-112264534D01*
X158959385Y-112230349D01*
X159106533Y-112189264D01*
X159106534Y-112189264D01*
X159113556Y-112187303D01*
X159120062Y-112184016D01*
X159120066Y-112184015D01*
X159282184Y-112102123D01*
X159282185Y-112102123D01*
X159288689Y-112098837D01*
X159389005Y-112020462D01*
X159437560Y-111982527D01*
X159437561Y-111982526D01*
X159443303Y-111978040D01*
X159571509Y-111829511D01*
X159652636Y-111686703D01*
X159664827Y-111665243D01*
X159664828Y-111665241D01*
X159668425Y-111658909D01*
X159730358Y-111472732D01*
X159754949Y-111278071D01*
X159755341Y-111250000D01*
X159736194Y-111054728D01*
X159679484Y-110866894D01*
X159669209Y-110847570D01*
X159590792Y-110700088D01*
X159590790Y-110700085D01*
X159587370Y-110693653D01*
X159582767Y-110688010D01*
X159582765Y-110688006D01*
X159467964Y-110547246D01*
X159463361Y-110541602D01*
X159312180Y-110416535D01*
X159139585Y-110323213D01*
X158955395Y-110266197D01*
X158890129Y-110225097D01*
X158854158Y-110156871D01*
X158857118Y-110079800D01*
X158898218Y-110014534D01*
X158959385Y-109980349D01*
X159106533Y-109939264D01*
X159106534Y-109939264D01*
X159113556Y-109937303D01*
X159120062Y-109934016D01*
X159120066Y-109934015D01*
X159282184Y-109852123D01*
X159282185Y-109852123D01*
X159288689Y-109848837D01*
X159404185Y-109758602D01*
X159437560Y-109732527D01*
X159437561Y-109732526D01*
X159443303Y-109728040D01*
X159571509Y-109579511D01*
X159668425Y-109408909D01*
X159730358Y-109222732D01*
X159754949Y-109028071D01*
X159755341Y-109000000D01*
X159736194Y-108804728D01*
X159679484Y-108616894D01*
X159658108Y-108576692D01*
X159590792Y-108450088D01*
X159590790Y-108450085D01*
X159587370Y-108443653D01*
X159582767Y-108438010D01*
X159582765Y-108438006D01*
X159467964Y-108297246D01*
X159463361Y-108291602D01*
X159312180Y-108166535D01*
X159139585Y-108073213D01*
X158955395Y-108016197D01*
X158890129Y-107975097D01*
X158854158Y-107906871D01*
X158857118Y-107829800D01*
X158898218Y-107764534D01*
X158959385Y-107730349D01*
X159106533Y-107689264D01*
X159106534Y-107689264D01*
X159113556Y-107687303D01*
X159120062Y-107684016D01*
X159120066Y-107684015D01*
X159282184Y-107602123D01*
X159282185Y-107602123D01*
X159288689Y-107598837D01*
X159389005Y-107520462D01*
X159437560Y-107482527D01*
X159437561Y-107482526D01*
X159443303Y-107478040D01*
X159571509Y-107329511D01*
X159668425Y-107158909D01*
X159730358Y-106972732D01*
X159754949Y-106778071D01*
X159755341Y-106750000D01*
X159736194Y-106554728D01*
X159679484Y-106366894D01*
X159634364Y-106282036D01*
X159590792Y-106200088D01*
X159590790Y-106200085D01*
X159587370Y-106193653D01*
X159582767Y-106188010D01*
X159582765Y-106188006D01*
X159467964Y-106047246D01*
X159463361Y-106041602D01*
X159312180Y-105916535D01*
X159139585Y-105823213D01*
X159009202Y-105782853D01*
X158959111Y-105767347D01*
X158959109Y-105767347D01*
X158952152Y-105765193D01*
X158944910Y-105764432D01*
X158944906Y-105764431D01*
X158764260Y-105745444D01*
X158764259Y-105745444D01*
X158757019Y-105744683D01*
X158561618Y-105762466D01*
X158373393Y-105817864D01*
X158199512Y-105908767D01*
X158193831Y-105913335D01*
X158193829Y-105913336D01*
X158127556Y-105966621D01*
X158056987Y-105997746D01*
X158034192Y-105999500D01*
X157216112Y-105999500D01*
X157141612Y-105979538D01*
X157121137Y-105965307D01*
X157067802Y-105921185D01*
X157067796Y-105921181D01*
X157062180Y-105916535D01*
X156889585Y-105823213D01*
X156759202Y-105782853D01*
X156709111Y-105767347D01*
X156709109Y-105767347D01*
X156702152Y-105765193D01*
X156694910Y-105764432D01*
X156694906Y-105764431D01*
X156514260Y-105745444D01*
X156514259Y-105745444D01*
X156507019Y-105744683D01*
X156311618Y-105762466D01*
X156123393Y-105817864D01*
X155949512Y-105908767D01*
X155943831Y-105913335D01*
X155943829Y-105913336D01*
X155877556Y-105966621D01*
X155806987Y-105997746D01*
X155784192Y-105999500D01*
X154966112Y-105999500D01*
X154891612Y-105979538D01*
X154871137Y-105965307D01*
X154817802Y-105921185D01*
X154817796Y-105921181D01*
X154812180Y-105916535D01*
X154639585Y-105823213D01*
X154509202Y-105782853D01*
X154459111Y-105767347D01*
X154459109Y-105767347D01*
X154452152Y-105765193D01*
X154444910Y-105764432D01*
X154444906Y-105764431D01*
X154264260Y-105745444D01*
X154264259Y-105745444D01*
X154257019Y-105744683D01*
X154061618Y-105762466D01*
X153873393Y-105817864D01*
X153699512Y-105908767D01*
X153693838Y-105913329D01*
X153586663Y-105999500D01*
X153546600Y-106031711D01*
X153420480Y-106182016D01*
X153325956Y-106353954D01*
X153266628Y-106540978D01*
X153265815Y-106548222D01*
X153265815Y-106548224D01*
X153251921Y-106672094D01*
X153244757Y-106735963D01*
X153261175Y-106931483D01*
X153263185Y-106938492D01*
X153263185Y-106938493D01*
X153286888Y-107021153D01*
X153315258Y-107120091D01*
X153404944Y-107294601D01*
X153526818Y-107448369D01*
X153676238Y-107575535D01*
X153682601Y-107579091D01*
X153841149Y-107667701D01*
X153841155Y-107667704D01*
X153847513Y-107671257D01*
X154031802Y-107731137D01*
X154031805Y-107731138D01*
X154034118Y-107731889D01*
X154033994Y-107732272D01*
X154098654Y-107765793D01*
X154140205Y-107830771D01*
X154143701Y-107907820D01*
X154108203Y-107976294D01*
X154040247Y-108018756D01*
X153873393Y-108067864D01*
X153699512Y-108158767D01*
X153693838Y-108163329D01*
X153586663Y-108249500D01*
X153546600Y-108281711D01*
X153420480Y-108432016D01*
X153325956Y-108603954D01*
X153266628Y-108790978D01*
X153265815Y-108798222D01*
X153265815Y-108798224D01*
X153249523Y-108943473D01*
X153244757Y-108985963D01*
X153261175Y-109181483D01*
X153263185Y-109188492D01*
X153263185Y-109188493D01*
X153288582Y-109277061D01*
X153315258Y-109370091D01*
X153404944Y-109544601D01*
X153526818Y-109698369D01*
X153676238Y-109825535D01*
X153682601Y-109829091D01*
X153841149Y-109917701D01*
X153841155Y-109917704D01*
X153847513Y-109921257D01*
X154031802Y-109981137D01*
X154031805Y-109981138D01*
X154034118Y-109981889D01*
X154033994Y-109982272D01*
X154098654Y-110015793D01*
X154140205Y-110080771D01*
X154143701Y-110157820D01*
X154108203Y-110226294D01*
X154040247Y-110268756D01*
X153873393Y-110317864D01*
X153699512Y-110408767D01*
X153693838Y-110413329D01*
X153586663Y-110499500D01*
X153546600Y-110531711D01*
X153420480Y-110682016D01*
X153325956Y-110853954D01*
X153266628Y-111040978D01*
X153265815Y-111048222D01*
X153265815Y-111048224D01*
X153264273Y-111061974D01*
X153244757Y-111235963D01*
X153261175Y-111431483D01*
X153263185Y-111438492D01*
X153263185Y-111438493D01*
X153293288Y-111543473D01*
X153315258Y-111620091D01*
X153404944Y-111794601D01*
X153526818Y-111948369D01*
X153676238Y-112075535D01*
X153682601Y-112079091D01*
X153841149Y-112167701D01*
X153841155Y-112167704D01*
X153847513Y-112171257D01*
X154031802Y-112231137D01*
X154031805Y-112231138D01*
X154034118Y-112231889D01*
X154033994Y-112232272D01*
X154098654Y-112265793D01*
X154140205Y-112330771D01*
X154143701Y-112407820D01*
X154108203Y-112476294D01*
X154040247Y-112518756D01*
X153873393Y-112567864D01*
X153699512Y-112658767D01*
X153693838Y-112663329D01*
X153586663Y-112749500D01*
X153546600Y-112781711D01*
X153420480Y-112932016D01*
X153325956Y-113103954D01*
X153272658Y-113271971D01*
X153269346Y-113282411D01*
X153227792Y-113347388D01*
X153159316Y-113382882D01*
X153082268Y-113379383D01*
X153017291Y-113337829D01*
X152988430Y-113291304D01*
X149830918Y-105161838D01*
X151556157Y-105161838D01*
X151559716Y-105168004D01*
X151630044Y-105214024D01*
X151644827Y-105221492D01*
X151797430Y-105278244D01*
X151813495Y-105282250D01*
X151974885Y-105303784D01*
X151991433Y-105304130D01*
X152153584Y-105289374D01*
X152169806Y-105286044D01*
X152324653Y-105235731D01*
X152339727Y-105228894D01*
X152433791Y-105172819D01*
X152444470Y-105161838D01*
X153806157Y-105161838D01*
X153809716Y-105168004D01*
X153880044Y-105214024D01*
X153894827Y-105221492D01*
X154047430Y-105278244D01*
X154063495Y-105282250D01*
X154224885Y-105303784D01*
X154241433Y-105304130D01*
X154403584Y-105289374D01*
X154419806Y-105286044D01*
X154574653Y-105235731D01*
X154589727Y-105228894D01*
X154683791Y-105172819D01*
X154694470Y-105161838D01*
X156056157Y-105161838D01*
X156059716Y-105168004D01*
X156130044Y-105214024D01*
X156144827Y-105221492D01*
X156297430Y-105278244D01*
X156313495Y-105282250D01*
X156474885Y-105303784D01*
X156491433Y-105304130D01*
X156653584Y-105289374D01*
X156669806Y-105286044D01*
X156824653Y-105235731D01*
X156839727Y-105228894D01*
X156933791Y-105172819D01*
X156944470Y-105161838D01*
X158306157Y-105161838D01*
X158309716Y-105168004D01*
X158380044Y-105214024D01*
X158394827Y-105221492D01*
X158547430Y-105278244D01*
X158563495Y-105282250D01*
X158724885Y-105303784D01*
X158741433Y-105304130D01*
X158903584Y-105289374D01*
X158919806Y-105286044D01*
X159074653Y-105235731D01*
X159089727Y-105228894D01*
X159183791Y-105172819D01*
X159194958Y-105161336D01*
X159193283Y-105155415D01*
X158763871Y-104726003D01*
X158750000Y-104717995D01*
X158736129Y-104726003D01*
X158314165Y-105147967D01*
X158306157Y-105161838D01*
X156944470Y-105161838D01*
X156944958Y-105161336D01*
X156943283Y-105155415D01*
X156513871Y-104726003D01*
X156500000Y-104717995D01*
X156486129Y-104726003D01*
X156064165Y-105147967D01*
X156056157Y-105161838D01*
X154694470Y-105161838D01*
X154694958Y-105161336D01*
X154693283Y-105155415D01*
X154263871Y-104726003D01*
X154250000Y-104717995D01*
X154236129Y-104726003D01*
X153814165Y-105147967D01*
X153806157Y-105161838D01*
X152444470Y-105161838D01*
X152444958Y-105161336D01*
X152443283Y-105155415D01*
X152013871Y-104726003D01*
X152000000Y-104717995D01*
X151986129Y-104726003D01*
X151564165Y-105147967D01*
X151556157Y-105161838D01*
X149830918Y-105161838D01*
X149572711Y-104497046D01*
X151195828Y-104497046D01*
X151211719Y-104659096D01*
X151215159Y-104675281D01*
X151266555Y-104829785D01*
X151273498Y-104844810D01*
X151327291Y-104933634D01*
X151338852Y-104944720D01*
X151344907Y-104942961D01*
X151773997Y-104513871D01*
X151782005Y-104500000D01*
X152217995Y-104500000D01*
X152226003Y-104513871D01*
X152647911Y-104935779D01*
X152661782Y-104943787D01*
X152668101Y-104940139D01*
X152711426Y-104874929D01*
X152718993Y-104860205D01*
X152776810Y-104708000D01*
X152780929Y-104691961D01*
X152804097Y-104527114D01*
X152804813Y-104517795D01*
X152804997Y-104504687D01*
X152804623Y-104497046D01*
X153445828Y-104497046D01*
X153461719Y-104659096D01*
X153465159Y-104675281D01*
X153516555Y-104829785D01*
X153523498Y-104844810D01*
X153577291Y-104933634D01*
X153588852Y-104944720D01*
X153594907Y-104942961D01*
X154023997Y-104513871D01*
X154032005Y-104500000D01*
X154467995Y-104500000D01*
X154476003Y-104513871D01*
X154897911Y-104935779D01*
X154911782Y-104943787D01*
X154918101Y-104940139D01*
X154961426Y-104874929D01*
X154968993Y-104860205D01*
X155026810Y-104708000D01*
X155030929Y-104691961D01*
X155054097Y-104527114D01*
X155054813Y-104517795D01*
X155054997Y-104504687D01*
X155054623Y-104497046D01*
X155695828Y-104497046D01*
X155711719Y-104659096D01*
X155715159Y-104675281D01*
X155766555Y-104829785D01*
X155773498Y-104844810D01*
X155827291Y-104933634D01*
X155838852Y-104944720D01*
X155844907Y-104942961D01*
X156273997Y-104513871D01*
X156282005Y-104500000D01*
X156717995Y-104500000D01*
X156726003Y-104513871D01*
X157147911Y-104935779D01*
X157161782Y-104943787D01*
X157168101Y-104940139D01*
X157211426Y-104874929D01*
X157218993Y-104860205D01*
X157276810Y-104708000D01*
X157280929Y-104691961D01*
X157304097Y-104527114D01*
X157304813Y-104517795D01*
X157304997Y-104504687D01*
X157304623Y-104497046D01*
X157945828Y-104497046D01*
X157961719Y-104659096D01*
X157965159Y-104675281D01*
X158016555Y-104829785D01*
X158023498Y-104844810D01*
X158077291Y-104933634D01*
X158088852Y-104944720D01*
X158094907Y-104942961D01*
X158523997Y-104513871D01*
X158532005Y-104500000D01*
X158967995Y-104500000D01*
X158976003Y-104513871D01*
X159397911Y-104935779D01*
X159411782Y-104943787D01*
X159418101Y-104940139D01*
X159461426Y-104874929D01*
X159468993Y-104860205D01*
X159526810Y-104708000D01*
X159530929Y-104691961D01*
X159554097Y-104527114D01*
X159554813Y-104517795D01*
X159554997Y-104504687D01*
X159554540Y-104495342D01*
X159535985Y-104329926D01*
X159532314Y-104313767D01*
X159478771Y-104160012D01*
X159471617Y-104145081D01*
X159422570Y-104066590D01*
X159410857Y-104055668D01*
X159404530Y-104057602D01*
X158976003Y-104486129D01*
X158967995Y-104500000D01*
X158532005Y-104500000D01*
X158523997Y-104486129D01*
X158101949Y-104064081D01*
X158088078Y-104056073D01*
X158082061Y-104059547D01*
X158033410Y-104135037D01*
X158026046Y-104149871D01*
X157970361Y-104302867D01*
X157966467Y-104318961D01*
X157946060Y-104480499D01*
X157945828Y-104497046D01*
X157304623Y-104497046D01*
X157304540Y-104495342D01*
X157285985Y-104329926D01*
X157282314Y-104313767D01*
X157228771Y-104160012D01*
X157221617Y-104145081D01*
X157172570Y-104066590D01*
X157160857Y-104055668D01*
X157154530Y-104057602D01*
X156726003Y-104486129D01*
X156717995Y-104500000D01*
X156282005Y-104500000D01*
X156273997Y-104486129D01*
X155851949Y-104064081D01*
X155838078Y-104056073D01*
X155832061Y-104059547D01*
X155783410Y-104135037D01*
X155776046Y-104149871D01*
X155720361Y-104302867D01*
X155716467Y-104318961D01*
X155696060Y-104480499D01*
X155695828Y-104497046D01*
X155054623Y-104497046D01*
X155054540Y-104495342D01*
X155035985Y-104329926D01*
X155032314Y-104313767D01*
X154978771Y-104160012D01*
X154971617Y-104145081D01*
X154922570Y-104066590D01*
X154910857Y-104055668D01*
X154904530Y-104057602D01*
X154476003Y-104486129D01*
X154467995Y-104500000D01*
X154032005Y-104500000D01*
X154023997Y-104486129D01*
X153601949Y-104064081D01*
X153588078Y-104056073D01*
X153582061Y-104059547D01*
X153533410Y-104135037D01*
X153526046Y-104149871D01*
X153470361Y-104302867D01*
X153466467Y-104318961D01*
X153446060Y-104480499D01*
X153445828Y-104497046D01*
X152804623Y-104497046D01*
X152804540Y-104495342D01*
X152785985Y-104329926D01*
X152782314Y-104313767D01*
X152728771Y-104160012D01*
X152721617Y-104145081D01*
X152672570Y-104066590D01*
X152660857Y-104055668D01*
X152654530Y-104057602D01*
X152226003Y-104486129D01*
X152217995Y-104500000D01*
X151782005Y-104500000D01*
X151773997Y-104486129D01*
X151351949Y-104064081D01*
X151338078Y-104056073D01*
X151332061Y-104059547D01*
X151283410Y-104135037D01*
X151276046Y-104149871D01*
X151220361Y-104302867D01*
X151216467Y-104318961D01*
X151196060Y-104480499D01*
X151195828Y-104497046D01*
X149572711Y-104497046D01*
X149317128Y-103839012D01*
X151555488Y-103839012D01*
X151557333Y-103845201D01*
X151986129Y-104273997D01*
X152000000Y-104282005D01*
X152013871Y-104273997D01*
X152436032Y-103851836D01*
X152443436Y-103839012D01*
X153805488Y-103839012D01*
X153807333Y-103845201D01*
X154236129Y-104273997D01*
X154250000Y-104282005D01*
X154263871Y-104273997D01*
X154686032Y-103851836D01*
X154693436Y-103839012D01*
X156055488Y-103839012D01*
X156057333Y-103845201D01*
X156486129Y-104273997D01*
X156500000Y-104282005D01*
X156513871Y-104273997D01*
X156936032Y-103851836D01*
X156943436Y-103839012D01*
X158305488Y-103839012D01*
X158307333Y-103845201D01*
X158736129Y-104273997D01*
X158750000Y-104282005D01*
X158763871Y-104273997D01*
X159186032Y-103851836D01*
X159194040Y-103837965D01*
X159190650Y-103832093D01*
X159109949Y-103780878D01*
X159095070Y-103773621D01*
X158941686Y-103719004D01*
X158925563Y-103715222D01*
X158763887Y-103695944D01*
X158747340Y-103695828D01*
X158585404Y-103712848D01*
X158569246Y-103716400D01*
X158415106Y-103768874D01*
X158400124Y-103775924D01*
X158316493Y-103827374D01*
X158305488Y-103839012D01*
X156943436Y-103839012D01*
X156944040Y-103837965D01*
X156940650Y-103832093D01*
X156859949Y-103780878D01*
X156845070Y-103773621D01*
X156691686Y-103719004D01*
X156675563Y-103715222D01*
X156513887Y-103695944D01*
X156497340Y-103695828D01*
X156335404Y-103712848D01*
X156319246Y-103716400D01*
X156165106Y-103768874D01*
X156150124Y-103775924D01*
X156066493Y-103827374D01*
X156055488Y-103839012D01*
X154693436Y-103839012D01*
X154694040Y-103837965D01*
X154690650Y-103832093D01*
X154609949Y-103780878D01*
X154595070Y-103773621D01*
X154441686Y-103719004D01*
X154425563Y-103715222D01*
X154263887Y-103695944D01*
X154247340Y-103695828D01*
X154085404Y-103712848D01*
X154069246Y-103716400D01*
X153915106Y-103768874D01*
X153900124Y-103775924D01*
X153816493Y-103827374D01*
X153805488Y-103839012D01*
X152443436Y-103839012D01*
X152444040Y-103837965D01*
X152440650Y-103832093D01*
X152359949Y-103780878D01*
X152345070Y-103773621D01*
X152191686Y-103719004D01*
X152175563Y-103715222D01*
X152013887Y-103695944D01*
X151997340Y-103695828D01*
X151835404Y-103712848D01*
X151819246Y-103716400D01*
X151665106Y-103768874D01*
X151650124Y-103775924D01*
X151566493Y-103827374D01*
X151555488Y-103839012D01*
X149317128Y-103839012D01*
X148957010Y-102911838D01*
X151556157Y-102911838D01*
X151559716Y-102918004D01*
X151630044Y-102964024D01*
X151644827Y-102971492D01*
X151797430Y-103028244D01*
X151813495Y-103032250D01*
X151974885Y-103053784D01*
X151991433Y-103054130D01*
X152153584Y-103039374D01*
X152169806Y-103036044D01*
X152324653Y-102985731D01*
X152339727Y-102978894D01*
X152433791Y-102922819D01*
X152444958Y-102911336D01*
X152443283Y-102905415D01*
X152013871Y-102476003D01*
X152000000Y-102467995D01*
X151986129Y-102476003D01*
X151564165Y-102897967D01*
X151556157Y-102911838D01*
X148957010Y-102911838D01*
X148698803Y-102247046D01*
X151195828Y-102247046D01*
X151211719Y-102409096D01*
X151215159Y-102425281D01*
X151266555Y-102579785D01*
X151273498Y-102594810D01*
X151327291Y-102683634D01*
X151338852Y-102694720D01*
X151344907Y-102692961D01*
X151773997Y-102263871D01*
X151782005Y-102250000D01*
X152217995Y-102250000D01*
X152226003Y-102263871D01*
X152647911Y-102685779D01*
X152661782Y-102693787D01*
X152668101Y-102690139D01*
X152711426Y-102624929D01*
X152718993Y-102610205D01*
X152776810Y-102458000D01*
X152780929Y-102441961D01*
X152804097Y-102277114D01*
X152804813Y-102267795D01*
X152804997Y-102254687D01*
X152804540Y-102245342D01*
X152785985Y-102079926D01*
X152782314Y-102063767D01*
X152728771Y-101910012D01*
X152721617Y-101895081D01*
X152672570Y-101816590D01*
X152660857Y-101805668D01*
X152654530Y-101807602D01*
X152226003Y-102236129D01*
X152217995Y-102250000D01*
X151782005Y-102250000D01*
X151773997Y-102236129D01*
X151351949Y-101814081D01*
X151338078Y-101806073D01*
X151332061Y-101809547D01*
X151283410Y-101885037D01*
X151276046Y-101899871D01*
X151220361Y-102052867D01*
X151216467Y-102068961D01*
X151196060Y-102230499D01*
X151195828Y-102247046D01*
X148698803Y-102247046D01*
X148443221Y-101589012D01*
X151555488Y-101589012D01*
X151557333Y-101595201D01*
X151986129Y-102023997D01*
X152000000Y-102032005D01*
X152013871Y-102023997D01*
X152436032Y-101601836D01*
X152444040Y-101587965D01*
X152440650Y-101582093D01*
X152359949Y-101530878D01*
X152345070Y-101523621D01*
X152191686Y-101469004D01*
X152175563Y-101465222D01*
X152013887Y-101445944D01*
X151997340Y-101445828D01*
X151835404Y-101462848D01*
X151819246Y-101466400D01*
X151665106Y-101518874D01*
X151650124Y-101525924D01*
X151566493Y-101577374D01*
X151555488Y-101589012D01*
X148443221Y-101589012D01*
X148083103Y-100661838D01*
X151556157Y-100661838D01*
X151559716Y-100668004D01*
X151630044Y-100714024D01*
X151644827Y-100721492D01*
X151797430Y-100778244D01*
X151813495Y-100782250D01*
X151974885Y-100803784D01*
X151991433Y-100804130D01*
X152153584Y-100789374D01*
X152169806Y-100786044D01*
X152324653Y-100735731D01*
X152339727Y-100728894D01*
X152433791Y-100672819D01*
X152444958Y-100661336D01*
X152443283Y-100655415D01*
X152013871Y-100226003D01*
X152000000Y-100217995D01*
X151986129Y-100226003D01*
X151564165Y-100647967D01*
X151556157Y-100661838D01*
X148083103Y-100661838D01*
X147824896Y-99997046D01*
X151195828Y-99997046D01*
X151211719Y-100159096D01*
X151215159Y-100175281D01*
X151266555Y-100329785D01*
X151273498Y-100344810D01*
X151327291Y-100433634D01*
X151338852Y-100444720D01*
X151344907Y-100442961D01*
X151773997Y-100013871D01*
X151782005Y-100000000D01*
X152217995Y-100000000D01*
X152226003Y-100013871D01*
X152647911Y-100435779D01*
X152661782Y-100443787D01*
X152668101Y-100440139D01*
X152711426Y-100374929D01*
X152718993Y-100360205D01*
X152776810Y-100208000D01*
X152780929Y-100191961D01*
X152804097Y-100027114D01*
X152804813Y-100017795D01*
X152804997Y-100004687D01*
X152804540Y-99995342D01*
X152785985Y-99829926D01*
X152782314Y-99813767D01*
X152728771Y-99660012D01*
X152721617Y-99645081D01*
X152672570Y-99566590D01*
X152660857Y-99555668D01*
X152654530Y-99557602D01*
X152226003Y-99986129D01*
X152217995Y-100000000D01*
X151782005Y-100000000D01*
X151773997Y-99986129D01*
X151351949Y-99564081D01*
X151338078Y-99556073D01*
X151332061Y-99559547D01*
X151283410Y-99635037D01*
X151276046Y-99649871D01*
X151220361Y-99802867D01*
X151216467Y-99818961D01*
X151196060Y-99980499D01*
X151195828Y-99997046D01*
X147824896Y-99997046D01*
X147569314Y-99339012D01*
X151555488Y-99339012D01*
X151557333Y-99345201D01*
X151986129Y-99773997D01*
X152000000Y-99782005D01*
X152013871Y-99773997D01*
X152436032Y-99351836D01*
X152444040Y-99337965D01*
X152440650Y-99332093D01*
X152359949Y-99280878D01*
X152345070Y-99273621D01*
X152191686Y-99219004D01*
X152175563Y-99215222D01*
X152013887Y-99195944D01*
X151997340Y-99195828D01*
X151835404Y-99212848D01*
X151819246Y-99216400D01*
X151665106Y-99268874D01*
X151650124Y-99275924D01*
X151566493Y-99327374D01*
X151555488Y-99339012D01*
X147569314Y-99339012D01*
X147209196Y-98411838D01*
X151556157Y-98411838D01*
X151559716Y-98418004D01*
X151630044Y-98464024D01*
X151644827Y-98471492D01*
X151797430Y-98528244D01*
X151813495Y-98532250D01*
X151974885Y-98553784D01*
X151991433Y-98554130D01*
X152153584Y-98539374D01*
X152169806Y-98536044D01*
X152324653Y-98485731D01*
X152339727Y-98478894D01*
X152433791Y-98422819D01*
X152444958Y-98411336D01*
X152443283Y-98405415D01*
X152013871Y-97976003D01*
X152000000Y-97967995D01*
X151986129Y-97976003D01*
X151564165Y-98397967D01*
X151556157Y-98411838D01*
X147209196Y-98411838D01*
X146950989Y-97747046D01*
X151195828Y-97747046D01*
X151211719Y-97909096D01*
X151215159Y-97925281D01*
X151266555Y-98079785D01*
X151273498Y-98094810D01*
X151327291Y-98183634D01*
X151338852Y-98194720D01*
X151344907Y-98192961D01*
X151773997Y-97763871D01*
X151782005Y-97750000D01*
X152217995Y-97750000D01*
X152226003Y-97763871D01*
X152647911Y-98185779D01*
X152661782Y-98193787D01*
X152668101Y-98190139D01*
X152711426Y-98124929D01*
X152718993Y-98110205D01*
X152776810Y-97958000D01*
X152780929Y-97941961D01*
X152804097Y-97777114D01*
X152804813Y-97767795D01*
X152804997Y-97754687D01*
X152804540Y-97745342D01*
X152785985Y-97579926D01*
X152782314Y-97563767D01*
X152728771Y-97410012D01*
X152721617Y-97395081D01*
X152672570Y-97316590D01*
X152660857Y-97305668D01*
X152654530Y-97307602D01*
X152226003Y-97736129D01*
X152217995Y-97750000D01*
X151782005Y-97750000D01*
X151773997Y-97736129D01*
X151351949Y-97314081D01*
X151338078Y-97306073D01*
X151332061Y-97309547D01*
X151283410Y-97385037D01*
X151276046Y-97399871D01*
X151220361Y-97552867D01*
X151216467Y-97568961D01*
X151196060Y-97730499D01*
X151195828Y-97747046D01*
X146950989Y-97747046D01*
X146695407Y-97089012D01*
X151555488Y-97089012D01*
X151557333Y-97095201D01*
X151986129Y-97523997D01*
X152000000Y-97532005D01*
X152013871Y-97523997D01*
X152436032Y-97101836D01*
X152444040Y-97087965D01*
X152440650Y-97082093D01*
X152359949Y-97030878D01*
X152345070Y-97023621D01*
X152191686Y-96969004D01*
X152175563Y-96965222D01*
X152013887Y-96945944D01*
X151997340Y-96945828D01*
X151835404Y-96962848D01*
X151819246Y-96966400D01*
X151665106Y-97018874D01*
X151650124Y-97025924D01*
X151566493Y-97077374D01*
X151555488Y-97089012D01*
X146695407Y-97089012D01*
X146335289Y-96161838D01*
X151556157Y-96161838D01*
X151559716Y-96168004D01*
X151630044Y-96214024D01*
X151644827Y-96221492D01*
X151797430Y-96278244D01*
X151813495Y-96282250D01*
X151974885Y-96303784D01*
X151991433Y-96304130D01*
X152153584Y-96289374D01*
X152169806Y-96286044D01*
X152324653Y-96235731D01*
X152339727Y-96228894D01*
X152433791Y-96172819D01*
X152444958Y-96161336D01*
X152443283Y-96155415D01*
X152013871Y-95726003D01*
X152000000Y-95717995D01*
X151986129Y-95726003D01*
X151564165Y-96147967D01*
X151556157Y-96161838D01*
X146335289Y-96161838D01*
X146077082Y-95497046D01*
X151195828Y-95497046D01*
X151211719Y-95659096D01*
X151215159Y-95675281D01*
X151266555Y-95829785D01*
X151273498Y-95844810D01*
X151327291Y-95933634D01*
X151338852Y-95944720D01*
X151344907Y-95942961D01*
X151773997Y-95513871D01*
X151782005Y-95500000D01*
X152217995Y-95500000D01*
X152226003Y-95513871D01*
X152647911Y-95935779D01*
X152661782Y-95943787D01*
X152668101Y-95940139D01*
X152711426Y-95874929D01*
X152718993Y-95860205D01*
X152776810Y-95708000D01*
X152780929Y-95691961D01*
X152804097Y-95527114D01*
X152804813Y-95517795D01*
X152804997Y-95504687D01*
X152804540Y-95495342D01*
X152785985Y-95329926D01*
X152782314Y-95313767D01*
X152728771Y-95160012D01*
X152721617Y-95145081D01*
X152672570Y-95066590D01*
X152660857Y-95055668D01*
X152654530Y-95057602D01*
X152226003Y-95486129D01*
X152217995Y-95500000D01*
X151782005Y-95500000D01*
X151773997Y-95486129D01*
X151351949Y-95064081D01*
X151338078Y-95056073D01*
X151332061Y-95059547D01*
X151283410Y-95135037D01*
X151276046Y-95149871D01*
X151220361Y-95302867D01*
X151216467Y-95318961D01*
X151196060Y-95480499D01*
X151195828Y-95497046D01*
X146077082Y-95497046D01*
X145821499Y-94839012D01*
X151555488Y-94839012D01*
X151557333Y-94845201D01*
X151986129Y-95273997D01*
X152000000Y-95282005D01*
X152013871Y-95273997D01*
X152436032Y-94851836D01*
X152444040Y-94837965D01*
X152440650Y-94832093D01*
X152359949Y-94780878D01*
X152345070Y-94773621D01*
X152191686Y-94719004D01*
X152175563Y-94715222D01*
X152013887Y-94695944D01*
X151997340Y-94695828D01*
X151835404Y-94712848D01*
X151819246Y-94716400D01*
X151665106Y-94768874D01*
X151650124Y-94775924D01*
X151566493Y-94827374D01*
X151555488Y-94839012D01*
X145821499Y-94839012D01*
X145760609Y-94682241D01*
X145750500Y-94628295D01*
X145750500Y-93911838D01*
X151556157Y-93911838D01*
X151559716Y-93918004D01*
X151630044Y-93964024D01*
X151644827Y-93971492D01*
X151797430Y-94028244D01*
X151813495Y-94032250D01*
X151974885Y-94053784D01*
X151991433Y-94054130D01*
X152153584Y-94039374D01*
X152169806Y-94036044D01*
X152324653Y-93985731D01*
X152339727Y-93978894D01*
X152433791Y-93922819D01*
X152444958Y-93911336D01*
X152443283Y-93905415D01*
X152013871Y-93476003D01*
X152000000Y-93467995D01*
X151986129Y-93476003D01*
X151564165Y-93897967D01*
X151556157Y-93911838D01*
X145750500Y-93911838D01*
X145750500Y-93247046D01*
X151195828Y-93247046D01*
X151211719Y-93409096D01*
X151215159Y-93425281D01*
X151266555Y-93579785D01*
X151273498Y-93594810D01*
X151327291Y-93683634D01*
X151338852Y-93694720D01*
X151344907Y-93692961D01*
X151773997Y-93263871D01*
X151782005Y-93250000D01*
X152217995Y-93250000D01*
X152226003Y-93263871D01*
X152647911Y-93685779D01*
X152661782Y-93693787D01*
X152668101Y-93690139D01*
X152711426Y-93624929D01*
X152718993Y-93610205D01*
X152776810Y-93458000D01*
X152780929Y-93441961D01*
X152804097Y-93277114D01*
X152804813Y-93267795D01*
X152804997Y-93254687D01*
X152804540Y-93245342D01*
X152785985Y-93079926D01*
X152782314Y-93063767D01*
X152728771Y-92910012D01*
X152721617Y-92895081D01*
X152672570Y-92816590D01*
X152660857Y-92805668D01*
X152654530Y-92807602D01*
X152226003Y-93236129D01*
X152217995Y-93250000D01*
X151782005Y-93250000D01*
X151773997Y-93236129D01*
X151351949Y-92814081D01*
X151338078Y-92806073D01*
X151332061Y-92809547D01*
X151283410Y-92885037D01*
X151276046Y-92899871D01*
X151220361Y-93052867D01*
X151216467Y-93068961D01*
X151196060Y-93230499D01*
X151195828Y-93247046D01*
X145750500Y-93247046D01*
X145750500Y-92589012D01*
X151555488Y-92589012D01*
X151557333Y-92595201D01*
X151986129Y-93023997D01*
X152000000Y-93032005D01*
X152013871Y-93023997D01*
X152436032Y-92601836D01*
X152444040Y-92587965D01*
X152440650Y-92582093D01*
X152359949Y-92530878D01*
X152345070Y-92523621D01*
X152191686Y-92469004D01*
X152175563Y-92465222D01*
X152013887Y-92445944D01*
X151997340Y-92445828D01*
X151835404Y-92462848D01*
X151819246Y-92466400D01*
X151665106Y-92518874D01*
X151650124Y-92525924D01*
X151566493Y-92577374D01*
X151555488Y-92589012D01*
X145750500Y-92589012D01*
X145750500Y-91661838D01*
X151556157Y-91661838D01*
X151559716Y-91668004D01*
X151630044Y-91714024D01*
X151644827Y-91721492D01*
X151797430Y-91778244D01*
X151813495Y-91782250D01*
X151974885Y-91803784D01*
X151991433Y-91804130D01*
X152153584Y-91789374D01*
X152169806Y-91786044D01*
X152324653Y-91735731D01*
X152339727Y-91728894D01*
X152433791Y-91672819D01*
X152444958Y-91661336D01*
X152443283Y-91655415D01*
X152013871Y-91226003D01*
X152000000Y-91217995D01*
X151986129Y-91226003D01*
X151564165Y-91647967D01*
X151556157Y-91661838D01*
X145750500Y-91661838D01*
X145750500Y-90997046D01*
X151195828Y-90997046D01*
X151211719Y-91159096D01*
X151215159Y-91175281D01*
X151266555Y-91329785D01*
X151273498Y-91344810D01*
X151327291Y-91433634D01*
X151338852Y-91444720D01*
X151344907Y-91442961D01*
X151773997Y-91013871D01*
X151782005Y-91000000D01*
X152217995Y-91000000D01*
X152226003Y-91013871D01*
X152647911Y-91435779D01*
X152661782Y-91443787D01*
X152668101Y-91440139D01*
X152711426Y-91374929D01*
X152718993Y-91360205D01*
X152776810Y-91208000D01*
X152780929Y-91191961D01*
X152804097Y-91027114D01*
X152804813Y-91017795D01*
X152804997Y-91004687D01*
X152804540Y-90995342D01*
X152785985Y-90829926D01*
X152782314Y-90813767D01*
X152728771Y-90660012D01*
X152721617Y-90645081D01*
X152672570Y-90566590D01*
X152660857Y-90555668D01*
X152654530Y-90557602D01*
X152226003Y-90986129D01*
X152217995Y-91000000D01*
X151782005Y-91000000D01*
X151773997Y-90986129D01*
X151351949Y-90564081D01*
X151338078Y-90556073D01*
X151332061Y-90559547D01*
X151283410Y-90635037D01*
X151276046Y-90649871D01*
X151220361Y-90802867D01*
X151216467Y-90818961D01*
X151196060Y-90980499D01*
X151195828Y-90997046D01*
X145750500Y-90997046D01*
X145750500Y-90339012D01*
X151555488Y-90339012D01*
X151557333Y-90345201D01*
X151986129Y-90773997D01*
X152000000Y-90782005D01*
X152013871Y-90773997D01*
X152436032Y-90351836D01*
X152444040Y-90337965D01*
X152440650Y-90332093D01*
X152359949Y-90280878D01*
X152345070Y-90273621D01*
X152191686Y-90219004D01*
X152175563Y-90215222D01*
X152013887Y-90195944D01*
X151997340Y-90195828D01*
X151835404Y-90212848D01*
X151819246Y-90216400D01*
X151665106Y-90268874D01*
X151650124Y-90275924D01*
X151566493Y-90327374D01*
X151555488Y-90339012D01*
X145750500Y-90339012D01*
X145750500Y-89411838D01*
X151556157Y-89411838D01*
X151559716Y-89418004D01*
X151630044Y-89464024D01*
X151644827Y-89471492D01*
X151797430Y-89528244D01*
X151813495Y-89532250D01*
X151974885Y-89553784D01*
X151991433Y-89554130D01*
X152153584Y-89539374D01*
X152169806Y-89536044D01*
X152324653Y-89485731D01*
X152339727Y-89478894D01*
X152433791Y-89422819D01*
X152444958Y-89411336D01*
X152443283Y-89405415D01*
X152013871Y-88976003D01*
X152000000Y-88967995D01*
X151986129Y-88976003D01*
X151564165Y-89397967D01*
X151556157Y-89411838D01*
X145750500Y-89411838D01*
X145750500Y-88747046D01*
X151195828Y-88747046D01*
X151211719Y-88909096D01*
X151215159Y-88925281D01*
X151266555Y-89079785D01*
X151273498Y-89094810D01*
X151327291Y-89183634D01*
X151338852Y-89194720D01*
X151344907Y-89192961D01*
X151773997Y-88763871D01*
X151782005Y-88750000D01*
X152217995Y-88750000D01*
X152226003Y-88763871D01*
X152647911Y-89185779D01*
X152661782Y-89193787D01*
X152668101Y-89190139D01*
X152711426Y-89124929D01*
X152718993Y-89110205D01*
X152776810Y-88958000D01*
X152780929Y-88941961D01*
X152804097Y-88777114D01*
X152804813Y-88767795D01*
X152804997Y-88754687D01*
X152804540Y-88745342D01*
X152785985Y-88579926D01*
X152782314Y-88563767D01*
X152728771Y-88410012D01*
X152721617Y-88395081D01*
X152672570Y-88316590D01*
X152660857Y-88305668D01*
X152654530Y-88307602D01*
X152226003Y-88736129D01*
X152217995Y-88750000D01*
X151782005Y-88750000D01*
X151773997Y-88736129D01*
X151351949Y-88314081D01*
X151338078Y-88306073D01*
X151332061Y-88309547D01*
X151283410Y-88385037D01*
X151276046Y-88399871D01*
X151220361Y-88552867D01*
X151216467Y-88568961D01*
X151196060Y-88730499D01*
X151195828Y-88747046D01*
X145750500Y-88747046D01*
X145750500Y-88089012D01*
X151555488Y-88089012D01*
X151557333Y-88095201D01*
X151986129Y-88523997D01*
X152000000Y-88532005D01*
X152013871Y-88523997D01*
X152436032Y-88101836D01*
X152444040Y-88087965D01*
X152440650Y-88082093D01*
X152359949Y-88030878D01*
X152345070Y-88023621D01*
X152191686Y-87969004D01*
X152175563Y-87965222D01*
X152013887Y-87945944D01*
X151997340Y-87945828D01*
X151835404Y-87962848D01*
X151819246Y-87966400D01*
X151665106Y-88018874D01*
X151650124Y-88025924D01*
X151566493Y-88077374D01*
X151555488Y-88089012D01*
X145750500Y-88089012D01*
X145750500Y-87161838D01*
X151556157Y-87161838D01*
X151559716Y-87168004D01*
X151630044Y-87214024D01*
X151644827Y-87221492D01*
X151797430Y-87278244D01*
X151813495Y-87282250D01*
X151974885Y-87303784D01*
X151991433Y-87304130D01*
X152153584Y-87289374D01*
X152169806Y-87286044D01*
X152324653Y-87235731D01*
X152339727Y-87228894D01*
X152433791Y-87172819D01*
X152444958Y-87161336D01*
X152443283Y-87155415D01*
X152013871Y-86726003D01*
X152000000Y-86717995D01*
X151986129Y-86726003D01*
X151564165Y-87147967D01*
X151556157Y-87161838D01*
X145750500Y-87161838D01*
X145750500Y-86497046D01*
X151195828Y-86497046D01*
X151211719Y-86659096D01*
X151215159Y-86675281D01*
X151266555Y-86829785D01*
X151273498Y-86844810D01*
X151327291Y-86933634D01*
X151338852Y-86944720D01*
X151344907Y-86942961D01*
X151773997Y-86513871D01*
X151782005Y-86500000D01*
X152217995Y-86500000D01*
X152226003Y-86513871D01*
X152647911Y-86935779D01*
X152661782Y-86943787D01*
X152668101Y-86940139D01*
X152711426Y-86874929D01*
X152718993Y-86860205D01*
X152776810Y-86708000D01*
X152780929Y-86691961D01*
X152804097Y-86527114D01*
X152804813Y-86517795D01*
X152804997Y-86504687D01*
X152804540Y-86495342D01*
X152785985Y-86329926D01*
X152782314Y-86313767D01*
X152728771Y-86160012D01*
X152721617Y-86145081D01*
X152672570Y-86066590D01*
X152660857Y-86055668D01*
X152654530Y-86057602D01*
X152226003Y-86486129D01*
X152217995Y-86500000D01*
X151782005Y-86500000D01*
X151773997Y-86486129D01*
X151351949Y-86064081D01*
X151338078Y-86056073D01*
X151332061Y-86059547D01*
X151283410Y-86135037D01*
X151276046Y-86149871D01*
X151220361Y-86302867D01*
X151216467Y-86318961D01*
X151196060Y-86480499D01*
X151195828Y-86497046D01*
X145750500Y-86497046D01*
X145750500Y-86304496D01*
X145752565Y-86279775D01*
X145754542Y-86268027D01*
X145754543Y-86268021D01*
X145755496Y-86262354D01*
X145755647Y-86250000D01*
X145753941Y-86238087D01*
X145752640Y-86209167D01*
X145760244Y-86064081D01*
X145766524Y-85944261D01*
X145768153Y-85928755D01*
X145768661Y-85925551D01*
X145782367Y-85839012D01*
X151555488Y-85839012D01*
X151557333Y-85845201D01*
X151986129Y-86273997D01*
X152000000Y-86282005D01*
X152013871Y-86273997D01*
X152436032Y-85851836D01*
X152444040Y-85837965D01*
X152440650Y-85832093D01*
X152359949Y-85780878D01*
X152345070Y-85773621D01*
X152191686Y-85719004D01*
X152175563Y-85715222D01*
X152013887Y-85695944D01*
X151997340Y-85695828D01*
X151835404Y-85712848D01*
X151819246Y-85716400D01*
X151665106Y-85768874D01*
X151650124Y-85775924D01*
X151566493Y-85827374D01*
X151555488Y-85839012D01*
X145782367Y-85839012D01*
X145814825Y-85634079D01*
X145818068Y-85618824D01*
X145895284Y-85330651D01*
X145900103Y-85315818D01*
X146007023Y-85037280D01*
X146013367Y-85023032D01*
X146070023Y-84911838D01*
X151556157Y-84911838D01*
X151559716Y-84918004D01*
X151630044Y-84964024D01*
X151644827Y-84971492D01*
X151797430Y-85028244D01*
X151813495Y-85032250D01*
X151974885Y-85053784D01*
X151991433Y-85054130D01*
X152153584Y-85039374D01*
X152169806Y-85036044D01*
X152324653Y-84985731D01*
X152339727Y-84978894D01*
X152433791Y-84922819D01*
X152444958Y-84911336D01*
X152443283Y-84905415D01*
X152013871Y-84476003D01*
X152000000Y-84467995D01*
X151986129Y-84476003D01*
X151564165Y-84897967D01*
X151556157Y-84911838D01*
X146070023Y-84911838D01*
X146129759Y-84794601D01*
X146148815Y-84757202D01*
X146156611Y-84743699D01*
X146188419Y-84694720D01*
X146319100Y-84493489D01*
X146328266Y-84480872D01*
X146341185Y-84464919D01*
X146516024Y-84249009D01*
X146517792Y-84247046D01*
X151195828Y-84247046D01*
X151211719Y-84409096D01*
X151215159Y-84425281D01*
X151266555Y-84579785D01*
X151273498Y-84594810D01*
X151327291Y-84683634D01*
X151338852Y-84694720D01*
X151344907Y-84692961D01*
X151773997Y-84263871D01*
X151782005Y-84250000D01*
X152217995Y-84250000D01*
X152226003Y-84263871D01*
X152647911Y-84685779D01*
X152661782Y-84693787D01*
X152668101Y-84690139D01*
X152711426Y-84624929D01*
X152718993Y-84610205D01*
X152776810Y-84458000D01*
X152780929Y-84441961D01*
X152804097Y-84277114D01*
X152804813Y-84267795D01*
X152804997Y-84254687D01*
X152804540Y-84245342D01*
X152785985Y-84079926D01*
X152782314Y-84063767D01*
X152728771Y-83910012D01*
X152721617Y-83895081D01*
X152672570Y-83816590D01*
X152660857Y-83805668D01*
X152654530Y-83807602D01*
X152226003Y-84236129D01*
X152217995Y-84250000D01*
X151782005Y-84250000D01*
X151773997Y-84236129D01*
X151351949Y-83814081D01*
X151338078Y-83806073D01*
X151332061Y-83809547D01*
X151283410Y-83885037D01*
X151276046Y-83899871D01*
X151220361Y-84052867D01*
X151216467Y-84068961D01*
X151196060Y-84230499D01*
X151195828Y-84247046D01*
X146517792Y-84247046D01*
X146526460Y-84237420D01*
X146737420Y-84026460D01*
X146749010Y-84016024D01*
X146980874Y-83828265D01*
X146993490Y-83819099D01*
X147041608Y-83787851D01*
X147243703Y-83656609D01*
X147257205Y-83648813D01*
X147523032Y-83513367D01*
X147537280Y-83507023D01*
X147815818Y-83400103D01*
X147830651Y-83395284D01*
X148118824Y-83318068D01*
X148134079Y-83314825D01*
X148199554Y-83304455D01*
X148428763Y-83268152D01*
X148444261Y-83266524D01*
X148705391Y-83252838D01*
X148725867Y-83253884D01*
X148733329Y-83253975D01*
X148743823Y-83255609D01*
X148769327Y-83252274D01*
X148773274Y-83251758D01*
X148792593Y-83250500D01*
X151571265Y-83250500D01*
X151645765Y-83270462D01*
G37*
%TD.AperFunction*%
%TD*%
M02*
