M48
; DRILL file {KiCad (6.0.7)} date Sun May 28 21:31:46 2023
; FORMAT={-:-/ absolute / inch / decimal}
; #@! TF.CreationDate,2023-05-28T21:31:46-04:00
; #@! TF.GenerationSoftware,Kicad,Pcbnew,(6.0.7)
; #@! TF.FileFunction,Plated,1,2,PTH
FMAT,2
INCH
; #@! TA.AperFunction,Plated,PTH,ComponentDrill
T1C0.0197
%
G90
G05
T1
X5.9843Y-3.3169
X5.9843Y-3.4055
X5.9843Y-3.4941
X5.9843Y-3.5827
X5.9843Y-3.6713
X5.9843Y-3.7598
X5.9843Y-3.8484
X5.9843Y-3.937
X5.9843Y-4.0256
X5.9843Y-4.1142
X6.0728Y-3.3169
X6.0728Y-3.4055
X6.0728Y-3.4941
X6.0728Y-3.5827
X6.0728Y-3.6713
X6.0728Y-3.7598
X6.0728Y-3.8484
X6.0728Y-3.937
X6.0728Y-4.0256
X6.0728Y-4.1142
X6.0728Y-4.2028
X6.0728Y-4.2913
X6.0728Y-4.3799
X6.0728Y-4.4685
X6.1614Y-3.3169
X6.1614Y-3.4055
X6.1614Y-3.4941
X6.1614Y-3.5827
X6.1614Y-3.6713
X6.1614Y-3.7598
X6.1614Y-3.8484
X6.1614Y-3.937
X6.1614Y-4.0256
X6.1614Y-4.1142
X6.1614Y-4.2028
X6.1614Y-4.2913
X6.1614Y-4.3799
X6.1614Y-4.4685
X6.25Y-3.3169
X6.25Y-3.4055
X6.25Y-3.4941
X6.25Y-3.5827
X6.25Y-3.6713
X6.25Y-3.7598
X6.25Y-3.8484
X6.25Y-3.937
X6.25Y-4.0256
X6.25Y-4.1142
X6.25Y-4.2028
X6.25Y-4.2913
X6.25Y-4.3799
X6.25Y-4.4685
X6.4606Y-4.2146
X6.4606Y-4.3169
X6.4606Y-4.4193
X6.4606Y-4.5217
X6.4606Y-4.624
X6.4606Y-4.7264
X6.4606Y-4.8287
X6.5315Y-4.1634
X6.5315Y-4.2657
X6.5315Y-4.3681
X6.5315Y-4.4705
X6.5315Y-4.5728
X6.5315Y-4.6752
X6.5315Y-4.7776
T0
M30
