%TF.GenerationSoftware,KiCad,Pcbnew,(6.0.7)*%
%TF.CreationDate,2023-05-28T21:31:41-04:00*%
%TF.ProjectId,kuc,6b75632e-6b69-4636-9164-5f7063625858,A*%
%TF.SameCoordinates,Original*%
%TF.FileFunction,Legend,Top*%
%TF.FilePolarity,Positive*%
%FSLAX46Y46*%
G04 Gerber Fmt 4.6, Leading zero omitted, Abs format (unit mm)*
G04 Created by KiCad (PCBNEW (6.0.7)) date 2023-05-28 21:31:41*
%MOMM*%
%LPD*%
G01*
G04 APERTURE LIST*
%ADD10C,0.150000*%
G04 APERTURE END LIST*
D10*
X154950000Y-111250000D02*
X155800000Y-111250000D01*
X157200000Y-104500000D02*
X158050000Y-104500000D01*
X157200000Y-106750000D02*
X158050000Y-106750000D01*
X152000000Y-84950000D02*
X152000000Y-85800000D01*
X154950000Y-93250000D02*
X155800000Y-93250000D01*
X152000000Y-90300000D02*
X152000000Y-89450000D01*
X153550000Y-104500000D02*
X152700000Y-104500000D01*
X157200000Y-93250000D02*
X158050000Y-93250000D01*
X157200000Y-86500000D02*
X158050000Y-86500000D01*
X154950000Y-84250000D02*
X155800000Y-84250000D01*
X154950000Y-88750000D02*
X155800000Y-88750000D01*
X152000000Y-99300000D02*
X152000000Y-98450000D01*
X152000000Y-92550000D02*
X152000000Y-91700000D01*
X154950000Y-95500000D02*
X155800000Y-95500000D01*
X157200000Y-84250000D02*
X158050000Y-84250000D01*
X157200000Y-102250000D02*
X158050000Y-102250000D01*
X154950000Y-97750000D02*
X155800000Y-97750000D01*
X154950000Y-106750000D02*
X155800000Y-106750000D01*
X157200000Y-95500000D02*
X158050000Y-95500000D01*
X154950000Y-102250000D02*
X155800000Y-102250000D01*
X152000000Y-97050000D02*
X152000000Y-96200000D01*
X152000000Y-94800000D02*
X152000000Y-93950000D01*
X152000000Y-88050000D02*
X152000000Y-87200000D01*
X157200000Y-97750000D02*
X158050000Y-97750000D01*
X154950000Y-113500000D02*
X155800000Y-113500000D01*
X157200000Y-100000000D02*
X158050000Y-100000000D01*
X154950000Y-86500000D02*
X155800000Y-86500000D01*
X157200000Y-91000000D02*
X158050000Y-91000000D01*
X154950000Y-100000000D02*
X155800000Y-100000000D01*
X157200000Y-113500000D02*
X158050000Y-113500000D01*
X157200000Y-109000000D02*
X158050000Y-109000000D01*
X152000000Y-101550000D02*
X152000000Y-100700000D01*
X157200000Y-88750000D02*
X158050000Y-88750000D01*
X154950000Y-91000000D02*
X155800000Y-91000000D01*
X152000000Y-103800000D02*
X152000000Y-102950000D01*
X157200000Y-111250000D02*
X158050000Y-111250000D01*
X154950000Y-104500000D02*
X155800000Y-104500000D01*
X154950000Y-109000000D02*
X155800000Y-109000000D01*
M02*
