%TF.GenerationSoftware,KiCad,Pcbnew,(6.0.7)*%
%TF.CreationDate,2023-05-28T21:31:41-04:00*%
%TF.ProjectId,kuc,6b75632e-6b69-4636-9164-5f7063625858,A*%
%TF.SameCoordinates,Original*%
%TF.FileFunction,Soldermask,Bot*%
%TF.FilePolarity,Negative*%
%FSLAX46Y46*%
G04 Gerber Fmt 4.6, Leading zero omitted, Abs format (unit mm)*
G04 Created by KiCad (PCBNEW (6.0.7)) date 2023-05-28 21:31:41*
%MOMM*%
%LPD*%
G01*
G04 APERTURE LIST*
%ADD10C,1.000000*%
%ADD11C,7.000000*%
%ADD12C,1.850000*%
G04 APERTURE END LIST*
D10*
%TO.C,TP12*%
X158750000Y-102250000D03*
%TD*%
%TO.C,TP20*%
X154250000Y-106750000D03*
%TD*%
%TO.C,TP49*%
X152000000Y-104500000D03*
%TD*%
%TO.C,TP27*%
X158750000Y-109000000D03*
%TD*%
%TO.C,TP45*%
X152000000Y-86500000D03*
%TD*%
%TO.C,TP5*%
X156500000Y-102250000D03*
%TD*%
%TO.C,TP54*%
X152000000Y-91000000D03*
%TD*%
%TO.C,TP50*%
X152000000Y-84250000D03*
%TD*%
%TO.C,TP14*%
X156500000Y-111250000D03*
%TD*%
%TO.C,TP28*%
X158750000Y-113500000D03*
%TD*%
%TO.C,TP9*%
X156500000Y-88750000D03*
%TD*%
%TO.C,TP10*%
X156500000Y-93250000D03*
%TD*%
%TO.C,TP35*%
X156500000Y-113500000D03*
%TD*%
%TO.C,TP22*%
X158750000Y-86500000D03*
%TD*%
%TO.C,TP7*%
X158750000Y-111250000D03*
%TD*%
%TO.C,TP41*%
X154250000Y-109000000D03*
%TD*%
%TO.C,TP15*%
X154250000Y-84250000D03*
%TD*%
%TO.C,TP48*%
X152000000Y-97750000D03*
%TD*%
%TO.C,TP38*%
X158750000Y-95500000D03*
%TD*%
%TO.C,TP4*%
X158750000Y-97750000D03*
%TD*%
%TO.C,TP47*%
X152000000Y-102250000D03*
%TD*%
%TO.C,TP51*%
X152000000Y-93250000D03*
%TD*%
D11*
%TO.C,J2*%
X165000000Y-87500000D03*
D12*
X165900000Y-105750000D03*
X164100000Y-107050000D03*
X165900000Y-108350000D03*
X164100000Y-109650000D03*
X165900000Y-110950000D03*
X164100000Y-112250000D03*
X165900000Y-113550000D03*
X164100000Y-114850000D03*
X165900000Y-116150000D03*
X164100000Y-117450000D03*
X165900000Y-118750000D03*
X164100000Y-120050000D03*
X165900000Y-121350000D03*
X164100000Y-122650000D03*
%TD*%
D10*
%TO.C,TP16*%
X154250000Y-88750000D03*
%TD*%
%TO.C,TP21*%
X154250000Y-111250000D03*
%TD*%
%TO.C,TPe*%
X152000000Y-88750000D03*
%TD*%
%TO.C,TP6*%
X158750000Y-106750000D03*
%TD*%
%TO.C,TP37*%
X154250000Y-91000000D03*
%TD*%
%TO.C,TP32*%
X156500000Y-100000000D03*
%TD*%
%TO.C,TP29*%
X156500000Y-86500000D03*
%TD*%
%TO.C,TP19*%
X154250000Y-102250000D03*
%TD*%
%TO.C,TP1*%
X158750000Y-84250000D03*
%TD*%
%TO.C,TP40*%
X158750000Y-104500000D03*
%TD*%
%TO.C,TP42*%
X154250000Y-113500000D03*
%TD*%
%TO.C,TP3*%
X158750000Y-93250000D03*
%TD*%
%TO.C,TP24*%
X154250000Y-95500000D03*
%TD*%
%TO.C,TP25*%
X154250000Y-100000000D03*
%TD*%
%TO.C,TP18*%
X154250000Y-97750000D03*
%TD*%
%TO.C,TP13*%
X156500000Y-106750000D03*
%TD*%
%TO.C,TP2*%
X158750000Y-88750000D03*
%TD*%
%TO.C,TP39*%
X158750000Y-100000000D03*
%TD*%
%TO.C,TP23*%
X158750000Y-91000000D03*
%TD*%
%TO.C,TP44*%
X152000000Y-95500000D03*
%TD*%
%TO.C,TP17*%
X154250000Y-93250000D03*
%TD*%
%TO.C,TP11*%
X156500000Y-97750000D03*
%TD*%
%TO.C,TP33*%
X154250000Y-104500000D03*
%TD*%
%TO.C,TP36*%
X154250000Y-86500000D03*
%TD*%
%TO.C,TP30*%
X156500000Y-91000000D03*
%TD*%
%TO.C,TP56*%
X152000000Y-100000000D03*
%TD*%
%TO.C,TP8*%
X156500000Y-84250000D03*
%TD*%
%TO.C,TP34*%
X156500000Y-109000000D03*
%TD*%
%TO.C,TP26*%
X156500000Y-104500000D03*
%TD*%
%TO.C,TP31*%
X156500000Y-95500000D03*
%TD*%
M02*
