%TF.GenerationSoftware,KiCad,Pcbnew,(6.0.7)*%
%TF.CreationDate,2023-05-28T21:31:41-04:00*%
%TF.ProjectId,kuc,6b75632e-6b69-4636-9164-5f7063625858,A*%
%TF.SameCoordinates,Original*%
%TF.FileFunction,Copper,L1,Top*%
%TF.FilePolarity,Positive*%
%FSLAX46Y46*%
G04 Gerber Fmt 4.6, Leading zero omitted, Abs format (unit mm)*
G04 Created by KiCad (PCBNEW (6.0.7)) date 2023-05-28 21:31:41*
%MOMM*%
%LPD*%
G01*
G04 APERTURE LIST*
%TA.AperFunction,ComponentPad*%
%ADD10C,1.000000*%
%TD*%
%TA.AperFunction,WasherPad*%
%ADD11C,7.000000*%
%TD*%
%TA.AperFunction,ComponentPad*%
%ADD12C,1.850000*%
%TD*%
%TA.AperFunction,Conductor*%
%ADD13C,0.300000*%
%TD*%
G04 APERTURE END LIST*
D10*
%TO.P,TP12,1,1*%
%TO.N,Net-(J2-Pad9)*%
X158750000Y-102250000D03*
%TD*%
%TO.P,TP20,1,1*%
%TO.N,Net-(J2-Pad11)*%
X154250000Y-106750000D03*
%TD*%
%TO.P,TP49,1,1*%
%TO.N,GND*%
X152000000Y-104500000D03*
%TD*%
%TO.P,TP27,1,1*%
%TO.N,Net-(J2-Pad12)*%
X158750000Y-109000000D03*
%TD*%
%TO.P,TP45,1,1*%
%TO.N,GND*%
X152000000Y-86500000D03*
%TD*%
%TO.P,TP5,1,1*%
%TO.N,Net-(J2-Pad9)*%
X156500000Y-102250000D03*
%TD*%
%TO.P,TP54,1,1*%
%TO.N,GND*%
X152000000Y-91000000D03*
%TD*%
%TO.P,TP50,1,1*%
%TO.N,GND*%
X152000000Y-84250000D03*
%TD*%
%TO.P,TP14,1,1*%
%TO.N,Net-(J2-Pad13)*%
X156500000Y-111250000D03*
%TD*%
%TO.P,TP28,1,1*%
%TO.N,Net-(J2-Pad14)*%
X158750000Y-113500000D03*
%TD*%
%TO.P,TP9,1,1*%
%TO.N,Net-(J2-Pad3)*%
X156500000Y-88750000D03*
%TD*%
%TO.P,TP10,1,1*%
%TO.N,Net-(J2-Pad5)*%
X156500000Y-93250000D03*
%TD*%
%TO.P,TP35,1,1*%
%TO.N,Net-(J2-Pad14)*%
X156500000Y-113500000D03*
%TD*%
%TO.P,TP22,1,1*%
%TO.N,Net-(J2-Pad2)*%
X158750000Y-86500000D03*
%TD*%
%TO.P,TP7,1,1*%
%TO.N,Net-(J2-Pad13)*%
X158750000Y-111250000D03*
%TD*%
%TO.P,TP41,1,1*%
%TO.N,Net-(J2-Pad12)*%
X154250000Y-109000000D03*
%TD*%
%TO.P,TP15,1,1*%
%TO.N,Net-(J2-Pad1)*%
X154250000Y-84250000D03*
%TD*%
%TO.P,TP48,1,1*%
%TO.N,GND*%
X152000000Y-97750000D03*
%TD*%
%TO.P,TP38,1,1*%
%TO.N,Net-(J2-Pad6)*%
X158750000Y-95500000D03*
%TD*%
%TO.P,TP4,1,1*%
%TO.N,Net-(J2-Pad7)*%
X158750000Y-97750000D03*
%TD*%
%TO.P,TP47,1,1*%
%TO.N,GND*%
X152000000Y-102250000D03*
%TD*%
%TO.P,TP51,1,1*%
%TO.N,GND*%
X152000000Y-93250000D03*
%TD*%
D11*
%TO.P,J2,*%
%TO.N,*%
X165000000Y-87500000D03*
D12*
%TO.P,J2,1,SSW*%
%TO.N,Net-(J2-Pad1)*%
X165900000Y-105750000D03*
%TO.P,J2,2,SP+*%
%TO.N,Net-(J2-Pad2)*%
X164100000Y-107050000D03*
%TO.P,J2,3,SP-*%
%TO.N,Net-(J2-Pad3)*%
X165900000Y-108350000D03*
%TO.P,J2,4,MSW*%
%TO.N,Net-(J2-Pad4)*%
X164100000Y-109650000D03*
%TO.P,J2,5,EMC*%
%TO.N,Net-(J2-Pad5)*%
X165900000Y-110950000D03*
%TO.P,J2,6,ME*%
%TO.N,Net-(J2-Pad6)*%
X164100000Y-112250000D03*
%TO.P,J2,7,PTT*%
%TO.N,Net-(J2-Pad7)*%
X165900000Y-113550000D03*
%TO.P,J2,8,PF*%
%TO.N,Net-(J2-Pad8)*%
X164100000Y-114850000D03*
%TO.P,J2,9,OPT*%
%TO.N,Net-(J2-Pad9)*%
X165900000Y-116150000D03*
%TO.P,J2,10,E*%
%TO.N,GND*%
X164100000Y-117450000D03*
%TO.P,J2,11,5V*%
%TO.N,Net-(J2-Pad11)*%
X165900000Y-118750000D03*
%TO.P,J2,12,TXD*%
%TO.N,Net-(J2-Pad12)*%
X164100000Y-120050000D03*
%TO.P,J2,13,RXD*%
%TO.N,Net-(J2-Pad13)*%
X165900000Y-121350000D03*
%TO.P,J2,14,SMIC*%
%TO.N,Net-(J2-Pad14)*%
X164100000Y-122650000D03*
%TD*%
D10*
%TO.P,TP16,1,1*%
%TO.N,Net-(J2-Pad3)*%
X154250000Y-88750000D03*
%TD*%
%TO.P,TP21,1,1*%
%TO.N,Net-(J2-Pad13)*%
X154250000Y-111250000D03*
%TD*%
%TO.P,TPe,1,1*%
%TO.N,GND*%
X152000000Y-88750000D03*
%TD*%
%TO.P,TP6,1,1*%
%TO.N,Net-(J2-Pad11)*%
X158750000Y-106750000D03*
%TD*%
%TO.P,TP37,1,1*%
%TO.N,Net-(J2-Pad4)*%
X154250000Y-91000000D03*
%TD*%
%TO.P,TP32,1,1*%
%TO.N,Net-(J2-Pad8)*%
X156500000Y-100000000D03*
%TD*%
%TO.P,TP29,1,1*%
%TO.N,Net-(J2-Pad2)*%
X156500000Y-86500000D03*
%TD*%
%TO.P,TP19,1,1*%
%TO.N,Net-(J2-Pad9)*%
X154250000Y-102250000D03*
%TD*%
%TO.P,TP1,1,1*%
%TO.N,Net-(J2-Pad1)*%
X158750000Y-84250000D03*
%TD*%
%TO.P,TP40,1,1*%
%TO.N,GND*%
X158750000Y-104500000D03*
%TD*%
%TO.P,TP42,1,1*%
%TO.N,Net-(J2-Pad14)*%
X154250000Y-113500000D03*
%TD*%
%TO.P,TP3,1,1*%
%TO.N,Net-(J2-Pad5)*%
X158750000Y-93250000D03*
%TD*%
%TO.P,TP24,1,1*%
%TO.N,Net-(J2-Pad6)*%
X154250000Y-95500000D03*
%TD*%
%TO.P,TP25,1,1*%
%TO.N,Net-(J2-Pad8)*%
X154250000Y-100000000D03*
%TD*%
%TO.P,TP18,1,1*%
%TO.N,Net-(J2-Pad7)*%
X154250000Y-97750000D03*
%TD*%
%TO.P,TP13,1,1*%
%TO.N,Net-(J2-Pad11)*%
X156500000Y-106750000D03*
%TD*%
%TO.P,TP2,1,1*%
%TO.N,Net-(J2-Pad3)*%
X158750000Y-88750000D03*
%TD*%
%TO.P,TP39,1,1*%
%TO.N,Net-(J2-Pad8)*%
X158750000Y-100000000D03*
%TD*%
%TO.P,TP23,1,1*%
%TO.N,Net-(J2-Pad4)*%
X158750000Y-91000000D03*
%TD*%
%TO.P,TP44,1,1*%
%TO.N,GND*%
X152000000Y-95500000D03*
%TD*%
%TO.P,TP17,1,1*%
%TO.N,Net-(J2-Pad5)*%
X154250000Y-93250000D03*
%TD*%
%TO.P,TP11,1,1*%
%TO.N,Net-(J2-Pad7)*%
X156500000Y-97750000D03*
%TD*%
%TO.P,TP33,1,1*%
%TO.N,GND*%
X154250000Y-104500000D03*
%TD*%
%TO.P,TP36,1,1*%
%TO.N,Net-(J2-Pad2)*%
X154250000Y-86500000D03*
%TD*%
%TO.P,TP30,1,1*%
%TO.N,Net-(J2-Pad4)*%
X156500000Y-91000000D03*
%TD*%
%TO.P,TP56,1,1*%
%TO.N,GND*%
X152000000Y-100000000D03*
%TD*%
%TO.P,TP8,1,1*%
%TO.N,Net-(J2-Pad1)*%
X156500000Y-84250000D03*
%TD*%
%TO.P,TP34,1,1*%
%TO.N,Net-(J2-Pad12)*%
X156500000Y-109000000D03*
%TD*%
%TO.P,TP26,1,1*%
%TO.N,GND*%
X156500000Y-104500000D03*
%TD*%
%TO.P,TP31,1,1*%
%TO.N,Net-(J2-Pad6)*%
X156500000Y-95500000D03*
%TD*%
D13*
%TO.N,Net-(J2-Pad14)*%
X154250000Y-114550000D02*
X154250000Y-113500000D01*
X164100000Y-122650000D02*
X162350000Y-122650000D01*
X162350000Y-122650000D02*
X154250000Y-114550000D01*
%TO.N,Net-(J2-Pad13)*%
X154250000Y-111650000D02*
X154250000Y-111250000D01*
X155300000Y-112700000D02*
X154250000Y-111650000D01*
X155300000Y-114000000D02*
X155300000Y-112700000D01*
X155900000Y-114600000D02*
X155300000Y-114000000D01*
X156700000Y-114600000D02*
X155900000Y-114600000D01*
X163450000Y-121350000D02*
X156700000Y-114600000D01*
X165900000Y-121350000D02*
X163450000Y-121350000D01*
%TO.N,Net-(J2-Pad12)*%
X154250000Y-109250000D02*
X154250000Y-109000000D01*
X155300000Y-110300000D02*
X154250000Y-109250000D01*
X155300000Y-111700000D02*
X155300000Y-110300000D01*
X155900000Y-112300000D02*
X155300000Y-111700000D01*
X157000000Y-112300000D02*
X155900000Y-112300000D01*
X157600000Y-112900000D02*
X157000000Y-112300000D01*
X157600000Y-114200000D02*
X157600000Y-112900000D01*
X158500000Y-115100000D02*
X157600000Y-114200000D01*
X159150000Y-115100000D02*
X158500000Y-115100000D01*
X164100000Y-120050000D02*
X159150000Y-115100000D01*
%TO.N,Net-(J2-Pad11)*%
X163550000Y-118750000D02*
X165900000Y-118750000D01*
X162200000Y-117400000D02*
X163550000Y-118750000D01*
X162200000Y-115607106D02*
X162200000Y-117400000D01*
X160600000Y-114007106D02*
X162200000Y-115607106D01*
X160600000Y-113300000D02*
X160600000Y-114007106D01*
X159700000Y-112400000D02*
X160600000Y-113300000D01*
X157200000Y-110100000D02*
X157600000Y-110500000D01*
X157600000Y-110500000D02*
X157600000Y-111800000D01*
X157600000Y-111800000D02*
X158200000Y-112400000D01*
X155400000Y-107900000D02*
X155400000Y-109500000D01*
X156000000Y-110100000D02*
X157200000Y-110100000D01*
X158200000Y-112400000D02*
X159700000Y-112400000D01*
X154250000Y-106750000D02*
X155400000Y-107900000D01*
X155400000Y-109500000D02*
X156000000Y-110100000D01*
%TO.N,Net-(J2-Pad9)*%
X157600000Y-109600000D02*
X157600000Y-103400000D01*
X158100000Y-110100000D02*
X157600000Y-109600000D01*
X159278682Y-110100000D02*
X158100000Y-110100000D01*
X157600000Y-103400000D02*
X158750000Y-102250000D01*
X161292894Y-112114212D02*
X159278682Y-110100000D01*
X161292894Y-113992894D02*
X161292894Y-112114212D01*
X163450000Y-116150000D02*
X161292894Y-113992894D01*
X165900000Y-116150000D02*
X163450000Y-116150000D01*
%TO.N,Net-(J2-Pad8)*%
X160000000Y-110114212D02*
X160000000Y-109800000D01*
X161792894Y-111907106D02*
X160000000Y-110114212D01*
X161792894Y-113000001D02*
X161792894Y-111907106D01*
X163642893Y-114850000D02*
X161792894Y-113000001D01*
X164100000Y-114850000D02*
X163642893Y-114850000D01*
X160000000Y-109800000D02*
X160000000Y-101250000D01*
%TO.N,Net-(J2-Pad7)*%
X160500000Y-98600000D02*
X159650000Y-97750000D01*
X159650000Y-97750000D02*
X158750000Y-97750000D01*
X162396447Y-112896447D02*
X162396447Y-111803553D01*
X163050000Y-113550000D02*
X162396447Y-112896447D01*
X160500000Y-109907106D02*
X160500000Y-98600000D01*
X165900000Y-113550000D02*
X163050000Y-113550000D01*
X162396447Y-111803553D02*
X160500000Y-109907106D01*
%TO.N,Net-(J2-Pad8)*%
X160000000Y-101250000D02*
X158750000Y-100000000D01*
X164100000Y-114850000D02*
X163550000Y-114850000D01*
%TO.N,Net-(J2-Pad6)*%
X160200000Y-95500000D02*
X158750000Y-95500000D01*
X161000000Y-96300000D02*
X160200000Y-95500000D01*
X163550000Y-112250000D02*
X161000000Y-109700000D01*
X161000000Y-109700000D02*
X161000000Y-96300000D01*
X164100000Y-112250000D02*
X163550000Y-112250000D01*
%TO.N,Net-(J2-Pad5)*%
X161500000Y-109400000D02*
X161500000Y-94000000D01*
X163050000Y-110950000D02*
X161500000Y-109400000D01*
X160750000Y-93250000D02*
X158750000Y-93250000D01*
X165900000Y-110950000D02*
X163050000Y-110950000D01*
X161500000Y-94000000D02*
X160750000Y-93250000D01*
%TO.N,Net-(J2-Pad4)*%
X162000000Y-92307106D02*
X160692894Y-91000000D01*
X162000000Y-107600000D02*
X162000000Y-92307106D01*
X164100000Y-109650000D02*
X164050000Y-109650000D01*
X164050000Y-109650000D02*
X162000000Y-107600000D01*
X160692894Y-91000000D02*
X158750000Y-91000000D01*
%TO.N,Net-(J2-Pad3)*%
X159150000Y-88750000D02*
X158750000Y-88750000D01*
X162500000Y-107345048D02*
X162500000Y-92100000D01*
X163504952Y-108350000D02*
X162500000Y-107345048D01*
X162500000Y-92100000D02*
X159150000Y-88750000D01*
X165900000Y-108350000D02*
X163504952Y-108350000D01*
%TO.N,Net-(J2-Pad2)*%
X160200000Y-86500000D02*
X158750000Y-86500000D01*
X160700000Y-87000000D02*
X160200000Y-86500000D01*
X160700000Y-89500000D02*
X160700000Y-87000000D01*
X162800000Y-91600000D02*
X160700000Y-89500000D01*
X167700000Y-91600000D02*
X162800000Y-91600000D01*
X168200000Y-92100000D02*
X167700000Y-91600000D01*
X168200000Y-104000000D02*
X168200000Y-92100000D01*
X167800000Y-104400000D02*
X168200000Y-104000000D01*
X164800000Y-104400000D02*
X167800000Y-104400000D01*
X164100000Y-105100000D02*
X164800000Y-104400000D01*
X164100000Y-107050000D02*
X164100000Y-105100000D01*
%TO.N,Net-(J2-Pad1)*%
X161500000Y-84250000D02*
X158750000Y-84250000D01*
X162250000Y-83500000D02*
X161500000Y-84250000D01*
X166750000Y-83500000D02*
X162250000Y-83500000D01*
X169250000Y-86000000D02*
X166750000Y-83500000D01*
X169250000Y-105000000D02*
X169250000Y-86000000D01*
X168500000Y-105750000D02*
X169250000Y-105000000D01*
X165900000Y-105750000D02*
X168500000Y-105750000D01*
%TD*%
%TA.AperFunction,Conductor*%
%TO.N,GND*%
G36*
X151645765Y-83270462D02*
G01*
X151700303Y-83325000D01*
X151720265Y-83399500D01*
X151700303Y-83474000D01*
X151649339Y-83526407D01*
X151566493Y-83577374D01*
X151555488Y-83589012D01*
X151557333Y-83595201D01*
X151986129Y-84023997D01*
X152000000Y-84032005D01*
X152013871Y-84023997D01*
X152436032Y-83601836D01*
X152444040Y-83587965D01*
X152440650Y-83582093D01*
X152352916Y-83526415D01*
X152354405Y-83524069D01*
X152306954Y-83482823D01*
X152281841Y-83409898D01*
X152296556Y-83334186D01*
X152347155Y-83275976D01*
X152420080Y-83250863D01*
X152430478Y-83250500D01*
X153473247Y-83250500D01*
X153547747Y-83270462D01*
X153602285Y-83325000D01*
X153622247Y-83399500D01*
X153602285Y-83474000D01*
X153566610Y-83515622D01*
X153552284Y-83527140D01*
X153552279Y-83527145D01*
X153546600Y-83531711D01*
X153420480Y-83682016D01*
X153325956Y-83853954D01*
X153266628Y-84040978D01*
X153265815Y-84048222D01*
X153265815Y-84048224D01*
X153255221Y-84142670D01*
X153244757Y-84235963D01*
X153261175Y-84431483D01*
X153263185Y-84438492D01*
X153263185Y-84438493D01*
X153268779Y-84458000D01*
X153315258Y-84620091D01*
X153404944Y-84794601D01*
X153432613Y-84829511D01*
X153508635Y-84925427D01*
X153526818Y-84948369D01*
X153676238Y-85075535D01*
X153682601Y-85079091D01*
X153841149Y-85167701D01*
X153841155Y-85167704D01*
X153847513Y-85171257D01*
X154031802Y-85231137D01*
X154031805Y-85231138D01*
X154034118Y-85231889D01*
X154033994Y-85232272D01*
X154098654Y-85265793D01*
X154140205Y-85330771D01*
X154143701Y-85407820D01*
X154108203Y-85476294D01*
X154040247Y-85518756D01*
X153873393Y-85567864D01*
X153699512Y-85658767D01*
X153693838Y-85663329D01*
X153553798Y-85775924D01*
X153546600Y-85781711D01*
X153420480Y-85932016D01*
X153325956Y-86103954D01*
X153266628Y-86290978D01*
X153265815Y-86298222D01*
X153265815Y-86298224D01*
X153255221Y-86392670D01*
X153244757Y-86485963D01*
X153261175Y-86681483D01*
X153263185Y-86688492D01*
X153263185Y-86688493D01*
X153268779Y-86708000D01*
X153315258Y-86870091D01*
X153404944Y-87044601D01*
X153526818Y-87198369D01*
X153676238Y-87325535D01*
X153709904Y-87344350D01*
X153841149Y-87417701D01*
X153841155Y-87417704D01*
X153847513Y-87421257D01*
X154031802Y-87481137D01*
X154031805Y-87481138D01*
X154034118Y-87481889D01*
X154033994Y-87482272D01*
X154098654Y-87515793D01*
X154140205Y-87580771D01*
X154143701Y-87657820D01*
X154108203Y-87726294D01*
X154040247Y-87768756D01*
X153873393Y-87817864D01*
X153699512Y-87908767D01*
X153693838Y-87913329D01*
X153553798Y-88025924D01*
X153546600Y-88031711D01*
X153420480Y-88182016D01*
X153325956Y-88353954D01*
X153266628Y-88540978D01*
X153265815Y-88548222D01*
X153265815Y-88548224D01*
X153255221Y-88642670D01*
X153244757Y-88735963D01*
X153261175Y-88931483D01*
X153263185Y-88938492D01*
X153263185Y-88938493D01*
X153268779Y-88958000D01*
X153315258Y-89120091D01*
X153404944Y-89294601D01*
X153526818Y-89448369D01*
X153676238Y-89575535D01*
X153682601Y-89579091D01*
X153841149Y-89667701D01*
X153841155Y-89667704D01*
X153847513Y-89671257D01*
X154031802Y-89731137D01*
X154031805Y-89731138D01*
X154034118Y-89731889D01*
X154033994Y-89732272D01*
X154098654Y-89765793D01*
X154140205Y-89830771D01*
X154143701Y-89907820D01*
X154108203Y-89976294D01*
X154040247Y-90018756D01*
X153873393Y-90067864D01*
X153699512Y-90158767D01*
X153693838Y-90163329D01*
X153553798Y-90275924D01*
X153546600Y-90281711D01*
X153420480Y-90432016D01*
X153325956Y-90603954D01*
X153266628Y-90790978D01*
X153265815Y-90798222D01*
X153265815Y-90798224D01*
X153246089Y-90974087D01*
X153244757Y-90985963D01*
X153261175Y-91181483D01*
X153263185Y-91188492D01*
X153263185Y-91188493D01*
X153265539Y-91196701D01*
X153315258Y-91370091D01*
X153404944Y-91544601D01*
X153526818Y-91698369D01*
X153676238Y-91825535D01*
X153682601Y-91829091D01*
X153841149Y-91917701D01*
X153841155Y-91917704D01*
X153847513Y-91921257D01*
X154031802Y-91981137D01*
X154031805Y-91981138D01*
X154034118Y-91981889D01*
X154033994Y-91982272D01*
X154098654Y-92015793D01*
X154140205Y-92080771D01*
X154143701Y-92157820D01*
X154108203Y-92226294D01*
X154040247Y-92268756D01*
X153873393Y-92317864D01*
X153699512Y-92408767D01*
X153693838Y-92413329D01*
X153553798Y-92525924D01*
X153546600Y-92531711D01*
X153420480Y-92682016D01*
X153325956Y-92853954D01*
X153266628Y-93040978D01*
X153265815Y-93048222D01*
X153265815Y-93048224D01*
X153255221Y-93142670D01*
X153244757Y-93235963D01*
X153261175Y-93431483D01*
X153263185Y-93438492D01*
X153263185Y-93438493D01*
X153268779Y-93458000D01*
X153315258Y-93620091D01*
X153404944Y-93794601D01*
X153526818Y-93948369D01*
X153676238Y-94075535D01*
X153682601Y-94079091D01*
X153841149Y-94167701D01*
X153841155Y-94167704D01*
X153847513Y-94171257D01*
X154031802Y-94231137D01*
X154031805Y-94231138D01*
X154034118Y-94231889D01*
X154033994Y-94232272D01*
X154098654Y-94265793D01*
X154140205Y-94330771D01*
X154143701Y-94407820D01*
X154108203Y-94476294D01*
X154040247Y-94518756D01*
X153873393Y-94567864D01*
X153699512Y-94658767D01*
X153693838Y-94663329D01*
X153553798Y-94775924D01*
X153546600Y-94781711D01*
X153420480Y-94932016D01*
X153325956Y-95103954D01*
X153266628Y-95290978D01*
X153265815Y-95298222D01*
X153265815Y-95298224D01*
X153255221Y-95392670D01*
X153244757Y-95485963D01*
X153261175Y-95681483D01*
X153263185Y-95688492D01*
X153263185Y-95688493D01*
X153268779Y-95708000D01*
X153315258Y-95870091D01*
X153404944Y-96044601D01*
X153526818Y-96198369D01*
X153676238Y-96325535D01*
X153682601Y-96329091D01*
X153841149Y-96417701D01*
X153841155Y-96417704D01*
X153847513Y-96421257D01*
X154031802Y-96481137D01*
X154031805Y-96481138D01*
X154034118Y-96481889D01*
X154033994Y-96482272D01*
X154098654Y-96515793D01*
X154140205Y-96580771D01*
X154143701Y-96657820D01*
X154108203Y-96726294D01*
X154040247Y-96768756D01*
X153873393Y-96817864D01*
X153699512Y-96908767D01*
X153693838Y-96913329D01*
X153553798Y-97025924D01*
X153546600Y-97031711D01*
X153420480Y-97182016D01*
X153325956Y-97353954D01*
X153266628Y-97540978D01*
X153265815Y-97548222D01*
X153265815Y-97548224D01*
X153255221Y-97642670D01*
X153244757Y-97735963D01*
X153261175Y-97931483D01*
X153263185Y-97938492D01*
X153263185Y-97938493D01*
X153268779Y-97958000D01*
X153315258Y-98120091D01*
X153404944Y-98294601D01*
X153526818Y-98448369D01*
X153676238Y-98575535D01*
X153682601Y-98579091D01*
X153841149Y-98667701D01*
X153841155Y-98667704D01*
X153847513Y-98671257D01*
X154031802Y-98731137D01*
X154031805Y-98731138D01*
X154034118Y-98731889D01*
X154033994Y-98732272D01*
X154098654Y-98765793D01*
X154140205Y-98830771D01*
X154143701Y-98907820D01*
X154108203Y-98976294D01*
X154040247Y-99018756D01*
X153873393Y-99067864D01*
X153699512Y-99158767D01*
X153693838Y-99163329D01*
X153553798Y-99275924D01*
X153546600Y-99281711D01*
X153420480Y-99432016D01*
X153325956Y-99603954D01*
X153266628Y-99790978D01*
X153265815Y-99798222D01*
X153265815Y-99798224D01*
X153255221Y-99892670D01*
X153244757Y-99985963D01*
X153261175Y-100181483D01*
X153263185Y-100188492D01*
X153263185Y-100188493D01*
X153268779Y-100208000D01*
X153315258Y-100370091D01*
X153404944Y-100544601D01*
X153526818Y-100698369D01*
X153676238Y-100825535D01*
X153682601Y-100829091D01*
X153841149Y-100917701D01*
X153841155Y-100917704D01*
X153847513Y-100921257D01*
X154031802Y-100981137D01*
X154031805Y-100981138D01*
X154034118Y-100981889D01*
X154033994Y-100982272D01*
X154098654Y-101015793D01*
X154140205Y-101080771D01*
X154143701Y-101157820D01*
X154108203Y-101226294D01*
X154040247Y-101268756D01*
X153873393Y-101317864D01*
X153699512Y-101408767D01*
X153693838Y-101413329D01*
X153553798Y-101525924D01*
X153546600Y-101531711D01*
X153420480Y-101682016D01*
X153325956Y-101853954D01*
X153266628Y-102040978D01*
X153265815Y-102048222D01*
X153265815Y-102048224D01*
X153255221Y-102142670D01*
X153244757Y-102235963D01*
X153261175Y-102431483D01*
X153263185Y-102438492D01*
X153263185Y-102438493D01*
X153268779Y-102458000D01*
X153315258Y-102620091D01*
X153404944Y-102794601D01*
X153526818Y-102948369D01*
X153676238Y-103075535D01*
X153682601Y-103079091D01*
X153841149Y-103167701D01*
X153841155Y-103167704D01*
X153847513Y-103171257D01*
X154034118Y-103231889D01*
X154107397Y-103240627D01*
X154221715Y-103254259D01*
X154221718Y-103254259D01*
X154228946Y-103255121D01*
X154340443Y-103246542D01*
X154417314Y-103240627D01*
X154417316Y-103240627D01*
X154424576Y-103240068D01*
X154613556Y-103187303D01*
X154620062Y-103184016D01*
X154620066Y-103184015D01*
X154782184Y-103102123D01*
X154782185Y-103102123D01*
X154788689Y-103098837D01*
X154943303Y-102978040D01*
X155071509Y-102829511D01*
X155131367Y-102724142D01*
X155164827Y-102665243D01*
X155164828Y-102665241D01*
X155168425Y-102658909D01*
X155230358Y-102472732D01*
X155231055Y-102467213D01*
X155266724Y-102399565D01*
X155331990Y-102358467D01*
X155409062Y-102355507D01*
X155477287Y-102391480D01*
X155519276Y-102459734D01*
X155558009Y-102594810D01*
X155565258Y-102620091D01*
X155654944Y-102794601D01*
X155776818Y-102948369D01*
X155926238Y-103075535D01*
X155932601Y-103079091D01*
X156091149Y-103167701D01*
X156091155Y-103167704D01*
X156097513Y-103171257D01*
X156284118Y-103231889D01*
X156357397Y-103240627D01*
X156471715Y-103254259D01*
X156471718Y-103254259D01*
X156478946Y-103255121D01*
X156590443Y-103246542D01*
X156667314Y-103240627D01*
X156667316Y-103240627D01*
X156674576Y-103240068D01*
X156757281Y-103216976D01*
X156834404Y-103216168D01*
X156901599Y-103254030D01*
X156940861Y-103320417D01*
X156946276Y-103365171D01*
X156946120Y-103370146D01*
X156944653Y-103379405D01*
X156945535Y-103388734D01*
X156948839Y-103423686D01*
X156949500Y-103437709D01*
X156949500Y-103599586D01*
X156929538Y-103674086D01*
X156875000Y-103728624D01*
X156800500Y-103748586D01*
X156750518Y-103739953D01*
X156691686Y-103719004D01*
X156675563Y-103715222D01*
X156513887Y-103695944D01*
X156497340Y-103695828D01*
X156335404Y-103712848D01*
X156319246Y-103716400D01*
X156165106Y-103768874D01*
X156150124Y-103775924D01*
X156066493Y-103827374D01*
X156055488Y-103839012D01*
X156057333Y-103845201D01*
X156606773Y-104394641D01*
X156645337Y-104461436D01*
X156645337Y-104538564D01*
X156606773Y-104605359D01*
X156064165Y-105147967D01*
X156056157Y-105161838D01*
X156059716Y-105168004D01*
X156130044Y-105214024D01*
X156144827Y-105221492D01*
X156297430Y-105278244D01*
X156313495Y-105282250D01*
X156474885Y-105303784D01*
X156491433Y-105304130D01*
X156653584Y-105289374D01*
X156669806Y-105286044D01*
X156754457Y-105258539D01*
X156831479Y-105254502D01*
X156900201Y-105289518D01*
X156942207Y-105354203D01*
X156949500Y-105400246D01*
X156949500Y-105639661D01*
X156929538Y-105714161D01*
X156875000Y-105768699D01*
X156800500Y-105788661D01*
X156756439Y-105781997D01*
X156709118Y-105767349D01*
X156709115Y-105767348D01*
X156702152Y-105765193D01*
X156694910Y-105764432D01*
X156694906Y-105764431D01*
X156514260Y-105745444D01*
X156514259Y-105745444D01*
X156507019Y-105744683D01*
X156311618Y-105762466D01*
X156123393Y-105817864D01*
X155949512Y-105908767D01*
X155796600Y-106031711D01*
X155670480Y-106182016D01*
X155575956Y-106353954D01*
X155516628Y-106540978D01*
X155513922Y-106540120D01*
X155485087Y-106596669D01*
X155420389Y-106638656D01*
X155343365Y-106642670D01*
X155274654Y-106607634D01*
X155231747Y-106540000D01*
X155217156Y-106491669D01*
X155190313Y-106402760D01*
X155181591Y-106373872D01*
X155181590Y-106373870D01*
X155179484Y-106366894D01*
X155119705Y-106254466D01*
X155090792Y-106200088D01*
X155090790Y-106200085D01*
X155087370Y-106193653D01*
X155082767Y-106188010D01*
X155082765Y-106188006D01*
X154967964Y-106047246D01*
X154963361Y-106041602D01*
X154812180Y-105916535D01*
X154639585Y-105823213D01*
X154504706Y-105781461D01*
X154459111Y-105767347D01*
X154459109Y-105767347D01*
X154452152Y-105765193D01*
X154444910Y-105764432D01*
X154444906Y-105764431D01*
X154264260Y-105745444D01*
X154264259Y-105745444D01*
X154257019Y-105744683D01*
X154061618Y-105762466D01*
X153873393Y-105817864D01*
X153699512Y-105908767D01*
X153546600Y-106031711D01*
X153420480Y-106182016D01*
X153325956Y-106353954D01*
X153266628Y-106540978D01*
X153265815Y-106548222D01*
X153265815Y-106548224D01*
X153255221Y-106642670D01*
X153244757Y-106735963D01*
X153261175Y-106931483D01*
X153315258Y-107120091D01*
X153404944Y-107294601D01*
X153526818Y-107448369D01*
X153676238Y-107575535D01*
X153682601Y-107579091D01*
X153841149Y-107667701D01*
X153841155Y-107667704D01*
X153847513Y-107671257D01*
X154031802Y-107731137D01*
X154031805Y-107731138D01*
X154034118Y-107731889D01*
X154033994Y-107732272D01*
X154098654Y-107765793D01*
X154140205Y-107830771D01*
X154143701Y-107907820D01*
X154108203Y-107976294D01*
X154040247Y-108018756D01*
X153873393Y-108067864D01*
X153699512Y-108158767D01*
X153546600Y-108281711D01*
X153420480Y-108432016D01*
X153325956Y-108603954D01*
X153266628Y-108790978D01*
X153265815Y-108798222D01*
X153265815Y-108798224D01*
X153245569Y-108978722D01*
X153244757Y-108985963D01*
X153261175Y-109181483D01*
X153263185Y-109188492D01*
X153263185Y-109188493D01*
X153288582Y-109277061D01*
X153315258Y-109370091D01*
X153404944Y-109544601D01*
X153526818Y-109698369D01*
X153676238Y-109825535D01*
X153682601Y-109829091D01*
X153841149Y-109917701D01*
X153841155Y-109917704D01*
X153847513Y-109921257D01*
X153854450Y-109923511D01*
X154034118Y-109981889D01*
X154033612Y-109983446D01*
X154099660Y-110019606D01*
X154101201Y-110021147D01*
X154139765Y-110087942D01*
X154139765Y-110165070D01*
X154101201Y-110231865D01*
X154037913Y-110269443D01*
X153873393Y-110317864D01*
X153699512Y-110408767D01*
X153693838Y-110413329D01*
X153606655Y-110483426D01*
X153546600Y-110531711D01*
X153420480Y-110682016D01*
X153325956Y-110853954D01*
X153266628Y-111040978D01*
X153244757Y-111235963D01*
X153261175Y-111431483D01*
X153315258Y-111620091D01*
X153404944Y-111794601D01*
X153526818Y-111948369D01*
X153676238Y-112075535D01*
X153682601Y-112079091D01*
X153682608Y-112079096D01*
X153838076Y-112165984D01*
X153870744Y-112190690D01*
X153985309Y-112305255D01*
X154023873Y-112372050D01*
X154023873Y-112449178D01*
X153985309Y-112515973D01*
X153922020Y-112553551D01*
X153880387Y-112565805D01*
X153880382Y-112565807D01*
X153873393Y-112567864D01*
X153699512Y-112658767D01*
X153546600Y-112781711D01*
X153420480Y-112932016D01*
X153325956Y-113103954D01*
X153323753Y-113110899D01*
X153323752Y-113110901D01*
X153269346Y-113282411D01*
X153227792Y-113347388D01*
X153159316Y-113382882D01*
X153082268Y-113379383D01*
X153017291Y-113337829D01*
X152988430Y-113291304D01*
X149830918Y-105161838D01*
X151556157Y-105161838D01*
X151559716Y-105168004D01*
X151630044Y-105214024D01*
X151644827Y-105221492D01*
X151797430Y-105278244D01*
X151813495Y-105282250D01*
X151974885Y-105303784D01*
X151991433Y-105304130D01*
X152153584Y-105289374D01*
X152169806Y-105286044D01*
X152324653Y-105235731D01*
X152339727Y-105228894D01*
X152433791Y-105172819D01*
X152444470Y-105161838D01*
X153806157Y-105161838D01*
X153809716Y-105168004D01*
X153880044Y-105214024D01*
X153894827Y-105221492D01*
X154047430Y-105278244D01*
X154063495Y-105282250D01*
X154224885Y-105303784D01*
X154241433Y-105304130D01*
X154403584Y-105289374D01*
X154419806Y-105286044D01*
X154574653Y-105235731D01*
X154589727Y-105228894D01*
X154683791Y-105172819D01*
X154694958Y-105161336D01*
X154693283Y-105155415D01*
X154263871Y-104726003D01*
X154250000Y-104717995D01*
X154236129Y-104726003D01*
X153814165Y-105147967D01*
X153806157Y-105161838D01*
X152444470Y-105161838D01*
X152444958Y-105161336D01*
X152443283Y-105155415D01*
X152013871Y-104726003D01*
X152000000Y-104717995D01*
X151986129Y-104726003D01*
X151564165Y-105147967D01*
X151556157Y-105161838D01*
X149830918Y-105161838D01*
X149572711Y-104497046D01*
X151195828Y-104497046D01*
X151211719Y-104659096D01*
X151215159Y-104675281D01*
X151266555Y-104829785D01*
X151273498Y-104844810D01*
X151327291Y-104933634D01*
X151338852Y-104944720D01*
X151344907Y-104942961D01*
X151773997Y-104513871D01*
X151782005Y-104500000D01*
X152217995Y-104500000D01*
X152226003Y-104513871D01*
X152647911Y-104935779D01*
X152661782Y-104943787D01*
X152668101Y-104940139D01*
X152711426Y-104874929D01*
X152718993Y-104860205D01*
X152776810Y-104708000D01*
X152780929Y-104691961D01*
X152804097Y-104527114D01*
X152804813Y-104517795D01*
X152804997Y-104504687D01*
X152804623Y-104497046D01*
X153445828Y-104497046D01*
X153461719Y-104659096D01*
X153465159Y-104675281D01*
X153516555Y-104829785D01*
X153523498Y-104844810D01*
X153577291Y-104933634D01*
X153588852Y-104944720D01*
X153594907Y-104942961D01*
X154023997Y-104513871D01*
X154032005Y-104500000D01*
X154467995Y-104500000D01*
X154476003Y-104513871D01*
X154897911Y-104935779D01*
X154911782Y-104943787D01*
X154918101Y-104940139D01*
X154961426Y-104874929D01*
X154968993Y-104860205D01*
X155026810Y-104708000D01*
X155030929Y-104691961D01*
X155054097Y-104527114D01*
X155054813Y-104517795D01*
X155054997Y-104504687D01*
X155054623Y-104497046D01*
X155695828Y-104497046D01*
X155711719Y-104659096D01*
X155715159Y-104675281D01*
X155766555Y-104829785D01*
X155773498Y-104844810D01*
X155827291Y-104933634D01*
X155838852Y-104944720D01*
X155844907Y-104942961D01*
X156273997Y-104513871D01*
X156282005Y-104500000D01*
X156273997Y-104486129D01*
X155851949Y-104064081D01*
X155838078Y-104056073D01*
X155832061Y-104059547D01*
X155783410Y-104135037D01*
X155776046Y-104149871D01*
X155720361Y-104302867D01*
X155716467Y-104318961D01*
X155696060Y-104480499D01*
X155695828Y-104497046D01*
X155054623Y-104497046D01*
X155054540Y-104495342D01*
X155035985Y-104329926D01*
X155032314Y-104313767D01*
X154978771Y-104160012D01*
X154971617Y-104145081D01*
X154922570Y-104066590D01*
X154910857Y-104055668D01*
X154904530Y-104057602D01*
X154476003Y-104486129D01*
X154467995Y-104500000D01*
X154032005Y-104500000D01*
X154023997Y-104486129D01*
X153601949Y-104064081D01*
X153588078Y-104056073D01*
X153582061Y-104059547D01*
X153533410Y-104135037D01*
X153526046Y-104149871D01*
X153470361Y-104302867D01*
X153466467Y-104318961D01*
X153446060Y-104480499D01*
X153445828Y-104497046D01*
X152804623Y-104497046D01*
X152804540Y-104495342D01*
X152785985Y-104329926D01*
X152782314Y-104313767D01*
X152728771Y-104160012D01*
X152721617Y-104145081D01*
X152672570Y-104066590D01*
X152660857Y-104055668D01*
X152654530Y-104057602D01*
X152226003Y-104486129D01*
X152217995Y-104500000D01*
X151782005Y-104500000D01*
X151773997Y-104486129D01*
X151351949Y-104064081D01*
X151338078Y-104056073D01*
X151332061Y-104059547D01*
X151283410Y-104135037D01*
X151276046Y-104149871D01*
X151220361Y-104302867D01*
X151216467Y-104318961D01*
X151196060Y-104480499D01*
X151195828Y-104497046D01*
X149572711Y-104497046D01*
X149317128Y-103839012D01*
X151555488Y-103839012D01*
X151557333Y-103845201D01*
X151986129Y-104273997D01*
X152000000Y-104282005D01*
X152013871Y-104273997D01*
X152436032Y-103851836D01*
X152443436Y-103839012D01*
X153805488Y-103839012D01*
X153807333Y-103845201D01*
X154236129Y-104273997D01*
X154250000Y-104282005D01*
X154263871Y-104273997D01*
X154686032Y-103851836D01*
X154694040Y-103837965D01*
X154690650Y-103832093D01*
X154609949Y-103780878D01*
X154595070Y-103773621D01*
X154441686Y-103719004D01*
X154425563Y-103715222D01*
X154263887Y-103695944D01*
X154247340Y-103695828D01*
X154085404Y-103712848D01*
X154069246Y-103716400D01*
X153915106Y-103768874D01*
X153900124Y-103775924D01*
X153816493Y-103827374D01*
X153805488Y-103839012D01*
X152443436Y-103839012D01*
X152444040Y-103837965D01*
X152440650Y-103832093D01*
X152359949Y-103780878D01*
X152345070Y-103773621D01*
X152191686Y-103719004D01*
X152175563Y-103715222D01*
X152013887Y-103695944D01*
X151997340Y-103695828D01*
X151835404Y-103712848D01*
X151819246Y-103716400D01*
X151665106Y-103768874D01*
X151650124Y-103775924D01*
X151566493Y-103827374D01*
X151555488Y-103839012D01*
X149317128Y-103839012D01*
X148957010Y-102911838D01*
X151556157Y-102911838D01*
X151559716Y-102918004D01*
X151630044Y-102964024D01*
X151644827Y-102971492D01*
X151797430Y-103028244D01*
X151813495Y-103032250D01*
X151974885Y-103053784D01*
X151991433Y-103054130D01*
X152153584Y-103039374D01*
X152169806Y-103036044D01*
X152324653Y-102985731D01*
X152339727Y-102978894D01*
X152433791Y-102922819D01*
X152444958Y-102911336D01*
X152443283Y-102905415D01*
X152013871Y-102476003D01*
X152000000Y-102467995D01*
X151986129Y-102476003D01*
X151564165Y-102897967D01*
X151556157Y-102911838D01*
X148957010Y-102911838D01*
X148698803Y-102247046D01*
X151195828Y-102247046D01*
X151211719Y-102409096D01*
X151215159Y-102425281D01*
X151266555Y-102579785D01*
X151273498Y-102594810D01*
X151327291Y-102683634D01*
X151338852Y-102694720D01*
X151344907Y-102692961D01*
X151773997Y-102263871D01*
X151782005Y-102250000D01*
X152217995Y-102250000D01*
X152226003Y-102263871D01*
X152647911Y-102685779D01*
X152661782Y-102693787D01*
X152668101Y-102690139D01*
X152711426Y-102624929D01*
X152718993Y-102610205D01*
X152776810Y-102458000D01*
X152780929Y-102441961D01*
X152804097Y-102277114D01*
X152804813Y-102267795D01*
X152804997Y-102254687D01*
X152804540Y-102245342D01*
X152785985Y-102079926D01*
X152782314Y-102063767D01*
X152728771Y-101910012D01*
X152721617Y-101895081D01*
X152672570Y-101816590D01*
X152660857Y-101805668D01*
X152654530Y-101807602D01*
X152226003Y-102236129D01*
X152217995Y-102250000D01*
X151782005Y-102250000D01*
X151773997Y-102236129D01*
X151351949Y-101814081D01*
X151338078Y-101806073D01*
X151332061Y-101809547D01*
X151283410Y-101885037D01*
X151276046Y-101899871D01*
X151220361Y-102052867D01*
X151216467Y-102068961D01*
X151196060Y-102230499D01*
X151195828Y-102247046D01*
X148698803Y-102247046D01*
X148443221Y-101589012D01*
X151555488Y-101589012D01*
X151557333Y-101595201D01*
X151986129Y-102023997D01*
X152000000Y-102032005D01*
X152013871Y-102023997D01*
X152436032Y-101601836D01*
X152444040Y-101587965D01*
X152440650Y-101582093D01*
X152359949Y-101530878D01*
X152345070Y-101523621D01*
X152191686Y-101469004D01*
X152175563Y-101465222D01*
X152013887Y-101445944D01*
X151997340Y-101445828D01*
X151835404Y-101462848D01*
X151819246Y-101466400D01*
X151665106Y-101518874D01*
X151650124Y-101525924D01*
X151566493Y-101577374D01*
X151555488Y-101589012D01*
X148443221Y-101589012D01*
X148083103Y-100661838D01*
X151556157Y-100661838D01*
X151559716Y-100668004D01*
X151630044Y-100714024D01*
X151644827Y-100721492D01*
X151797430Y-100778244D01*
X151813495Y-100782250D01*
X151974885Y-100803784D01*
X151991433Y-100804130D01*
X152153584Y-100789374D01*
X152169806Y-100786044D01*
X152324653Y-100735731D01*
X152339727Y-100728894D01*
X152433791Y-100672819D01*
X152444958Y-100661336D01*
X152443283Y-100655415D01*
X152013871Y-100226003D01*
X152000000Y-100217995D01*
X151986129Y-100226003D01*
X151564165Y-100647967D01*
X151556157Y-100661838D01*
X148083103Y-100661838D01*
X147824896Y-99997046D01*
X151195828Y-99997046D01*
X151211719Y-100159096D01*
X151215159Y-100175281D01*
X151266555Y-100329785D01*
X151273498Y-100344810D01*
X151327291Y-100433634D01*
X151338852Y-100444720D01*
X151344907Y-100442961D01*
X151773997Y-100013871D01*
X151782005Y-100000000D01*
X152217995Y-100000000D01*
X152226003Y-100013871D01*
X152647911Y-100435779D01*
X152661782Y-100443787D01*
X152668101Y-100440139D01*
X152711426Y-100374929D01*
X152718993Y-100360205D01*
X152776810Y-100208000D01*
X152780929Y-100191961D01*
X152804097Y-100027114D01*
X152804813Y-100017795D01*
X152804997Y-100004687D01*
X152804540Y-99995342D01*
X152785985Y-99829926D01*
X152782314Y-99813767D01*
X152728771Y-99660012D01*
X152721617Y-99645081D01*
X152672570Y-99566590D01*
X152660857Y-99555668D01*
X152654530Y-99557602D01*
X152226003Y-99986129D01*
X152217995Y-100000000D01*
X151782005Y-100000000D01*
X151773997Y-99986129D01*
X151351949Y-99564081D01*
X151338078Y-99556073D01*
X151332061Y-99559547D01*
X151283410Y-99635037D01*
X151276046Y-99649871D01*
X151220361Y-99802867D01*
X151216467Y-99818961D01*
X151196060Y-99980499D01*
X151195828Y-99997046D01*
X147824896Y-99997046D01*
X147569314Y-99339012D01*
X151555488Y-99339012D01*
X151557333Y-99345201D01*
X151986129Y-99773997D01*
X152000000Y-99782005D01*
X152013871Y-99773997D01*
X152436032Y-99351836D01*
X152444040Y-99337965D01*
X152440650Y-99332093D01*
X152359949Y-99280878D01*
X152345070Y-99273621D01*
X152191686Y-99219004D01*
X152175563Y-99215222D01*
X152013887Y-99195944D01*
X151997340Y-99195828D01*
X151835404Y-99212848D01*
X151819246Y-99216400D01*
X151665106Y-99268874D01*
X151650124Y-99275924D01*
X151566493Y-99327374D01*
X151555488Y-99339012D01*
X147569314Y-99339012D01*
X147209196Y-98411838D01*
X151556157Y-98411838D01*
X151559716Y-98418004D01*
X151630044Y-98464024D01*
X151644827Y-98471492D01*
X151797430Y-98528244D01*
X151813495Y-98532250D01*
X151974885Y-98553784D01*
X151991433Y-98554130D01*
X152153584Y-98539374D01*
X152169806Y-98536044D01*
X152324653Y-98485731D01*
X152339727Y-98478894D01*
X152433791Y-98422819D01*
X152444958Y-98411336D01*
X152443283Y-98405415D01*
X152013871Y-97976003D01*
X152000000Y-97967995D01*
X151986129Y-97976003D01*
X151564165Y-98397967D01*
X151556157Y-98411838D01*
X147209196Y-98411838D01*
X146950989Y-97747046D01*
X151195828Y-97747046D01*
X151211719Y-97909096D01*
X151215159Y-97925281D01*
X151266555Y-98079785D01*
X151273498Y-98094810D01*
X151327291Y-98183634D01*
X151338852Y-98194720D01*
X151344907Y-98192961D01*
X151773997Y-97763871D01*
X151782005Y-97750000D01*
X152217995Y-97750000D01*
X152226003Y-97763871D01*
X152647911Y-98185779D01*
X152661782Y-98193787D01*
X152668101Y-98190139D01*
X152711426Y-98124929D01*
X152718993Y-98110205D01*
X152776810Y-97958000D01*
X152780929Y-97941961D01*
X152804097Y-97777114D01*
X152804813Y-97767795D01*
X152804997Y-97754687D01*
X152804540Y-97745342D01*
X152785985Y-97579926D01*
X152782314Y-97563767D01*
X152728771Y-97410012D01*
X152721617Y-97395081D01*
X152672570Y-97316590D01*
X152660857Y-97305668D01*
X152654530Y-97307602D01*
X152226003Y-97736129D01*
X152217995Y-97750000D01*
X151782005Y-97750000D01*
X151773997Y-97736129D01*
X151351949Y-97314081D01*
X151338078Y-97306073D01*
X151332061Y-97309547D01*
X151283410Y-97385037D01*
X151276046Y-97399871D01*
X151220361Y-97552867D01*
X151216467Y-97568961D01*
X151196060Y-97730499D01*
X151195828Y-97747046D01*
X146950989Y-97747046D01*
X146695407Y-97089012D01*
X151555488Y-97089012D01*
X151557333Y-97095201D01*
X151986129Y-97523997D01*
X152000000Y-97532005D01*
X152013871Y-97523997D01*
X152436032Y-97101836D01*
X152444040Y-97087965D01*
X152440650Y-97082093D01*
X152359949Y-97030878D01*
X152345070Y-97023621D01*
X152191686Y-96969004D01*
X152175563Y-96965222D01*
X152013887Y-96945944D01*
X151997340Y-96945828D01*
X151835404Y-96962848D01*
X151819246Y-96966400D01*
X151665106Y-97018874D01*
X151650124Y-97025924D01*
X151566493Y-97077374D01*
X151555488Y-97089012D01*
X146695407Y-97089012D01*
X146335289Y-96161838D01*
X151556157Y-96161838D01*
X151559716Y-96168004D01*
X151630044Y-96214024D01*
X151644827Y-96221492D01*
X151797430Y-96278244D01*
X151813495Y-96282250D01*
X151974885Y-96303784D01*
X151991433Y-96304130D01*
X152153584Y-96289374D01*
X152169806Y-96286044D01*
X152324653Y-96235731D01*
X152339727Y-96228894D01*
X152433791Y-96172819D01*
X152444958Y-96161336D01*
X152443283Y-96155415D01*
X152013871Y-95726003D01*
X152000000Y-95717995D01*
X151986129Y-95726003D01*
X151564165Y-96147967D01*
X151556157Y-96161838D01*
X146335289Y-96161838D01*
X146077082Y-95497046D01*
X151195828Y-95497046D01*
X151211719Y-95659096D01*
X151215159Y-95675281D01*
X151266555Y-95829785D01*
X151273498Y-95844810D01*
X151327291Y-95933634D01*
X151338852Y-95944720D01*
X151344907Y-95942961D01*
X151773997Y-95513871D01*
X151782005Y-95500000D01*
X152217995Y-95500000D01*
X152226003Y-95513871D01*
X152647911Y-95935779D01*
X152661782Y-95943787D01*
X152668101Y-95940139D01*
X152711426Y-95874929D01*
X152718993Y-95860205D01*
X152776810Y-95708000D01*
X152780929Y-95691961D01*
X152804097Y-95527114D01*
X152804813Y-95517795D01*
X152804997Y-95504687D01*
X152804540Y-95495342D01*
X152785985Y-95329926D01*
X152782314Y-95313767D01*
X152728771Y-95160012D01*
X152721617Y-95145081D01*
X152672570Y-95066590D01*
X152660857Y-95055668D01*
X152654530Y-95057602D01*
X152226003Y-95486129D01*
X152217995Y-95500000D01*
X151782005Y-95500000D01*
X151773997Y-95486129D01*
X151351949Y-95064081D01*
X151338078Y-95056073D01*
X151332061Y-95059547D01*
X151283410Y-95135037D01*
X151276046Y-95149871D01*
X151220361Y-95302867D01*
X151216467Y-95318961D01*
X151196060Y-95480499D01*
X151195828Y-95497046D01*
X146077082Y-95497046D01*
X145821499Y-94839012D01*
X151555488Y-94839012D01*
X151557333Y-94845201D01*
X151986129Y-95273997D01*
X152000000Y-95282005D01*
X152013871Y-95273997D01*
X152436032Y-94851836D01*
X152444040Y-94837965D01*
X152440650Y-94832093D01*
X152359949Y-94780878D01*
X152345070Y-94773621D01*
X152191686Y-94719004D01*
X152175563Y-94715222D01*
X152013887Y-94695944D01*
X151997340Y-94695828D01*
X151835404Y-94712848D01*
X151819246Y-94716400D01*
X151665106Y-94768874D01*
X151650124Y-94775924D01*
X151566493Y-94827374D01*
X151555488Y-94839012D01*
X145821499Y-94839012D01*
X145760609Y-94682241D01*
X145750500Y-94628295D01*
X145750500Y-93911838D01*
X151556157Y-93911838D01*
X151559716Y-93918004D01*
X151630044Y-93964024D01*
X151644827Y-93971492D01*
X151797430Y-94028244D01*
X151813495Y-94032250D01*
X151974885Y-94053784D01*
X151991433Y-94054130D01*
X152153584Y-94039374D01*
X152169806Y-94036044D01*
X152324653Y-93985731D01*
X152339727Y-93978894D01*
X152433791Y-93922819D01*
X152444958Y-93911336D01*
X152443283Y-93905415D01*
X152013871Y-93476003D01*
X152000000Y-93467995D01*
X151986129Y-93476003D01*
X151564165Y-93897967D01*
X151556157Y-93911838D01*
X145750500Y-93911838D01*
X145750500Y-93247046D01*
X151195828Y-93247046D01*
X151211719Y-93409096D01*
X151215159Y-93425281D01*
X151266555Y-93579785D01*
X151273498Y-93594810D01*
X151327291Y-93683634D01*
X151338852Y-93694720D01*
X151344907Y-93692961D01*
X151773997Y-93263871D01*
X151782005Y-93250000D01*
X152217995Y-93250000D01*
X152226003Y-93263871D01*
X152647911Y-93685779D01*
X152661782Y-93693787D01*
X152668101Y-93690139D01*
X152711426Y-93624929D01*
X152718993Y-93610205D01*
X152776810Y-93458000D01*
X152780929Y-93441961D01*
X152804097Y-93277114D01*
X152804813Y-93267795D01*
X152804997Y-93254687D01*
X152804540Y-93245342D01*
X152785985Y-93079926D01*
X152782314Y-93063767D01*
X152728771Y-92910012D01*
X152721617Y-92895081D01*
X152672570Y-92816590D01*
X152660857Y-92805668D01*
X152654530Y-92807602D01*
X152226003Y-93236129D01*
X152217995Y-93250000D01*
X151782005Y-93250000D01*
X151773997Y-93236129D01*
X151351949Y-92814081D01*
X151338078Y-92806073D01*
X151332061Y-92809547D01*
X151283410Y-92885037D01*
X151276046Y-92899871D01*
X151220361Y-93052867D01*
X151216467Y-93068961D01*
X151196060Y-93230499D01*
X151195828Y-93247046D01*
X145750500Y-93247046D01*
X145750500Y-92589012D01*
X151555488Y-92589012D01*
X151557333Y-92595201D01*
X151986129Y-93023997D01*
X152000000Y-93032005D01*
X152013871Y-93023997D01*
X152436032Y-92601836D01*
X152444040Y-92587965D01*
X152440650Y-92582093D01*
X152359949Y-92530878D01*
X152345070Y-92523621D01*
X152191686Y-92469004D01*
X152175563Y-92465222D01*
X152013887Y-92445944D01*
X151997340Y-92445828D01*
X151835404Y-92462848D01*
X151819246Y-92466400D01*
X151665106Y-92518874D01*
X151650124Y-92525924D01*
X151566493Y-92577374D01*
X151555488Y-92589012D01*
X145750500Y-92589012D01*
X145750500Y-91661838D01*
X151556157Y-91661838D01*
X151559716Y-91668004D01*
X151630044Y-91714024D01*
X151644827Y-91721492D01*
X151797430Y-91778244D01*
X151813495Y-91782250D01*
X151974885Y-91803784D01*
X151991433Y-91804130D01*
X152153584Y-91789374D01*
X152169806Y-91786044D01*
X152324653Y-91735731D01*
X152339727Y-91728894D01*
X152433791Y-91672819D01*
X152444958Y-91661336D01*
X152443283Y-91655415D01*
X152013871Y-91226003D01*
X152000000Y-91217995D01*
X151986129Y-91226003D01*
X151564165Y-91647967D01*
X151556157Y-91661838D01*
X145750500Y-91661838D01*
X145750500Y-90997046D01*
X151195828Y-90997046D01*
X151211719Y-91159096D01*
X151215159Y-91175281D01*
X151266555Y-91329785D01*
X151273498Y-91344810D01*
X151327291Y-91433634D01*
X151338852Y-91444720D01*
X151344907Y-91442961D01*
X151773997Y-91013871D01*
X151782005Y-91000000D01*
X152217995Y-91000000D01*
X152226003Y-91013871D01*
X152647911Y-91435779D01*
X152661782Y-91443787D01*
X152668101Y-91440139D01*
X152711426Y-91374929D01*
X152718993Y-91360205D01*
X152776810Y-91208000D01*
X152780929Y-91191961D01*
X152804097Y-91027114D01*
X152804813Y-91017795D01*
X152804997Y-91004687D01*
X152804540Y-90995342D01*
X152785985Y-90829926D01*
X152782314Y-90813767D01*
X152728771Y-90660012D01*
X152721617Y-90645081D01*
X152672570Y-90566590D01*
X152660857Y-90555668D01*
X152654530Y-90557602D01*
X152226003Y-90986129D01*
X152217995Y-91000000D01*
X151782005Y-91000000D01*
X151773997Y-90986129D01*
X151351949Y-90564081D01*
X151338078Y-90556073D01*
X151332061Y-90559547D01*
X151283410Y-90635037D01*
X151276046Y-90649871D01*
X151220361Y-90802867D01*
X151216467Y-90818961D01*
X151196060Y-90980499D01*
X151195828Y-90997046D01*
X145750500Y-90997046D01*
X145750500Y-90339012D01*
X151555488Y-90339012D01*
X151557333Y-90345201D01*
X151986129Y-90773997D01*
X152000000Y-90782005D01*
X152013871Y-90773997D01*
X152436032Y-90351836D01*
X152444040Y-90337965D01*
X152440650Y-90332093D01*
X152359949Y-90280878D01*
X152345070Y-90273621D01*
X152191686Y-90219004D01*
X152175563Y-90215222D01*
X152013887Y-90195944D01*
X151997340Y-90195828D01*
X151835404Y-90212848D01*
X151819246Y-90216400D01*
X151665106Y-90268874D01*
X151650124Y-90275924D01*
X151566493Y-90327374D01*
X151555488Y-90339012D01*
X145750500Y-90339012D01*
X145750500Y-89411838D01*
X151556157Y-89411838D01*
X151559716Y-89418004D01*
X151630044Y-89464024D01*
X151644827Y-89471492D01*
X151797430Y-89528244D01*
X151813495Y-89532250D01*
X151974885Y-89553784D01*
X151991433Y-89554130D01*
X152153584Y-89539374D01*
X152169806Y-89536044D01*
X152324653Y-89485731D01*
X152339727Y-89478894D01*
X152433791Y-89422819D01*
X152444958Y-89411336D01*
X152443283Y-89405415D01*
X152013871Y-88976003D01*
X152000000Y-88967995D01*
X151986129Y-88976003D01*
X151564165Y-89397967D01*
X151556157Y-89411838D01*
X145750500Y-89411838D01*
X145750500Y-88747046D01*
X151195828Y-88747046D01*
X151211719Y-88909096D01*
X151215159Y-88925281D01*
X151266555Y-89079785D01*
X151273498Y-89094810D01*
X151327291Y-89183634D01*
X151338852Y-89194720D01*
X151344907Y-89192961D01*
X151773997Y-88763871D01*
X151782005Y-88750000D01*
X152217995Y-88750000D01*
X152226003Y-88763871D01*
X152647911Y-89185779D01*
X152661782Y-89193787D01*
X152668101Y-89190139D01*
X152711426Y-89124929D01*
X152718993Y-89110205D01*
X152776810Y-88958000D01*
X152780929Y-88941961D01*
X152804097Y-88777114D01*
X152804813Y-88767795D01*
X152804997Y-88754687D01*
X152804540Y-88745342D01*
X152785985Y-88579926D01*
X152782314Y-88563767D01*
X152728771Y-88410012D01*
X152721617Y-88395081D01*
X152672570Y-88316590D01*
X152660857Y-88305668D01*
X152654530Y-88307602D01*
X152226003Y-88736129D01*
X152217995Y-88750000D01*
X151782005Y-88750000D01*
X151773997Y-88736129D01*
X151351949Y-88314081D01*
X151338078Y-88306073D01*
X151332061Y-88309547D01*
X151283410Y-88385037D01*
X151276046Y-88399871D01*
X151220361Y-88552867D01*
X151216467Y-88568961D01*
X151196060Y-88730499D01*
X151195828Y-88747046D01*
X145750500Y-88747046D01*
X145750500Y-88089012D01*
X151555488Y-88089012D01*
X151557333Y-88095201D01*
X151986129Y-88523997D01*
X152000000Y-88532005D01*
X152013871Y-88523997D01*
X152436032Y-88101836D01*
X152444040Y-88087965D01*
X152440650Y-88082093D01*
X152359949Y-88030878D01*
X152345070Y-88023621D01*
X152191686Y-87969004D01*
X152175563Y-87965222D01*
X152013887Y-87945944D01*
X151997340Y-87945828D01*
X151835404Y-87962848D01*
X151819246Y-87966400D01*
X151665106Y-88018874D01*
X151650124Y-88025924D01*
X151566493Y-88077374D01*
X151555488Y-88089012D01*
X145750500Y-88089012D01*
X145750500Y-87161838D01*
X151556157Y-87161838D01*
X151559716Y-87168004D01*
X151630044Y-87214024D01*
X151644827Y-87221492D01*
X151797430Y-87278244D01*
X151813495Y-87282250D01*
X151974885Y-87303784D01*
X151991433Y-87304130D01*
X152153584Y-87289374D01*
X152169806Y-87286044D01*
X152324653Y-87235731D01*
X152339727Y-87228894D01*
X152433791Y-87172819D01*
X152444958Y-87161336D01*
X152443283Y-87155415D01*
X152013871Y-86726003D01*
X152000000Y-86717995D01*
X151986129Y-86726003D01*
X151564165Y-87147967D01*
X151556157Y-87161838D01*
X145750500Y-87161838D01*
X145750500Y-86497046D01*
X151195828Y-86497046D01*
X151211719Y-86659096D01*
X151215159Y-86675281D01*
X151266555Y-86829785D01*
X151273498Y-86844810D01*
X151327291Y-86933634D01*
X151338852Y-86944720D01*
X151344907Y-86942961D01*
X151773997Y-86513871D01*
X151782005Y-86500000D01*
X152217995Y-86500000D01*
X152226003Y-86513871D01*
X152647911Y-86935779D01*
X152661782Y-86943787D01*
X152668101Y-86940139D01*
X152711426Y-86874929D01*
X152718993Y-86860205D01*
X152776810Y-86708000D01*
X152780929Y-86691961D01*
X152804097Y-86527114D01*
X152804813Y-86517795D01*
X152804997Y-86504687D01*
X152804540Y-86495342D01*
X152785985Y-86329926D01*
X152782314Y-86313767D01*
X152728771Y-86160012D01*
X152721617Y-86145081D01*
X152672570Y-86066590D01*
X152660857Y-86055668D01*
X152654530Y-86057602D01*
X152226003Y-86486129D01*
X152217995Y-86500000D01*
X151782005Y-86500000D01*
X151773997Y-86486129D01*
X151351949Y-86064081D01*
X151338078Y-86056073D01*
X151332061Y-86059547D01*
X151283410Y-86135037D01*
X151276046Y-86149871D01*
X151220361Y-86302867D01*
X151216467Y-86318961D01*
X151196060Y-86480499D01*
X151195828Y-86497046D01*
X145750500Y-86497046D01*
X145750500Y-86304496D01*
X145752565Y-86279775D01*
X145754542Y-86268027D01*
X145754543Y-86268021D01*
X145755496Y-86262354D01*
X145755647Y-86250000D01*
X145753941Y-86238087D01*
X145752640Y-86209167D01*
X145759078Y-86086320D01*
X145766524Y-85944261D01*
X145768153Y-85928755D01*
X145768661Y-85925551D01*
X145782367Y-85839012D01*
X151555488Y-85839012D01*
X151557333Y-85845201D01*
X151986129Y-86273997D01*
X152000000Y-86282005D01*
X152013871Y-86273997D01*
X152436032Y-85851836D01*
X152444040Y-85837965D01*
X152440650Y-85832093D01*
X152359949Y-85780878D01*
X152345070Y-85773621D01*
X152191686Y-85719004D01*
X152175563Y-85715222D01*
X152013887Y-85695944D01*
X151997340Y-85695828D01*
X151835404Y-85712848D01*
X151819246Y-85716400D01*
X151665106Y-85768874D01*
X151650124Y-85775924D01*
X151566493Y-85827374D01*
X151555488Y-85839012D01*
X145782367Y-85839012D01*
X145814825Y-85634079D01*
X145818068Y-85618824D01*
X145895284Y-85330651D01*
X145900103Y-85315818D01*
X146007023Y-85037280D01*
X146013367Y-85023032D01*
X146070023Y-84911838D01*
X151556157Y-84911838D01*
X151559716Y-84918004D01*
X151630044Y-84964024D01*
X151644827Y-84971492D01*
X151797430Y-85028244D01*
X151813495Y-85032250D01*
X151974885Y-85053784D01*
X151991433Y-85054130D01*
X152153584Y-85039374D01*
X152169806Y-85036044D01*
X152324653Y-84985731D01*
X152339727Y-84978894D01*
X152433791Y-84922819D01*
X152444958Y-84911336D01*
X152443283Y-84905415D01*
X152013871Y-84476003D01*
X152000000Y-84467995D01*
X151986129Y-84476003D01*
X151564165Y-84897967D01*
X151556157Y-84911838D01*
X146070023Y-84911838D01*
X146083662Y-84885071D01*
X146148815Y-84757202D01*
X146156611Y-84743699D01*
X146188419Y-84694720D01*
X146319100Y-84493489D01*
X146328266Y-84480872D01*
X146341185Y-84464919D01*
X146516024Y-84249009D01*
X146517792Y-84247046D01*
X151195828Y-84247046D01*
X151211719Y-84409096D01*
X151215159Y-84425281D01*
X151266555Y-84579785D01*
X151273498Y-84594810D01*
X151327291Y-84683634D01*
X151338852Y-84694720D01*
X151344907Y-84692961D01*
X151773997Y-84263871D01*
X151782005Y-84250000D01*
X152217995Y-84250000D01*
X152226003Y-84263871D01*
X152647911Y-84685779D01*
X152661782Y-84693787D01*
X152668101Y-84690139D01*
X152711426Y-84624929D01*
X152718993Y-84610205D01*
X152776810Y-84458000D01*
X152780929Y-84441961D01*
X152804097Y-84277114D01*
X152804813Y-84267795D01*
X152804997Y-84254687D01*
X152804540Y-84245342D01*
X152785985Y-84079926D01*
X152782314Y-84063767D01*
X152728771Y-83910012D01*
X152721617Y-83895081D01*
X152672570Y-83816590D01*
X152660857Y-83805668D01*
X152654530Y-83807602D01*
X152226003Y-84236129D01*
X152217995Y-84250000D01*
X151782005Y-84250000D01*
X151773997Y-84236129D01*
X151351949Y-83814081D01*
X151338078Y-83806073D01*
X151332061Y-83809547D01*
X151283410Y-83885037D01*
X151276046Y-83899871D01*
X151220361Y-84052867D01*
X151216467Y-84068961D01*
X151196060Y-84230499D01*
X151195828Y-84247046D01*
X146517792Y-84247046D01*
X146526460Y-84237420D01*
X146737420Y-84026460D01*
X146749010Y-84016024D01*
X146924553Y-83873872D01*
X146980874Y-83828265D01*
X146993490Y-83819099D01*
X147043306Y-83786748D01*
X147243703Y-83656609D01*
X147257205Y-83648813D01*
X147393165Y-83579538D01*
X147497424Y-83526415D01*
X147523032Y-83513367D01*
X147537280Y-83507023D01*
X147815818Y-83400103D01*
X147830651Y-83395284D01*
X148118824Y-83318068D01*
X148134079Y-83314825D01*
X148199554Y-83304455D01*
X148428763Y-83268152D01*
X148444261Y-83266524D01*
X148705391Y-83252838D01*
X148725867Y-83253884D01*
X148733329Y-83253975D01*
X148743823Y-83255609D01*
X148765014Y-83252838D01*
X148773274Y-83251758D01*
X148792593Y-83250500D01*
X151571265Y-83250500D01*
X151645765Y-83270462D01*
G37*
%TD.AperFunction*%
%TD*%
M02*
