%TF.GenerationSoftware,KiCad,Pcbnew,(6.0.7)*%
%TF.CreationDate,2023-05-28T21:31:41-04:00*%
%TF.ProjectId,kuc,6b75632e-6b69-4636-9164-5f7063625858,A*%
%TF.SameCoordinates,Original*%
%TF.FileFunction,Legend,Bot*%
%TF.FilePolarity,Positive*%
%FSLAX46Y46*%
G04 Gerber Fmt 4.6, Leading zero omitted, Abs format (unit mm)*
G04 Created by KiCad (PCBNEW (6.0.7)) date 2023-05-28 21:31:41*
%MOMM*%
%LPD*%
G01*
G04 APERTURE LIST*
%ADD10C,0.150000*%
%ADD11C,0.120000*%
%ADD12C,0.010000*%
G04 APERTURE END LIST*
D10*
X152000000Y-98400000D02*
X152000000Y-99250000D01*
X152000000Y-85750000D02*
X152000000Y-84900000D01*
X154900000Y-104500000D02*
X155750000Y-104500000D01*
X157200000Y-104500000D02*
X158050000Y-104500000D01*
X157200000Y-91000000D02*
X158050000Y-91000000D01*
X152000000Y-96150000D02*
X152000000Y-97000000D01*
X154900000Y-100000000D02*
X155750000Y-100000000D01*
X152000000Y-87150000D02*
X152000000Y-88000000D01*
X154900000Y-109000000D02*
X155750000Y-109000000D01*
X157200000Y-111250000D02*
X158050000Y-111250000D01*
X154900000Y-93250000D02*
X155750000Y-93250000D01*
X154900000Y-95500000D02*
X155750000Y-95500000D01*
X152000000Y-93900000D02*
X152000000Y-94750000D01*
X152000000Y-102900000D02*
X152000000Y-103750000D01*
X154900000Y-106750000D02*
X155750000Y-106750000D01*
X154900000Y-97750000D02*
X155750000Y-97750000D01*
X157200000Y-86500000D02*
X158050000Y-86500000D01*
X154900000Y-88750000D02*
X155750000Y-88750000D01*
X157200000Y-109000000D02*
X158050000Y-109000000D01*
X157200000Y-97750000D02*
X158050000Y-97750000D01*
X154900000Y-113500000D02*
X155750000Y-113500000D01*
X157200000Y-102250000D02*
X158050000Y-102250000D01*
X153600000Y-104500000D02*
X152750000Y-104500000D01*
X152000000Y-91650000D02*
X152000000Y-92500000D01*
X157200000Y-93250000D02*
X158050000Y-93250000D01*
X157200000Y-84250000D02*
X158050000Y-84250000D01*
X154900000Y-111250000D02*
X155750000Y-111250000D01*
X154900000Y-91000000D02*
X155750000Y-91000000D01*
X157200000Y-106750000D02*
X158050000Y-106750000D01*
X157200000Y-88750000D02*
X158050000Y-88750000D01*
X157200000Y-100000000D02*
X158050000Y-100000000D01*
X152000000Y-89400000D02*
X152000000Y-90250000D01*
X152000000Y-100650000D02*
X152000000Y-101500000D01*
X157200000Y-113500000D02*
X158050000Y-113500000D01*
X154900000Y-86500000D02*
X155750000Y-86500000D01*
X154900000Y-84250000D02*
X155750000Y-84250000D01*
X157200000Y-95500000D02*
X158050000Y-95500000D01*
X154900000Y-102250000D02*
X155750000Y-102250000D01*
X161740594Y-111702380D02*
X162073927Y-111226190D01*
X162312022Y-111702380D02*
X162312022Y-110702380D01*
X161931070Y-110702380D01*
X161835832Y-110750000D01*
X161788213Y-110797619D01*
X161740594Y-110892857D01*
X161740594Y-111035714D01*
X161788213Y-111130952D01*
X161835832Y-111178571D01*
X161931070Y-111226190D01*
X162312022Y-111226190D01*
X161407260Y-110702380D02*
X160740594Y-111702380D01*
X160740594Y-110702380D02*
X161407260Y-111702380D01*
X160359641Y-111702380D02*
X160359641Y-110702380D01*
X160121546Y-110702380D01*
X159978689Y-110750000D01*
X159883451Y-110845238D01*
X159835832Y-110940476D01*
X159788213Y-111130952D01*
X159788213Y-111273809D01*
X159835832Y-111464285D01*
X159883451Y-111559523D01*
X159978689Y-111654761D01*
X160121546Y-111702380D01*
X160359641Y-111702380D01*
X150847500Y-91452380D02*
X150847500Y-90452380D01*
X150514166Y-91166666D01*
X150180833Y-90452380D01*
X150180833Y-91452380D01*
X149752261Y-91404761D02*
X149609404Y-91452380D01*
X149371309Y-91452380D01*
X149276071Y-91404761D01*
X149228452Y-91357142D01*
X149180833Y-91261904D01*
X149180833Y-91166666D01*
X149228452Y-91071428D01*
X149276071Y-91023809D01*
X149371309Y-90976190D01*
X149561785Y-90928571D01*
X149657023Y-90880952D01*
X149704642Y-90833333D01*
X149752261Y-90738095D01*
X149752261Y-90642857D01*
X149704642Y-90547619D01*
X149657023Y-90500000D01*
X149561785Y-90452380D01*
X149323690Y-90452380D01*
X149180833Y-90500000D01*
X148847500Y-90452380D02*
X148609404Y-91452380D01*
X148418928Y-90738095D01*
X148228452Y-91452380D01*
X147990357Y-90452380D01*
X162228452Y-101702380D02*
X162037976Y-101702380D01*
X161942738Y-101750000D01*
X161847500Y-101845238D01*
X161799880Y-102035714D01*
X161799880Y-102369047D01*
X161847500Y-102559523D01*
X161942738Y-102654761D01*
X162037976Y-102702380D01*
X162228452Y-102702380D01*
X162323690Y-102654761D01*
X162418928Y-102559523D01*
X162466547Y-102369047D01*
X162466547Y-102035714D01*
X162418928Y-101845238D01*
X162323690Y-101750000D01*
X162228452Y-101702380D01*
X161371309Y-102702380D02*
X161371309Y-101702380D01*
X160990357Y-101702380D01*
X160895119Y-101750000D01*
X160847500Y-101797619D01*
X160799880Y-101892857D01*
X160799880Y-102035714D01*
X160847500Y-102130952D01*
X160895119Y-102178571D01*
X160990357Y-102226190D01*
X161371309Y-102226190D01*
X160514166Y-101702380D02*
X159942738Y-101702380D01*
X160228452Y-102702380D02*
X160228452Y-101702380D01*
X162359641Y-113904761D02*
X162216784Y-113952380D01*
X161978689Y-113952380D01*
X161883451Y-113904761D01*
X161835832Y-113857142D01*
X161788213Y-113761904D01*
X161788213Y-113666666D01*
X161835832Y-113571428D01*
X161883451Y-113523809D01*
X161978689Y-113476190D01*
X162169165Y-113428571D01*
X162264403Y-113380952D01*
X162312022Y-113333333D01*
X162359641Y-113238095D01*
X162359641Y-113142857D01*
X162312022Y-113047619D01*
X162264403Y-113000000D01*
X162169165Y-112952380D01*
X161931070Y-112952380D01*
X161788213Y-113000000D01*
X161359641Y-113952380D02*
X161359641Y-112952380D01*
X161026308Y-113666666D01*
X160692975Y-112952380D01*
X160692975Y-113952380D01*
X160216784Y-113952380D02*
X160216784Y-112952380D01*
X150847500Y-89154761D02*
X150704642Y-89202380D01*
X150466547Y-89202380D01*
X150371309Y-89154761D01*
X150323690Y-89107142D01*
X150276071Y-89011904D01*
X150276071Y-88916666D01*
X150323690Y-88821428D01*
X150371309Y-88773809D01*
X150466547Y-88726190D01*
X150657023Y-88678571D01*
X150752261Y-88630952D01*
X150799880Y-88583333D01*
X150847500Y-88488095D01*
X150847500Y-88392857D01*
X150799880Y-88297619D01*
X150752261Y-88250000D01*
X150657023Y-88202380D01*
X150418928Y-88202380D01*
X150276071Y-88250000D01*
X149847500Y-89202380D02*
X149847500Y-88202380D01*
X149466547Y-88202380D01*
X149371309Y-88250000D01*
X149323690Y-88297619D01*
X149276071Y-88392857D01*
X149276071Y-88535714D01*
X149323690Y-88630952D01*
X149371309Y-88678571D01*
X149466547Y-88726190D01*
X149847500Y-88726190D01*
X148847500Y-88821428D02*
X148085595Y-88821428D01*
X150633214Y-98202380D02*
X150633214Y-97202380D01*
X150252261Y-97202380D01*
X150157023Y-97250000D01*
X150109404Y-97297619D01*
X150061785Y-97392857D01*
X150061785Y-97535714D01*
X150109404Y-97630952D01*
X150157023Y-97678571D01*
X150252261Y-97726190D01*
X150633214Y-97726190D01*
X149776071Y-97202380D02*
X149204642Y-97202380D01*
X149490357Y-98202380D02*
X149490357Y-97202380D01*
X149014166Y-97202380D02*
X148442738Y-97202380D01*
X148728452Y-98202380D02*
X148728452Y-97202380D01*
X162454879Y-108452380D02*
X161883451Y-108452380D01*
X162169165Y-109452380D02*
X162169165Y-108452380D01*
X161645356Y-108452380D02*
X160978689Y-109452380D01*
X160978689Y-108452380D02*
X161645356Y-109452380D01*
X160597737Y-109452380D02*
X160597737Y-108452380D01*
X160359641Y-108452380D01*
X160216784Y-108500000D01*
X160121546Y-108595238D01*
X160073927Y-108690476D01*
X160026308Y-108880952D01*
X160026308Y-109023809D01*
X160073927Y-109214285D01*
X160121546Y-109309523D01*
X160216784Y-109404761D01*
X160359641Y-109452380D01*
X160597737Y-109452380D01*
X160938214Y-106202380D02*
X161414404Y-106202380D01*
X161462023Y-106678571D01*
X161414404Y-106630952D01*
X161319166Y-106583333D01*
X161081071Y-106583333D01*
X160985833Y-106630952D01*
X160938214Y-106678571D01*
X160890595Y-106773809D01*
X160890595Y-107011904D01*
X160938214Y-107107142D01*
X160985833Y-107154761D01*
X161081071Y-107202380D01*
X161319166Y-107202380D01*
X161414404Y-107154761D01*
X161462023Y-107107142D01*
X160604880Y-106202380D02*
X160271547Y-107202380D01*
X159938214Y-106202380D01*
X150847500Y-86904761D02*
X150704642Y-86952380D01*
X150466547Y-86952380D01*
X150371309Y-86904761D01*
X150323690Y-86857142D01*
X150276071Y-86761904D01*
X150276071Y-86666666D01*
X150323690Y-86571428D01*
X150371309Y-86523809D01*
X150466547Y-86476190D01*
X150657023Y-86428571D01*
X150752261Y-86380952D01*
X150799880Y-86333333D01*
X150847500Y-86238095D01*
X150847500Y-86142857D01*
X150799880Y-86047619D01*
X150752261Y-86000000D01*
X150657023Y-85952380D01*
X150418928Y-85952380D01*
X150276071Y-86000000D01*
X149847500Y-86952380D02*
X149847500Y-85952380D01*
X149466547Y-85952380D01*
X149371309Y-86000000D01*
X149323690Y-86047619D01*
X149276071Y-86142857D01*
X149276071Y-86285714D01*
X149323690Y-86380952D01*
X149371309Y-86428571D01*
X149466547Y-86476190D01*
X149847500Y-86476190D01*
X148847500Y-86571428D02*
X148085595Y-86571428D01*
X148466547Y-86952380D02*
X148466547Y-86190476D01*
X165190476Y-128952380D02*
X165190476Y-128285714D01*
X165190476Y-128476190D02*
X165142857Y-128380952D01*
X165095238Y-128333333D01*
X165000000Y-128285714D01*
X164904761Y-128285714D01*
X164190476Y-128904761D02*
X164285714Y-128952380D01*
X164476190Y-128952380D01*
X164571428Y-128904761D01*
X164619047Y-128809523D01*
X164619047Y-128428571D01*
X164571428Y-128333333D01*
X164476190Y-128285714D01*
X164285714Y-128285714D01*
X164190476Y-128333333D01*
X164142857Y-128428571D01*
X164142857Y-128523809D01*
X164619047Y-128619047D01*
X163809523Y-128285714D02*
X163571428Y-128952380D01*
X163333333Y-128285714D01*
X162238095Y-128666666D02*
X161761904Y-128666666D01*
X162333333Y-128952380D02*
X162000000Y-127952380D01*
X161666666Y-128952380D01*
X150716547Y-100452380D02*
X150716547Y-99452380D01*
X150335595Y-99452380D01*
X150240357Y-99500000D01*
X150192738Y-99547619D01*
X150145119Y-99642857D01*
X150145119Y-99785714D01*
X150192738Y-99880952D01*
X150240357Y-99928571D01*
X150335595Y-99976190D01*
X150716547Y-99976190D01*
X149383214Y-99928571D02*
X149716547Y-99928571D01*
X149716547Y-100452380D02*
X149716547Y-99452380D01*
X149240357Y-99452380D01*
X161890595Y-104000000D02*
X161985833Y-103952380D01*
X162128690Y-103952380D01*
X162271547Y-104000000D01*
X162366785Y-104095238D01*
X162414404Y-104190476D01*
X162462023Y-104380952D01*
X162462023Y-104523809D01*
X162414404Y-104714285D01*
X162366785Y-104809523D01*
X162271547Y-104904761D01*
X162128690Y-104952380D01*
X162033452Y-104952380D01*
X161890595Y-104904761D01*
X161842976Y-104857142D01*
X161842976Y-104523809D01*
X162033452Y-104523809D01*
X161414404Y-104952380D02*
X161414404Y-103952380D01*
X160842976Y-104952380D01*
X160842976Y-103952380D01*
X160366785Y-104952380D02*
X160366785Y-103952380D01*
X160128690Y-103952380D01*
X159985833Y-104000000D01*
X159890595Y-104095238D01*
X159842976Y-104190476D01*
X159795357Y-104380952D01*
X159795357Y-104523809D01*
X159842976Y-104714285D01*
X159890595Y-104809523D01*
X159985833Y-104904761D01*
X160128690Y-104952380D01*
X160366785Y-104952380D01*
X150704642Y-84654761D02*
X150561785Y-84702380D01*
X150323690Y-84702380D01*
X150228452Y-84654761D01*
X150180833Y-84607142D01*
X150133214Y-84511904D01*
X150133214Y-84416666D01*
X150180833Y-84321428D01*
X150228452Y-84273809D01*
X150323690Y-84226190D01*
X150514166Y-84178571D01*
X150609404Y-84130952D01*
X150657023Y-84083333D01*
X150704642Y-83988095D01*
X150704642Y-83892857D01*
X150657023Y-83797619D01*
X150609404Y-83750000D01*
X150514166Y-83702380D01*
X150276071Y-83702380D01*
X150133214Y-83750000D01*
X149752261Y-84654761D02*
X149609404Y-84702380D01*
X149371309Y-84702380D01*
X149276071Y-84654761D01*
X149228452Y-84607142D01*
X149180833Y-84511904D01*
X149180833Y-84416666D01*
X149228452Y-84321428D01*
X149276071Y-84273809D01*
X149371309Y-84226190D01*
X149561785Y-84178571D01*
X149657023Y-84130952D01*
X149704642Y-84083333D01*
X149752261Y-83988095D01*
X149752261Y-83892857D01*
X149704642Y-83797619D01*
X149657023Y-83750000D01*
X149561785Y-83702380D01*
X149323690Y-83702380D01*
X149180833Y-83750000D01*
X148847500Y-83702380D02*
X148609404Y-84702380D01*
X148418928Y-83988095D01*
X148228452Y-84702380D01*
X147990357Y-83702380D01*
X150657023Y-95952380D02*
X150657023Y-94952380D01*
X150323690Y-95666666D01*
X149990357Y-94952380D01*
X149990357Y-95952380D01*
X149514166Y-95428571D02*
X149180833Y-95428571D01*
X149037976Y-95952380D02*
X149514166Y-95952380D01*
X149514166Y-94952380D01*
X149037976Y-94952380D01*
X150657023Y-93178571D02*
X150323690Y-93178571D01*
X150180833Y-93702380D02*
X150657023Y-93702380D01*
X150657023Y-92702380D01*
X150180833Y-92702380D01*
X149752261Y-93702380D02*
X149752261Y-92702380D01*
X149418928Y-93416666D01*
X149085595Y-92702380D01*
X149085595Y-93702380D01*
X148037976Y-93607142D02*
X148085595Y-93654761D01*
X148228452Y-93702380D01*
X148323690Y-93702380D01*
X148466547Y-93654761D01*
X148561785Y-93559523D01*
X148609404Y-93464285D01*
X148657023Y-93273809D01*
X148657023Y-93130952D01*
X148609404Y-92940476D01*
X148561785Y-92845238D01*
X148466547Y-92750000D01*
X148323690Y-92702380D01*
X148228452Y-92702380D01*
X148085595Y-92750000D01*
X148037976Y-92797619D01*
D11*
%TO.C,TP12*%
X159450000Y-102250000D02*
G75*
G03*
X159450000Y-102250000I-700000J0D01*
G01*
%TO.C,TP20*%
X154950000Y-106750000D02*
G75*
G03*
X154950000Y-106750000I-700000J0D01*
G01*
%TO.C,TP49*%
X152700000Y-104500000D02*
G75*
G03*
X152700000Y-104500000I-700000J0D01*
G01*
%TO.C,TP27*%
X159450000Y-109000000D02*
G75*
G03*
X159450000Y-109000000I-700000J0D01*
G01*
%TO.C,TP45*%
X152700000Y-86500000D02*
G75*
G03*
X152700000Y-86500000I-700000J0D01*
G01*
%TO.C,TP5*%
X157200000Y-102250000D02*
G75*
G03*
X157200000Y-102250000I-700000J0D01*
G01*
%TO.C,TP54*%
X152700000Y-91000000D02*
G75*
G03*
X152700000Y-91000000I-700000J0D01*
G01*
%TO.C,TP50*%
X152700000Y-84250000D02*
G75*
G03*
X152700000Y-84250000I-700000J0D01*
G01*
%TO.C,TP14*%
X157200000Y-111250000D02*
G75*
G03*
X157200000Y-111250000I-700000J0D01*
G01*
%TO.C,TP28*%
X159450000Y-113500000D02*
G75*
G03*
X159450000Y-113500000I-700000J0D01*
G01*
%TO.C,TP9*%
X157200000Y-88750000D02*
G75*
G03*
X157200000Y-88750000I-700000J0D01*
G01*
%TO.C,TP10*%
X157200000Y-93250000D02*
G75*
G03*
X157200000Y-93250000I-700000J0D01*
G01*
%TO.C,TP35*%
X157200000Y-113500000D02*
G75*
G03*
X157200000Y-113500000I-700000J0D01*
G01*
%TO.C,TP22*%
X159450000Y-86500000D02*
G75*
G03*
X159450000Y-86500000I-700000J0D01*
G01*
%TO.C,TP7*%
X159450000Y-111250000D02*
G75*
G03*
X159450000Y-111250000I-700000J0D01*
G01*
%TO.C,TP41*%
X154950000Y-109000000D02*
G75*
G03*
X154950000Y-109000000I-700000J0D01*
G01*
%TO.C,TP15*%
X154950000Y-84250000D02*
G75*
G03*
X154950000Y-84250000I-700000J0D01*
G01*
%TO.C,TP48*%
X152700000Y-97750000D02*
G75*
G03*
X152700000Y-97750000I-700000J0D01*
G01*
%TO.C,TP38*%
X159450000Y-95500000D02*
G75*
G03*
X159450000Y-95500000I-700000J0D01*
G01*
%TO.C,TP4*%
X159450000Y-97750000D02*
G75*
G03*
X159450000Y-97750000I-700000J0D01*
G01*
%TO.C,TP47*%
X152700000Y-102250000D02*
G75*
G03*
X152700000Y-102250000I-700000J0D01*
G01*
%TO.C,TP51*%
X152700000Y-93250000D02*
G75*
G03*
X152700000Y-93250000I-700000J0D01*
G01*
%TO.C,TP16*%
X154950000Y-88750000D02*
G75*
G03*
X154950000Y-88750000I-700000J0D01*
G01*
%TO.C,TP21*%
X154950000Y-111250000D02*
G75*
G03*
X154950000Y-111250000I-700000J0D01*
G01*
%TO.C,TPe*%
X152700000Y-88750000D02*
G75*
G03*
X152700000Y-88750000I-700000J0D01*
G01*
%TO.C,TP6*%
X159450000Y-106750000D02*
G75*
G03*
X159450000Y-106750000I-700000J0D01*
G01*
%TO.C,TP37*%
X154950000Y-91000000D02*
G75*
G03*
X154950000Y-91000000I-700000J0D01*
G01*
%TO.C,TP32*%
X157200000Y-100000000D02*
G75*
G03*
X157200000Y-100000000I-700000J0D01*
G01*
%TO.C,TP29*%
X157200000Y-86500000D02*
G75*
G03*
X157200000Y-86500000I-700000J0D01*
G01*
%TO.C,TP19*%
X154950000Y-102250000D02*
G75*
G03*
X154950000Y-102250000I-700000J0D01*
G01*
%TO.C,TP1*%
X159450000Y-84250000D02*
G75*
G03*
X159450000Y-84250000I-700000J0D01*
G01*
%TO.C,TP40*%
X159450000Y-104500000D02*
G75*
G03*
X159450000Y-104500000I-700000J0D01*
G01*
%TO.C,TP42*%
X154950000Y-113500000D02*
G75*
G03*
X154950000Y-113500000I-700000J0D01*
G01*
%TO.C,TP3*%
X159450000Y-93250000D02*
G75*
G03*
X159450000Y-93250000I-700000J0D01*
G01*
%TO.C,TP24*%
X154950000Y-95500000D02*
G75*
G03*
X154950000Y-95500000I-700000J0D01*
G01*
%TO.C,TP25*%
X154950000Y-100000000D02*
G75*
G03*
X154950000Y-100000000I-700000J0D01*
G01*
%TO.C,TP18*%
X154950000Y-97750000D02*
G75*
G03*
X154950000Y-97750000I-700000J0D01*
G01*
%TO.C,TP13*%
X157200000Y-106750000D02*
G75*
G03*
X157200000Y-106750000I-700000J0D01*
G01*
%TO.C,TP2*%
X159450000Y-88750000D02*
G75*
G03*
X159450000Y-88750000I-700000J0D01*
G01*
%TO.C,G\u002A\u002A\u002A*%
G36*
X156080651Y-115094444D02*
G01*
X156120704Y-115107623D01*
X156136930Y-115113387D01*
X156180761Y-115129119D01*
X156244650Y-115152168D01*
X156327283Y-115182055D01*
X156427345Y-115218301D01*
X156543522Y-115260428D01*
X156674500Y-115307957D01*
X156818965Y-115360411D01*
X156975602Y-115417310D01*
X157143097Y-115478176D01*
X157320137Y-115542531D01*
X157505405Y-115609895D01*
X157697589Y-115679792D01*
X157895375Y-115751741D01*
X158097447Y-115825265D01*
X158302491Y-115899885D01*
X158509195Y-115975123D01*
X158716242Y-116050500D01*
X158922319Y-116125538D01*
X159126111Y-116199758D01*
X159326305Y-116272682D01*
X159521586Y-116343831D01*
X159710640Y-116412726D01*
X159892152Y-116478890D01*
X160064809Y-116541844D01*
X160227295Y-116601109D01*
X160378298Y-116656207D01*
X160516502Y-116706660D01*
X160640593Y-116751988D01*
X160749258Y-116791714D01*
X160841181Y-116825358D01*
X160915048Y-116852443D01*
X160969546Y-116872490D01*
X161003360Y-116885021D01*
X161015176Y-116889556D01*
X161015283Y-116889822D01*
X161018782Y-116905273D01*
X161026794Y-116943398D01*
X161039027Y-117002728D01*
X161055185Y-117081798D01*
X161074976Y-117179141D01*
X161098105Y-117293291D01*
X161124280Y-117422780D01*
X161153207Y-117566143D01*
X161184591Y-117721911D01*
X161218141Y-117888620D01*
X161253561Y-118064802D01*
X161290558Y-118248991D01*
X161328839Y-118439720D01*
X161368110Y-118635522D01*
X161408078Y-118834931D01*
X161448449Y-119036480D01*
X161488929Y-119238702D01*
X161529225Y-119440132D01*
X161569043Y-119639301D01*
X161608089Y-119834744D01*
X161646071Y-120024995D01*
X161682694Y-120208585D01*
X161717664Y-120384050D01*
X161750689Y-120549921D01*
X161781474Y-120704733D01*
X161809727Y-120847019D01*
X161835153Y-120975312D01*
X161857458Y-121088146D01*
X161876350Y-121184053D01*
X161891534Y-121261568D01*
X161902718Y-121319224D01*
X161909606Y-121355554D01*
X161911907Y-121369091D01*
X161909133Y-121361709D01*
X161899504Y-121332268D01*
X161883410Y-121281767D01*
X161861291Y-121211623D01*
X161833590Y-121123254D01*
X161800747Y-121018078D01*
X161763205Y-120897514D01*
X161721405Y-120762980D01*
X161675788Y-120615893D01*
X161626795Y-120457671D01*
X161574869Y-120289733D01*
X161520451Y-120113497D01*
X161463982Y-119930380D01*
X161016748Y-118479168D01*
X158542545Y-116792587D01*
X158534259Y-116786939D01*
X158310441Y-116634362D01*
X158091944Y-116485399D01*
X157879659Y-116340657D01*
X157674480Y-116200747D01*
X157477299Y-116066277D01*
X157289009Y-115937857D01*
X157110504Y-115816096D01*
X156942675Y-115701603D01*
X156786415Y-115594987D01*
X156642618Y-115496858D01*
X156512176Y-115407824D01*
X156395981Y-115328495D01*
X156294927Y-115259480D01*
X156209907Y-115201388D01*
X156141812Y-115154828D01*
X156091537Y-115120410D01*
X156059973Y-115098743D01*
X156048014Y-115090436D01*
X156045892Y-115088216D01*
X156054379Y-115087659D01*
X156080651Y-115094444D01*
G37*
D12*
X156080651Y-115094444D02*
X156120704Y-115107623D01*
X156136930Y-115113387D01*
X156180761Y-115129119D01*
X156244650Y-115152168D01*
X156327283Y-115182055D01*
X156427345Y-115218301D01*
X156543522Y-115260428D01*
X156674500Y-115307957D01*
X156818965Y-115360411D01*
X156975602Y-115417310D01*
X157143097Y-115478176D01*
X157320137Y-115542531D01*
X157505405Y-115609895D01*
X157697589Y-115679792D01*
X157895375Y-115751741D01*
X158097447Y-115825265D01*
X158302491Y-115899885D01*
X158509195Y-115975123D01*
X158716242Y-116050500D01*
X158922319Y-116125538D01*
X159126111Y-116199758D01*
X159326305Y-116272682D01*
X159521586Y-116343831D01*
X159710640Y-116412726D01*
X159892152Y-116478890D01*
X160064809Y-116541844D01*
X160227295Y-116601109D01*
X160378298Y-116656207D01*
X160516502Y-116706660D01*
X160640593Y-116751988D01*
X160749258Y-116791714D01*
X160841181Y-116825358D01*
X160915048Y-116852443D01*
X160969546Y-116872490D01*
X161003360Y-116885021D01*
X161015176Y-116889556D01*
X161015283Y-116889822D01*
X161018782Y-116905273D01*
X161026794Y-116943398D01*
X161039027Y-117002728D01*
X161055185Y-117081798D01*
X161074976Y-117179141D01*
X161098105Y-117293291D01*
X161124280Y-117422780D01*
X161153207Y-117566143D01*
X161184591Y-117721911D01*
X161218141Y-117888620D01*
X161253561Y-118064802D01*
X161290558Y-118248991D01*
X161328839Y-118439720D01*
X161368110Y-118635522D01*
X161408078Y-118834931D01*
X161448449Y-119036480D01*
X161488929Y-119238702D01*
X161529225Y-119440132D01*
X161569043Y-119639301D01*
X161608089Y-119834744D01*
X161646071Y-120024995D01*
X161682694Y-120208585D01*
X161717664Y-120384050D01*
X161750689Y-120549921D01*
X161781474Y-120704733D01*
X161809727Y-120847019D01*
X161835153Y-120975312D01*
X161857458Y-121088146D01*
X161876350Y-121184053D01*
X161891534Y-121261568D01*
X161902718Y-121319224D01*
X161909606Y-121355554D01*
X161911907Y-121369091D01*
X161909133Y-121361709D01*
X161899504Y-121332268D01*
X161883410Y-121281767D01*
X161861291Y-121211623D01*
X161833590Y-121123254D01*
X161800747Y-121018078D01*
X161763205Y-120897514D01*
X161721405Y-120762980D01*
X161675788Y-120615893D01*
X161626795Y-120457671D01*
X161574869Y-120289733D01*
X161520451Y-120113497D01*
X161463982Y-119930380D01*
X161016748Y-118479168D01*
X158542545Y-116792587D01*
X158534259Y-116786939D01*
X158310441Y-116634362D01*
X158091944Y-116485399D01*
X157879659Y-116340657D01*
X157674480Y-116200747D01*
X157477299Y-116066277D01*
X157289009Y-115937857D01*
X157110504Y-115816096D01*
X156942675Y-115701603D01*
X156786415Y-115594987D01*
X156642618Y-115496858D01*
X156512176Y-115407824D01*
X156395981Y-115328495D01*
X156294927Y-115259480D01*
X156209907Y-115201388D01*
X156141812Y-115154828D01*
X156091537Y-115120410D01*
X156059973Y-115098743D01*
X156048014Y-115090436D01*
X156045892Y-115088216D01*
X156054379Y-115087659D01*
X156080651Y-115094444D01*
G36*
X156038381Y-115539611D02*
G01*
X156055459Y-115550839D01*
X156091626Y-115575456D01*
X156145968Y-115612825D01*
X156217573Y-115662310D01*
X156305526Y-115723274D01*
X156408914Y-115795081D01*
X156526824Y-115877094D01*
X156658342Y-115968676D01*
X156802555Y-116069191D01*
X156958549Y-116178003D01*
X157125412Y-116294475D01*
X157302229Y-116417969D01*
X157488087Y-116547851D01*
X157682072Y-116683482D01*
X157883272Y-116824227D01*
X158090773Y-116969449D01*
X158303661Y-117118512D01*
X160565619Y-118702685D01*
X161015867Y-120054498D01*
X161042251Y-120133730D01*
X161100059Y-120307439D01*
X161155413Y-120473931D01*
X161207824Y-120631723D01*
X161256800Y-120779332D01*
X161301852Y-120915275D01*
X161342488Y-121038069D01*
X161378219Y-121146231D01*
X161408553Y-121238278D01*
X161433000Y-121312727D01*
X161451069Y-121368094D01*
X161462271Y-121402898D01*
X161466114Y-121415655D01*
X161466113Y-121415876D01*
X161463013Y-121424608D01*
X161457505Y-121422321D01*
X161431122Y-121411108D01*
X161384133Y-121391046D01*
X161317835Y-121362693D01*
X161233527Y-121326605D01*
X161132509Y-121283339D01*
X161016078Y-121233451D01*
X160885534Y-121177498D01*
X160742176Y-121116036D01*
X160587301Y-121049623D01*
X160422208Y-120978814D01*
X160248197Y-120904166D01*
X160066566Y-120826236D01*
X159878614Y-120745580D01*
X158297315Y-120066943D01*
X157164893Y-117805257D01*
X157098760Y-117673153D01*
X156989214Y-117454223D01*
X156883007Y-117241835D01*
X156780658Y-117037033D01*
X156682684Y-116840857D01*
X156589605Y-116654350D01*
X156501939Y-116478555D01*
X156420204Y-116314512D01*
X156344920Y-116163264D01*
X156276605Y-116025854D01*
X156215777Y-115903322D01*
X156162956Y-115796713D01*
X156118658Y-115707066D01*
X156083404Y-115635425D01*
X156057712Y-115582831D01*
X156042100Y-115550327D01*
X156037087Y-115538955D01*
X156038381Y-115539611D01*
G37*
X156038381Y-115539611D02*
X156055459Y-115550839D01*
X156091626Y-115575456D01*
X156145968Y-115612825D01*
X156217573Y-115662310D01*
X156305526Y-115723274D01*
X156408914Y-115795081D01*
X156526824Y-115877094D01*
X156658342Y-115968676D01*
X156802555Y-116069191D01*
X156958549Y-116178003D01*
X157125412Y-116294475D01*
X157302229Y-116417969D01*
X157488087Y-116547851D01*
X157682072Y-116683482D01*
X157883272Y-116824227D01*
X158090773Y-116969449D01*
X158303661Y-117118512D01*
X160565619Y-118702685D01*
X161015867Y-120054498D01*
X161042251Y-120133730D01*
X161100059Y-120307439D01*
X161155413Y-120473931D01*
X161207824Y-120631723D01*
X161256800Y-120779332D01*
X161301852Y-120915275D01*
X161342488Y-121038069D01*
X161378219Y-121146231D01*
X161408553Y-121238278D01*
X161433000Y-121312727D01*
X161451069Y-121368094D01*
X161462271Y-121402898D01*
X161466114Y-121415655D01*
X161466113Y-121415876D01*
X161463013Y-121424608D01*
X161457505Y-121422321D01*
X161431122Y-121411108D01*
X161384133Y-121391046D01*
X161317835Y-121362693D01*
X161233527Y-121326605D01*
X161132509Y-121283339D01*
X161016078Y-121233451D01*
X160885534Y-121177498D01*
X160742176Y-121116036D01*
X160587301Y-121049623D01*
X160422208Y-120978814D01*
X160248197Y-120904166D01*
X160066566Y-120826236D01*
X159878614Y-120745580D01*
X158297315Y-120066943D01*
X157164893Y-117805257D01*
X157098760Y-117673153D01*
X156989214Y-117454223D01*
X156883007Y-117241835D01*
X156780658Y-117037033D01*
X156682684Y-116840857D01*
X156589605Y-116654350D01*
X156501939Y-116478555D01*
X156420204Y-116314512D01*
X156344920Y-116163264D01*
X156276605Y-116025854D01*
X156215777Y-115903322D01*
X156162956Y-115796713D01*
X156118658Y-115707066D01*
X156083404Y-115635425D01*
X156057712Y-115582831D01*
X156042100Y-115550327D01*
X156037087Y-115538955D01*
X156038381Y-115539611D01*
G36*
X155579672Y-115540286D02*
G01*
X155589866Y-115559751D01*
X155610443Y-115600010D01*
X155640906Y-115660071D01*
X155680760Y-115738947D01*
X155729507Y-115835646D01*
X155786650Y-115949181D01*
X155851693Y-116078560D01*
X155924138Y-116222794D01*
X156003490Y-116380894D01*
X156089251Y-116551870D01*
X156180925Y-116734733D01*
X156278014Y-116928493D01*
X156380023Y-117132160D01*
X156486454Y-117344744D01*
X156596810Y-117565257D01*
X156710595Y-117792708D01*
X156827312Y-118026107D01*
X158072701Y-120516983D01*
X159276414Y-120954132D01*
X159404114Y-121000526D01*
X159565902Y-121059358D01*
X159720374Y-121115589D01*
X159865929Y-121168632D01*
X160000968Y-121217903D01*
X160123888Y-121262817D01*
X160233092Y-121302788D01*
X160326977Y-121337230D01*
X160403944Y-121365559D01*
X160462393Y-121387190D01*
X160500723Y-121401535D01*
X160517334Y-121408012D01*
X160523521Y-121410881D01*
X160536910Y-121418774D01*
X160529737Y-121419097D01*
X160516671Y-121416181D01*
X160480470Y-121408126D01*
X160422536Y-121395245D01*
X160344147Y-121377822D01*
X160246585Y-121356142D01*
X160131129Y-121330488D01*
X159999059Y-121301145D01*
X159851654Y-121268397D01*
X159690195Y-121232530D01*
X159515961Y-121193826D01*
X159330232Y-121152570D01*
X159134289Y-121109047D01*
X158929409Y-121063541D01*
X158716875Y-121016337D01*
X158497965Y-120967718D01*
X158289434Y-120921379D01*
X158077085Y-120874136D01*
X157872516Y-120828569D01*
X157676992Y-120784962D01*
X157491777Y-120743598D01*
X157318136Y-120704761D01*
X157157332Y-120668734D01*
X157010630Y-120635803D01*
X156879296Y-120606250D01*
X156764592Y-120580360D01*
X156667783Y-120558416D01*
X156590135Y-120540702D01*
X156532910Y-120527503D01*
X156497375Y-120519101D01*
X156484792Y-120515781D01*
X156482366Y-120504954D01*
X156475730Y-120471054D01*
X156465173Y-120415457D01*
X156450948Y-120339557D01*
X156433310Y-120244754D01*
X156412514Y-120132443D01*
X156388814Y-120004021D01*
X156362463Y-119860886D01*
X156333717Y-119704433D01*
X156302830Y-119536061D01*
X156270056Y-119357165D01*
X156235649Y-119169143D01*
X156199863Y-118973391D01*
X156162954Y-118771307D01*
X156125175Y-118564286D01*
X156086781Y-118353727D01*
X156048025Y-118141026D01*
X156009163Y-117927580D01*
X155970448Y-117714786D01*
X155932135Y-117504040D01*
X155894479Y-117296739D01*
X155857733Y-117094281D01*
X155822151Y-116898062D01*
X155787989Y-116709479D01*
X155755501Y-116529929D01*
X155724940Y-116360808D01*
X155696562Y-116203514D01*
X155670620Y-116059444D01*
X155647368Y-115929994D01*
X155627062Y-115816561D01*
X155609955Y-115720543D01*
X155596302Y-115643335D01*
X155586357Y-115586335D01*
X155580375Y-115550940D01*
X155578609Y-115538546D01*
X155579672Y-115540286D01*
G37*
X155579672Y-115540286D02*
X155589866Y-115559751D01*
X155610443Y-115600010D01*
X155640906Y-115660071D01*
X155680760Y-115738947D01*
X155729507Y-115835646D01*
X155786650Y-115949181D01*
X155851693Y-116078560D01*
X155924138Y-116222794D01*
X156003490Y-116380894D01*
X156089251Y-116551870D01*
X156180925Y-116734733D01*
X156278014Y-116928493D01*
X156380023Y-117132160D01*
X156486454Y-117344744D01*
X156596810Y-117565257D01*
X156710595Y-117792708D01*
X156827312Y-118026107D01*
X158072701Y-120516983D01*
X159276414Y-120954132D01*
X159404114Y-121000526D01*
X159565902Y-121059358D01*
X159720374Y-121115589D01*
X159865929Y-121168632D01*
X160000968Y-121217903D01*
X160123888Y-121262817D01*
X160233092Y-121302788D01*
X160326977Y-121337230D01*
X160403944Y-121365559D01*
X160462393Y-121387190D01*
X160500723Y-121401535D01*
X160517334Y-121408012D01*
X160523521Y-121410881D01*
X160536910Y-121418774D01*
X160529737Y-121419097D01*
X160516671Y-121416181D01*
X160480470Y-121408126D01*
X160422536Y-121395245D01*
X160344147Y-121377822D01*
X160246585Y-121356142D01*
X160131129Y-121330488D01*
X159999059Y-121301145D01*
X159851654Y-121268397D01*
X159690195Y-121232530D01*
X159515961Y-121193826D01*
X159330232Y-121152570D01*
X159134289Y-121109047D01*
X158929409Y-121063541D01*
X158716875Y-121016337D01*
X158497965Y-120967718D01*
X158289434Y-120921379D01*
X158077085Y-120874136D01*
X157872516Y-120828569D01*
X157676992Y-120784962D01*
X157491777Y-120743598D01*
X157318136Y-120704761D01*
X157157332Y-120668734D01*
X157010630Y-120635803D01*
X156879296Y-120606250D01*
X156764592Y-120580360D01*
X156667783Y-120558416D01*
X156590135Y-120540702D01*
X156532910Y-120527503D01*
X156497375Y-120519101D01*
X156484792Y-120515781D01*
X156482366Y-120504954D01*
X156475730Y-120471054D01*
X156465173Y-120415457D01*
X156450948Y-120339557D01*
X156433310Y-120244754D01*
X156412514Y-120132443D01*
X156388814Y-120004021D01*
X156362463Y-119860886D01*
X156333717Y-119704433D01*
X156302830Y-119536061D01*
X156270056Y-119357165D01*
X156235649Y-119169143D01*
X156199863Y-118973391D01*
X156162954Y-118771307D01*
X156125175Y-118564286D01*
X156086781Y-118353727D01*
X156048025Y-118141026D01*
X156009163Y-117927580D01*
X155970448Y-117714786D01*
X155932135Y-117504040D01*
X155894479Y-117296739D01*
X155857733Y-117094281D01*
X155822151Y-116898062D01*
X155787989Y-116709479D01*
X155755501Y-116529929D01*
X155724940Y-116360808D01*
X155696562Y-116203514D01*
X155670620Y-116059444D01*
X155647368Y-115929994D01*
X155627062Y-115816561D01*
X155609955Y-115720543D01*
X155596302Y-115643335D01*
X155586357Y-115586335D01*
X155580375Y-115550940D01*
X155578609Y-115538546D01*
X155579672Y-115540286D01*
D11*
%TO.C,TP39*%
X159450000Y-100000000D02*
G75*
G03*
X159450000Y-100000000I-700000J0D01*
G01*
%TO.C,TP23*%
X159450000Y-91000000D02*
G75*
G03*
X159450000Y-91000000I-700000J0D01*
G01*
%TO.C,TP44*%
X152700000Y-95500000D02*
G75*
G03*
X152700000Y-95500000I-700000J0D01*
G01*
%TO.C,TP17*%
X154950000Y-93250000D02*
G75*
G03*
X154950000Y-93250000I-700000J0D01*
G01*
%TO.C,TP11*%
X157200000Y-97750000D02*
G75*
G03*
X157200000Y-97750000I-700000J0D01*
G01*
%TO.C,TP33*%
X154950000Y-104500000D02*
G75*
G03*
X154950000Y-104500000I-700000J0D01*
G01*
%TO.C,TP36*%
X154950000Y-86500000D02*
G75*
G03*
X154950000Y-86500000I-700000J0D01*
G01*
%TO.C,TP30*%
X157200000Y-91000000D02*
G75*
G03*
X157200000Y-91000000I-700000J0D01*
G01*
%TO.C,TP56*%
X152700000Y-100000000D02*
G75*
G03*
X152700000Y-100000000I-700000J0D01*
G01*
%TO.C,TP8*%
X157200000Y-84250000D02*
G75*
G03*
X157200000Y-84250000I-700000J0D01*
G01*
%TO.C,TP34*%
X157200000Y-109000000D02*
G75*
G03*
X157200000Y-109000000I-700000J0D01*
G01*
%TO.C,TP26*%
X157200000Y-104500000D02*
G75*
G03*
X157200000Y-104500000I-700000J0D01*
G01*
%TO.C,TP31*%
X157200000Y-95500000D02*
G75*
G03*
X157200000Y-95500000I-700000J0D01*
G01*
%TD*%
M02*
